# Blender v2.92.0 OBJ File: 'NuclearStationGrouped.blend'
# www.blender.org
mtllib NuclearStation_PlatformSupport01.mtl
o PlatformSupport01_Cube.038_Cube.061
v -3.581451 0.318058 0.078547
v -3.501196 0.237803 0.078547
v -3.581451 0.237803 0.078547
v -3.581451 0.318058 0.158803
v -3.581451 0.930610 0.078547
v -3.581451 0.930610 0.158803
v -3.501196 0.318058 0.078547
v -2.836390 0.318058 0.078636
v -3.501196 0.930610 0.078547
v -3.501196 0.318058 0.158803
v -3.581451 0.237803 0.158803
v -3.501196 0.237803 0.158803
v -3.501196 0.930610 0.158803
v -3.501196 0.318058 0.822587
v -2.836390 0.318058 0.158891
v -2.836391 0.318058 0.822675
v -2.836391 0.237803 0.822675
v -2.756135 0.318058 0.822675
v -2.836390 0.930610 0.158891
v -2.756134 0.930610 0.158891
v -2.756134 0.318058 0.158891
v -2.836390 0.237803 0.158891
v -2.756134 0.237803 0.158891
v -2.756135 0.237803 0.822675
v -2.836390 0.237803 0.078636
v -2.756134 0.148079 0.158891
v -2.836390 0.148079 0.158891
v -2.836390 0.148079 0.078636
v -2.756134 0.148079 0.078636
v -2.756134 0.237803 0.078636
v -2.756134 0.318058 0.078636
v -2.756134 0.930610 0.078636
v -2.836390 0.930610 0.078636
v -2.836390 1.010866 0.078636
v -2.756134 1.010866 0.078636
v -3.501196 1.010866 0.078547
v -2.756134 1.119672 0.078637
v -2.836390 1.119672 0.078637
v -3.501196 1.010866 0.158803
v -2.836390 1.010866 0.158891
v -2.836391 1.010866 0.822675
v -2.836391 0.930610 0.822675
v -2.756135 1.010866 0.822675
v -2.756134 1.010866 0.158891
v -2.836390 1.119672 0.158892
v -2.756134 1.119672 0.158892
v -2.756135 0.930610 0.822675
v -2.756135 0.318058 0.902931
v -2.756135 0.930610 0.902931
v -2.756135 1.010866 0.902931
v -2.836391 0.930610 0.902931
v -2.836391 0.318058 0.902931
v -3.501196 0.237803 0.902843
v -3.501196 0.318058 0.902843
v -2.836391 0.237803 0.902931
v -2.756135 0.237803 0.902931
v -2.836391 0.148079 0.902931
v -2.756135 0.148079 0.902931
v -2.836391 0.148079 0.822675
v -2.756135 0.148079 0.822675
v -3.501196 0.930610 0.902843
v -3.581451 0.237803 0.902843
v -3.581451 0.318058 0.902843
v -3.501196 0.930610 0.822587
v -3.581451 1.010866 0.822587
v -3.501196 1.010866 0.822587
v -3.581451 0.930610 0.822587
v -3.581451 0.318058 0.822587
v -3.581451 1.010866 0.902843
v -3.581451 0.930610 0.902843
v -3.581451 1.010866 0.158803
v -3.581451 1.010866 0.078547
v -3.581451 1.119673 0.158803
v -3.581451 1.119673 0.078547
v -3.501196 1.119673 0.158803
v -3.501196 1.119673 0.078547
v -3.501196 1.010866 0.902843
v -3.581451 1.119672 0.902843
v -3.501196 1.119672 0.902843
v -2.836391 1.010866 0.902931
v -2.836391 1.119672 0.902931
v -2.836391 1.119672 0.822675
v -2.756135 1.119672 0.822675
v -2.756135 1.119672 0.902931
v -3.501196 1.119672 0.822587
v -3.581451 1.119672 0.822587
v -3.501196 0.237803 0.822587
v -3.581451 0.237803 0.822587
v -3.581451 0.148079 0.902843
v -3.581451 0.148079 0.822587
v -3.501196 0.148079 0.822587
v -3.501196 0.148079 0.902843
v -3.501196 0.148079 0.078547
v -3.501196 0.148079 0.158803
v -3.581451 0.148079 0.158803
v -3.581451 0.148079 0.078547
v -2.844950 0.949301 0.844481
v -2.844950 0.949301 0.880850
v -3.518647 0.329491 0.880850
v -2.819232 0.923584 0.844481
v -3.518647 0.329491 0.844481
v -3.492929 0.303774 0.844481
v -3.492929 0.303774 0.880850
v -2.819232 0.923584 0.880850
v -2.821391 0.329291 0.100577
v -3.492902 0.951468 0.136947
v -2.821391 0.329291 0.136947
v -3.516488 0.923784 0.100577
v -2.844977 0.301607 0.100577
v -3.492902 0.951468 0.100577
v -2.844977 0.301607 0.136947
v -3.516488 0.923784 0.136947
v -3.559822 0.933994 0.373879
v -3.559167 0.310871 0.410249
v -3.559822 0.933994 0.410249
v -3.523485 0.933989 0.373879
v -3.559167 0.310871 0.373879
v -3.522830 0.310895 0.373879
v -3.523485 0.933989 0.410249
v -3.522830 0.310895 0.410249
v -3.559822 0.933994 0.575667
v -3.559167 0.310871 0.612036
v -3.559822 0.933994 0.612036
v -3.523485 0.933989 0.575667
v -3.559167 0.310871 0.575667
v -3.522830 0.310895 0.575667
v -3.523485 0.933989 0.612036
v -3.522830 0.310895 0.612036
vt 0.245222 0.862548
vt 0.247953 0.862548
vt 0.247953 0.867949
vt 0.245222 0.867949
vt 0.510137 0.872110
vt 0.512868 0.872110
vt 0.512868 0.877510
vt 0.510137 0.830894
vt 0.512868 0.830894
vt 0.245222 0.821324
vt 0.219820 0.963740
vt 0.222551 0.941121
vt 0.222551 0.963740
vt 0.270573 0.862548
vt 0.247953 0.821324
vt 0.760451 0.922434
vt 0.763181 0.963628
vt 0.760451 0.963628
vt 0.147688 0.820008
vt 0.144957 0.820008
vt 0.144957 0.814606
vt 0.147688 0.814606
vt 0.170307 0.820008
vt 0.352715 0.956221
vt 0.347317 0.933637
vt 0.352715 0.933637
vt 0.329119 0.970978
vt 0.331850 0.948394
vt 0.331850 0.970978
vt 0.147688 0.861233
vt 0.763181 0.922434
vt 0.219820 0.941121
vt 0.403465 0.928707
vt 0.408865 0.951292
vt 0.403465 0.951292
vt 0.877418 0.970347
vt 0.880149 0.947763
vt 0.880149 0.970347
vt 0.408865 0.928708
vt 0.877418 0.947763
vt 0.170307 0.814607
vt 0.173038 0.861234
vt 0.170307 0.861234
vt 0.120393 0.963032
vt 0.117662 0.921817
vt 0.120393 0.921816
vt 0.173038 0.820008
vt 0.173038 0.808568
vt 0.173038 0.814607
vt 0.705376 0.971043
vt 0.702646 0.948459
vt 0.705376 0.948460
vt 0.702646 0.971043
vt 0.899780 0.969071
vt 0.897050 0.946460
vt 0.899780 0.946459
vt 0.400684 0.993013
vt 0.403414 0.986976
vt 0.403414 0.993013
vt 0.170307 0.808568
vt 0.400684 0.986976
vt 0.273303 0.867950
vt 0.273303 0.873988
vt 0.270573 0.873988
vt 0.270573 0.867950
vt 0.732547 0.829412
vt 0.729816 0.829412
vt 0.729816 0.823379
vt 0.732547 0.834809
vt 0.273303 0.862548
vt 0.732547 0.823378
vt 0.729816 0.834809
vt 0.732547 0.876003
vt 0.270573 0.821324
vt 0.273303 0.821324
vt 0.885137 0.946469
vt 0.887867 0.946469
vt 0.887867 0.969080
vt 0.270573 0.815923
vt 0.117662 0.963032
vt 0.885137 0.969081
vt 0.273303 0.815923
vt 0.273303 0.808601
vt 0.247953 0.815923
vt 0.055641 0.965316
vt 0.058372 0.942698
vt 0.058372 0.965317
vt 0.270573 0.808601
vt 0.317134 0.986025
vt 0.314403 0.993346
vt 0.314403 0.986025
vt 0.055641 0.942697
vt 0.191117 0.952910
vt 0.185717 0.930326
vt 0.191117 0.930326
vt 0.781604 0.969436
vt 0.784335 0.946852
vt 0.784335 0.969436
vt 0.185717 0.952910
vt 0.781604 0.946852
vt 0.170307 0.866635
vt 0.147688 0.866635
vt 0.173038 0.866635
vt 0.170307 0.873958
vt 0.317134 0.993346
vt 0.173038 0.873958
vt 0.732547 0.881400
vt 0.729816 0.888718
vt 0.729816 0.881400
vt 0.732547 0.888717
vt 0.729816 0.876003
vt 0.707232 0.876005
vt 0.707232 0.881402
vt 0.239609 0.815923
vt 0.242339 0.815923
vt 0.242339 0.821324
vt 0.239609 0.821324
vt 0.712455 0.948459
vt 0.715185 0.948460
vt 0.715185 0.971043
vt 0.242339 0.862548
vt 0.704501 0.876005
vt 0.712455 0.971043
vt 0.704501 0.834811
vt 0.707232 0.834811
vt 0.704501 0.881402
vt 0.418400 0.860670
vt 0.415669 0.855269
vt 0.418400 0.855269
vt 0.415669 0.814043
vt 0.418400 0.814043
vt 0.393049 0.808642
vt 0.415669 0.808642
vt 0.393049 0.814043
vt 0.239338 0.964415
vt 0.239338 0.941796
vt 0.242069 0.941797
vt 0.645561 0.963222
vt 0.642830 0.922007
vt 0.645561 0.922007
vt 0.023332 0.946845
vt 0.026063 0.969456
vt 0.023332 0.969456
vt 0.418400 0.808642
vt 0.415669 0.802603
vt 0.662631 0.992913
vt 0.665362 0.986876
vt 0.665362 0.992913
vt 0.418400 0.802603
vt 0.662631 0.986876
vt 0.242339 0.867950
vt 0.242339 0.873988
vt 0.239609 0.873988
vt 0.239609 0.867950
vt 0.704501 0.829414
vt 0.704501 0.823380
vt 0.707232 0.823380
vt 0.707232 0.829414
vt 0.242069 0.964416
vt 0.753371 0.963628
vt 0.750640 0.922434
vt 0.753371 0.922434
vt 0.390319 0.808642
vt 0.750640 0.963628
vt 0.393049 0.855269
vt 0.390319 0.814043
vt 0.214258 0.815923
vt 0.216989 0.815923
vt 0.216989 0.821324
vt 0.214258 0.821324
vt 0.904686 0.969071
vt 0.901955 0.969072
vt 0.901955 0.946460
vt 0.846283 0.954319
vt 0.840885 0.954319
vt 0.840885 0.931735
vt 0.216989 0.862548
vt 0.815151 0.951280
vt 0.815151 0.973864
vt 0.812421 0.973863
vt 0.214258 0.862548
vt 0.484822 0.830895
vt 0.487552 0.830895
vt 0.487552 0.872111
vt 0.484822 0.825495
vt 0.487552 0.825495
vt 0.510137 0.825494
vt 0.812421 0.951279
vt 0.512868 0.825494
vt 0.510137 0.818173
vt 0.144957 0.866635
vt 0.144957 0.861233
vt 0.144957 0.873958
vt 0.326945 0.948394
vt 0.324214 0.970978
vt 0.324214 0.948394
vt 0.326945 0.970978
vt 0.512868 0.818173
vt 0.147688 0.873958
vt 0.993656 0.100094
vt 0.993656 0.107411
vt 0.990926 0.107411
vt 0.990926 0.100094
vt 0.245222 0.815923
vt 0.245222 0.808600
vt 0.247953 0.808600
vt 0.390319 0.855269
vt 0.484822 0.872111
vt 0.393049 0.860670
vt 0.390319 0.860670
vt 0.930547 0.969063
vt 0.933278 0.946445
vt 0.933278 0.969063
vt 0.993656 0.062079
vt 0.990926 0.069396
vt 0.990926 0.062079
vt 0.390319 0.867993
vt 0.393049 0.867993
vt 0.415669 0.860670
vt 0.930547 0.946444
vt 0.326945 0.986025
vt 0.324214 0.993346
vt 0.324214 0.986025
vt 0.415669 0.867993
vt 0.326945 0.993346
vt 0.239609 0.808601
vt 0.242339 0.808601
vt 0.707232 0.888719
vt 0.704501 0.888719
vt 0.418400 0.867993
vt 0.993656 0.069396
vt 0.214258 0.808600
vt 0.216989 0.808600
vt 0.487552 0.818174
vt 0.484821 0.818174
vt 0.487552 0.877511
vt 0.329119 0.948394
vt 0.216989 0.867949
vt 0.214258 0.867949
vt 0.510137 0.877510
vt 0.484822 0.883548
vt 0.484822 0.877511
vt 0.826737 0.973863
vt 0.826737 0.951280
vt 0.829467 0.951280
vt 0.214258 0.873988
vt 0.487552 0.883548
vt 0.829467 0.973864
vt 0.216989 0.873988
vt 0.207947 0.993143
vt 0.207947 0.987109
vt 0.210678 0.987109
vt 0.210678 0.993143
vt 0.393049 0.802603
vt 0.390319 0.802603
vt 0.026063 0.946844
vt 0.239609 0.862548
vt 0.347317 0.956221
vt 0.846283 0.931735
vt 0.904686 0.946459
vt 0.642830 0.963222
vt 0.897050 0.969072
vt 0.200976 0.993065
vt 0.203707 0.987031
vt 0.203707 0.993065
vt 0.147688 0.808568
vt 0.200976 0.987031
vt 0.144957 0.808568
vt 0.512868 0.883547
vt 0.510137 0.883547
vt 0.247953 0.873988
vt 0.245222 0.873988
vt 0.969451 0.427728
vt 0.970688 0.385497
vt 0.970688 0.427729
vt 0.969451 0.385496
vt 0.975962 0.317369
vt 0.974361 0.363869
vt 0.974361 0.316274
vt 0.975962 0.364964
vt 0.944884 0.563338
vt 0.944884 0.522570
vt 0.946122 0.522569
vt 0.946122 0.563337
vt 0.974740 0.052839
vt 0.973140 0.053935
vt 0.973140 0.006338
vt 0.974740 0.005242
vt 0.229874 0.963857
vt 0.229874 0.921105
vt 0.231111 0.921106
vt 0.231111 0.963858
vt 0.972924 0.548233
vt 0.971327 0.549484
vt 0.971327 0.501784
vt 0.972924 0.500533
vt 0.599732 0.982334
vt 0.600970 0.940995
vt 0.600970 0.982333
vt 0.595512 0.966468
vt 0.597109 0.920019
vt 0.597109 0.967719
vt 0.599732 0.940996
vt 0.595512 0.918768
vt 0.977130 0.758807
vt 0.977130 0.800733
vt 0.975893 0.800733
vt 0.975893 0.758807
vt 0.978100 0.403321
vt 0.979336 0.361387
vt 0.979336 0.403322
vt 0.978100 0.361387
vt 0.980501 0.758806
vt 0.979263 0.800710
vt 0.979263 0.758807
vt 0.980501 0.800710
vt 0.979011 0.653962
vt 0.977775 0.653962
vt 0.977775 0.612026
vt 0.979011 0.612025
vt 0.975883 0.755087
vt 0.975883 0.713161
vt 0.977120 0.713161
vt 0.977120 0.755087
vt 0.978148 0.601818
vt 0.979384 0.559883
vt 0.979384 0.601819
vt 0.978148 0.559884
vt 0.979180 0.181002
vt 0.980417 0.139099
vt 0.980417 0.181002
vt 0.979180 0.139099
vt 0.978674 0.243897
vt 0.977438 0.243896
vt 0.977438 0.201961
vt 0.978674 0.201960
vn 0.0000 0.0000 -1.0000
vn 0.0001 0.0000 -1.0000
vn -1.0000 0.0000 0.0000
vn 0.0000 1.0000 0.0000
vn 1.0000 -0.0000 0.0000
vn 0.0000 0.0000 1.0000
vn -0.0001 0.0000 1.0000
vn 0.0000 -1.0000 -0.0000
vn -0.6771 0.7359 0.0000
vn 0.6771 -0.7359 0.0000
vn 0.6796 0.7335 0.0000
vn -0.6796 -0.7335 0.0000
vn -1.0000 -0.0011 0.0000
vn 1.0000 0.0011 0.0000
usemtl Nuclear_station_1.002
s 1
f 1/1/1 7/2/1 2/3/2
f 1/1/1 2/3/2 3/4/1
f 4/5/3 1/6/3 3/7/3
f 6/8/3 1/6/3 4/5/3
f 6/8/3 5/9/3 1/6/3
f 5/10/1 7/2/1 1/1/1
f 10/11/4 8/12/4 7/13/4
f 8/14/1 2/3/2 7/2/1
f 5/10/1 9/15/1 7/2/1
f 9/16/5 10/17/5 7/18/5
f 10/19/6 4/20/6 11/21/6
f 10/19/6 11/21/6 12/22/6
f 12/22/7 15/23/7 10/19/7
f 14/24/5 12/25/5 10/26/5
f 4/27/4 14/28/4 10/29/4
f 13/30/6 4/20/6 10/19/6
f 9/16/5 13/31/5 10/17/5
f 10/11/4 15/32/4 8/12/4
f 15/33/3 17/34/3 16/35/3
f 18/36/4 15/37/4 16/38/4
f 15/33/3 22/39/3 17/34/3
f 18/36/4 21/40/4 15/37/4
f 12/22/7 22/41/7 15/23/7
f 20/42/6 19/43/6 15/23/6
f 19/44/3 8/45/3 15/46/3
f 20/42/6 15/23/6 21/47/6
f 21/47/6 15/23/6 22/41/6
f 22/41/6 26/48/6 23/49/6
f 24/50/8 22/51/8 23/52/8
f 21/47/6 22/41/6 23/49/6
f 24/50/8 17/53/8 22/51/8
f 12/54/8 25/55/8 22/56/8
f 25/57/3 27/58/3 22/59/3
f 22/41/6 27/60/6 26/48/6
f 25/57/3 28/61/3 27/58/3
f 30/62/1 29/63/1 28/64/1
f 30/62/1 28/64/1 25/65/1
f 30/66/5 23/67/5 26/68/5
f 31/69/5 23/67/5 30/66/5
f 8/14/1 31/70/1 30/62/1
f 8/14/1 30/62/1 25/65/1
f 30/66/5 26/68/5 29/71/5
f 31/69/5 21/72/5 23/67/5
f 32/73/5 21/72/5 31/69/5
f 33/74/1 32/75/1 31/70/1
f 33/74/1 31/70/1 8/14/1
f 13/76/8 9/77/8 33/78/8
f 34/79/2 33/74/1 9/15/1
f 19/44/3 33/80/3 8/45/3
f 13/76/8 33/78/8 19/81/8
f 34/79/2 32/75/1 33/74/1
f 34/79/2 35/82/1 32/75/1
f 34/79/2 37/83/1 35/82/1
f 34/79/2 9/15/1 36/84/1
f 39/85/4 34/86/4 36/87/4
f 34/79/1 38/88/1 37/83/1
f 40/89/3 38/90/3 34/91/3
f 39/85/4 40/92/4 34/86/4
f 40/93/3 42/94/3 41/95/3
f 43/96/4 40/97/4 41/98/4
f 40/93/3 19/99/3 42/94/3
f 43/96/4 44/100/4 40/97/4
f 13/30/7 40/101/7 39/102/7
f 44/103/6 40/101/6 19/43/6
f 44/103/6 45/104/6 40/101/6
f 13/30/7 19/43/7 40/101/7
f 40/89/3 45/105/3 38/90/3
f 44/103/6 46/106/6 45/104/6
f 35/107/5 46/108/5 44/109/5
f 35/107/5 37/110/5 46/108/5
f 44/103/6 19/43/6 20/42/6
f 35/107/5 44/109/5 20/111/5
f 47/112/5 20/111/5 44/109/5
f 47/112/5 44/109/5 43/113/5
f 41/114/1 43/115/1 47/116/1
f 41/114/1 47/116/1 42/117/1
f 47/118/8 42/119/8 19/120/8
f 42/117/1 47/116/1 18/121/1
f 43/113/5 49/122/5 47/112/5
f 47/118/8 19/120/8 20/123/8
f 47/112/5 48/124/5 18/125/5
f 47/112/5 49/122/5 48/124/5
f 43/113/5 50/126/5 49/122/5
f 50/127/6 51/128/6 49/129/6
f 49/129/6 51/128/6 52/130/6
f 49/129/6 52/130/6 48/131/6
f 53/132/6 55/133/6 52/130/6
f 53/132/6 52/130/6 54/134/6
f 54/135/4 52/136/4 16/137/4
f 51/138/3 16/139/3 52/140/3
f 48/131/6 52/130/6 55/133/6
f 53/141/8 17/142/8 55/143/8
f 48/131/6 55/133/6 56/144/6
f 56/144/6 55/133/6 57/145/6
f 17/146/3 57/147/3 55/148/3
f 56/144/6 57/145/6 58/149/6
f 17/146/3 59/150/3 57/147/3
f 24/151/1 60/152/1 59/153/1
f 24/151/1 59/153/1 17/154/1
f 56/155/5 58/156/5 60/157/5
f 56/155/5 60/157/5 24/158/5
f 18/125/5 56/155/5 24/158/5
f 18/125/5 48/124/5 56/155/5
f 54/135/4 16/137/4 14/159/4
f 64/160/5 54/161/5 14/162/5
f 54/134/6 62/163/6 53/132/6
f 64/160/5 61/164/5 54/161/5
f 61/165/6 63/166/6 54/134/6
f 54/134/6 63/166/6 62/163/6
f 65/167/1 66/168/1 64/169/1
f 65/167/1 64/169/1 67/170/1
f 61/171/8 64/172/8 42/173/8
f 66/168/2 42/117/2 64/169/2
f 66/174/5 64/175/5 13/176/5
f 67/170/1 64/169/1 14/177/1
f 13/178/8 64/179/8 67/180/8
f 67/170/1 14/177/1 68/181/1
f 70/182/3 67/183/3 68/184/3
f 69/185/3 65/186/3 67/183/3
f 69/185/3 67/183/3 70/182/3
f 67/183/3 65/186/3 71/187/3
f 13/178/8 67/180/8 6/188/8
f 67/183/3 71/187/3 6/8/3
f 72/189/3 71/187/3 73/190/3
f 71/187/3 72/189/3 5/9/3
f 71/187/3 5/9/3 6/8/3
f 39/102/6 71/191/6 6/192/6
f 39/102/6 73/193/6 71/191/6
f 71/194/4 66/195/4 39/196/4
f 71/194/4 65/197/4 66/195/4
f 72/189/3 73/190/3 74/198/3
f 39/102/6 75/199/6 73/193/6
f 36/200/5 76/201/5 75/202/5
f 36/200/5 75/202/5 39/203/5
f 72/204/1 74/205/1 76/206/1
f 72/204/1 76/206/1 36/84/1
f 72/204/1 36/84/1 9/15/1
f 72/204/1 9/15/1 5/10/1
f 61/165/6 70/207/6 63/166/6
f 70/182/3 68/184/3 63/208/3
f 77/209/7 69/210/6 70/207/6
f 77/209/7 70/207/6 61/165/6
f 77/211/4 41/212/4 66/213/4
f 66/214/5 79/215/5 77/216/5
f 77/209/7 78/217/6 69/210/6
f 51/128/6 77/209/7 61/165/6
f 77/209/6 79/218/6 78/217/6
f 51/128/6 80/219/6 77/209/7
f 77/211/4 80/220/4 41/212/4
f 80/221/3 82/222/3 41/223/3
f 50/127/6 80/219/6 51/128/6
f 50/127/6 81/224/6 80/219/6
f 80/221/3 81/225/3 82/222/3
f 41/114/1 82/226/1 83/227/1
f 41/114/1 83/227/1 43/115/1
f 43/113/5 83/228/5 84/229/5
f 43/113/5 84/229/5 50/126/5
f 50/127/6 84/230/6 81/224/6
f 66/214/5 85/231/5 79/215/5
f 65/167/1 86/232/1 85/233/1
f 65/167/1 85/233/1 66/168/1
f 69/185/3 86/234/3 65/186/3
f 69/185/3 78/235/3 86/234/3
f 88/236/3 68/184/3 4/5/3
f 4/27/4 68/237/4 14/28/4
f 63/208/3 68/184/3 88/236/3
f 68/181/1 14/177/1 87/238/1
f 68/181/1 87/238/1 88/239/1
f 88/236/3 4/5/3 11/240/3
f 88/236/3 89/241/3 62/242/3
f 63/208/3 88/236/3 62/242/3
f 12/243/8 87/244/8 88/245/8
f 87/238/1 90/246/1 88/239/1
f 88/236/3 90/247/3 89/241/3
f 12/243/8 88/245/8 11/248/8
f 87/238/1 91/249/1 90/246/1
f 53/250/5 92/251/5 91/252/5
f 53/250/5 91/252/5 87/253/5
f 62/163/6 92/254/6 53/132/6
f 62/163/6 89/255/6 92/254/6
f 53/141/8 87/256/8 17/142/8
f 87/238/2 14/177/2 16/257/2
f 87/238/2 16/257/2 17/154/2
f 14/24/5 87/258/5 12/25/5
f 66/168/2 41/114/2 42/117/2
f 66/174/5 13/176/5 39/259/5
f 61/171/8 42/173/8 51/260/8
f 51/138/3 42/261/3 16/139/3
f 42/117/1 18/121/1 16/257/1
f 39/102/6 6/192/6 13/30/6
f 35/107/5 20/111/5 32/73/5
f 32/73/5 20/111/5 21/72/5
f 12/54/8 2/262/8 25/55/8
f 8/14/1 25/65/1 2/3/2
f 16/257/1 18/121/1 24/151/1
f 16/257/1 24/151/1 17/154/1
f 23/67/5 18/125/5 24/158/5
f 23/67/5 21/72/5 18/125/5
f 13/30/6 6/192/6 4/20/6
f 12/263/5 93/264/5 2/265/5
f 11/21/6 94/266/6 12/22/6
f 12/263/5 94/267/5 93/264/5
f 11/21/6 95/268/6 94/266/6
f 3/7/3 96/269/3 95/270/3
f 3/7/3 95/270/3 11/240/3
f 2/3/1 93/271/1 96/272/1
f 2/3/2 96/272/1 3/4/1
f 4/5/3 3/7/3 11/240/3
f 97/273/9 99/274/9 98/275/9
f 97/273/9 101/276/9 99/274/9
f 100/277/1 101/278/1 97/279/1
f 100/277/1 102/280/1 101/278/1
f 104/281/10 103/282/10 102/283/10
f 104/281/10 102/283/10 100/284/10
f 99/285/6 103/286/6 104/287/6
f 99/285/6 104/287/6 98/288/6
f 105/289/11 110/290/11 106/291/11
f 105/289/11 106/291/11 107/292/11
f 108/293/1 110/294/1 105/295/1
f 108/293/1 105/295/1 109/296/1
f 111/297/12 108/298/12 109/299/12
f 107/300/6 112/301/6 111/302/6
f 111/297/12 112/303/12 108/298/12
f 107/300/6 106/304/6 112/301/6
f 113/305/13 117/306/13 114/307/13
f 113/305/13 114/307/13 115/308/13
f 116/309/1 117/310/1 113/311/1
f 116/309/1 118/312/1 117/310/1
f 119/313/14 118/314/14 116/315/14
f 119/313/14 120/316/14 118/314/14
f 114/317/6 120/318/6 119/319/6
f 114/317/6 119/319/6 115/320/6
f 121/321/13 125/322/13 122/323/13
f 121/321/13 122/323/13 123/324/13
f 124/325/1 125/326/1 121/327/1
f 124/325/1 126/328/1 125/326/1
f 127/329/14 126/330/14 124/331/14
f 127/329/14 128/332/14 126/330/14
f 122/333/6 128/334/6 127/335/6
f 122/333/6 127/335/6 123/336/6
