# Blender v2.92.0 OBJ File: 'NuclearStationGrouped.blend'
# www.blender.org
mtllib NuclearStation_PowerBox.mtl
o PowerBox_Cube.038_Cube.149
v -0.446853 1.593472 -2.415838
v -0.480272 1.664356 -2.171448
v -0.446853 1.593472 -2.171450
v -0.446853 1.533725 -2.457018
v -0.480272 1.594131 -2.498694
v -0.480272 1.664356 -2.450292
v -1.038683 1.664356 -2.450292
v -1.038683 1.594131 -2.498694
v -1.038682 1.664356 -2.171448
v -1.072101 1.593472 -2.415838
v -1.072101 1.533725 -2.457018
v -1.072101 1.593472 -2.171450
v -1.072101 1.195942 -2.171462
v -1.072101 1.195942 -2.457019
v -1.038683 1.195942 -2.498695
v -0.480272 1.195942 -2.498695
v -0.446853 1.195942 -2.457019
v -0.446853 1.195942 -2.171463
vt 0.244991 0.665402
vt 0.246165 0.670215
vt 0.236677 0.670215
vt 0.236676 0.665403
vt 0.246392 0.661384
vt 0.247812 0.665492
vt 0.597349 0.888593
vt 0.578351 0.883849
vt 0.597351 0.883849
vt 0.453634 0.917951
vt 0.463122 0.917951
vt 0.463122 0.936950
vt 0.578350 0.888593
vt 0.048833 0.935252
vt 0.051651 0.935181
vt 0.050480 0.939977
vt 0.059967 0.939977
vt 0.453634 0.936950
vt 0.059966 0.935182
vt 0.050250 0.931161
vt 0.059967 0.908434
vt 0.050251 0.908434
vt 0.048835 0.908460
vt 0.578350 0.915391
vt 0.597350 0.915391
vt 0.246392 0.638669
vt 0.247812 0.638714
vt 0.236676 0.638669
vn 0.9045 0.4264 0.0000
vn 1.0000 -0.0000 0.0000
vn 0.8990 0.2485 -0.3606
vn 0.8990 0.2486 -0.3606
vn 0.0000 0.5675 -0.8234
vn 0.0000 1.0000 0.0000
vn -0.8990 0.2485 -0.3606
vn -0.9045 0.4264 0.0000
vn -1.0000 0.0000 0.0000
vn -0.7802 0.0000 -0.6256
vn 0.0000 0.0000 -1.0000
vn 0.7802 0.0000 -0.6256
usemtl Nuclear_station_1.002
s 1
f 1/1/1 6/2/1 2/3/1
f 1/1/1 2/3/1 3/4/1
f 4/5/2 1/1/2 3/4/2
f 1/1/3 4/5/3 5/6/3
f 1/1/3 5/6/3 6/2/4
f 5/7/5 7/8/5 6/9/5
f 2/10/6 6/11/6 7/12/6
f 5/7/5 8/13/5 7/8/5
f 8/14/7 10/15/7 7/16/7
f 9/17/8 7/16/8 10/15/8
f 2/10/6 7/12/6 9/18/6
f 9/17/8 10/15/8 12/19/8
f 8/14/7 11/20/7 10/15/7
f 12/19/9 10/15/9 11/20/9
f 13/21/9 12/19/9 11/20/9
f 14/22/9 13/21/9 11/20/9
f 11/20/10 15/23/10 14/22/10
f 11/20/10 8/14/10 15/23/10
f 5/7/11 15/24/11 8/13/11
f 5/7/11 16/25/11 15/24/11
f 4/5/12 17/26/12 16/27/12
f 4/5/12 16/27/12 5/6/12
f 18/28/2 17/26/2 4/5/2
f 3/4/2 18/28/2 4/5/2
