# Blender v2.92.0 OBJ File: 'NuclearStationGrouped.blend'
# www.blender.org
mtllib NuclearStation_Windows5.mtl
o Windows5_Cube.038_Cube.173
v 1.699101 1.822174 0.039906
v 2.287548 1.822174 0.039906
v 2.287548 1.796606 0.086362
v 1.699101 1.796606 0.086362
v 2.287548 1.804289 0.090590
v 1.699101 1.804289 0.090590
v 1.699101 1.829856 0.044134
v 2.287548 1.829856 0.044134
v 1.699101 1.646792 0.039906
v 2.287548 1.621225 0.086362
v 1.699101 1.621225 0.086362
v 2.287548 1.646792 0.039906
v 2.287548 1.628907 0.090590
v 1.699101 1.628907 0.090590
v 1.699101 1.654475 0.044134
v 2.287548 1.654475 0.044134
v 1.699101 1.690638 0.039906
v 2.287548 1.665070 0.086362
v 1.699101 1.665070 0.086362
v 2.287548 1.690638 0.039906
v 2.287548 1.672752 0.090590
v 1.699101 1.672752 0.090590
v 1.699101 1.698320 0.044134
v 2.287548 1.698320 0.044134
v 1.699101 1.734483 0.039906
v 2.287548 1.734483 0.039906
v 2.287548 1.708915 0.086362
v 1.699101 1.708915 0.086362
v 2.287548 1.716598 0.090590
v 1.699101 1.716598 0.090590
v 1.699101 1.742165 0.044134
v 2.287548 1.742165 0.044134
v 1.699101 1.752761 0.086362
v 1.699101 1.778328 0.039906
v 2.287548 1.778328 0.039906
v 2.287548 1.752761 0.086362
v 2.287548 1.760443 0.090590
v 1.699101 1.760443 0.090590
v 1.699101 1.786011 0.044134
v 2.287548 1.786011 0.044134
v 2.009518 1.871475 0.099881
v 1.977131 1.843087 0.099881
v 1.977131 1.871475 0.099881
v 2.280839 1.843088 0.099881
v 2.310891 1.871475 0.099881
v 2.310891 1.871475 0.025602
v 2.009518 1.871475 0.025602
v 2.009518 1.843087 0.099881
v 1.977131 1.598489 0.099880
v 2.009518 1.843087 0.025602
v 2.009518 1.598489 0.099880
v 2.009518 1.598489 0.025602
v 2.280839 1.598489 0.025602
v 2.280839 1.843088 0.025602
v 2.280839 1.598489 0.099880
v 2.310891 1.570101 0.099880
v 2.009518 1.570101 0.099880
v 2.009518 1.570101 0.025602
v 1.977131 1.570101 0.099880
v 1.977131 1.570101 0.025602
v 1.675758 1.570101 0.025602
v 1.675758 1.871475 0.025602
v 1.675758 1.570101 0.099880
v 1.675758 1.871475 0.099881
v 1.705810 1.843087 0.099881
v 1.705810 1.598489 0.099880
v 1.977131 1.843087 0.025602
v 1.705810 1.843087 0.025602
v 1.705810 1.598489 0.025602
v 1.977131 1.598489 0.025602
v 1.977131 1.871475 0.025602
v 2.310891 1.570101 0.025602
vt 0.988743 0.712855
vt 0.988743 0.732875
vt 0.987039 0.732877
vt 0.987039 0.712856
vt 0.064044 0.985037
vt 0.064560 0.965016
vt 0.064560 0.985037
vt 0.064044 0.965016
vt 0.062313 0.965014
vt 0.062313 0.985035
vt 0.988675 0.138793
vt 0.988675 0.158814
vt 0.986972 0.158816
vt 0.986972 0.138795
vt 0.984747 0.680492
vt 0.985263 0.660471
vt 0.985263 0.680492
vt 0.984747 0.660471
vt 0.983016 0.660469
vt 0.983016 0.680490
vt 0.987211 0.426309
vt 0.987211 0.406288
vt 0.988915 0.406286
vt 0.988915 0.426307
vt 0.258308 0.985960
vt 0.258824 0.965939
vt 0.258824 0.985960
vt 0.258308 0.965939
vt 0.256577 0.965937
vt 0.256577 0.985958
vt 0.987039 0.755558
vt 0.987039 0.735537
vt 0.988743 0.735536
vt 0.988743 0.755556
vt 0.983156 0.781182
vt 0.982640 0.801203
vt 0.982639 0.781182
vt 0.983156 0.801203
vt 0.984887 0.801205
vt 0.984887 0.781184
vt 0.990406 0.335894
vt 0.988703 0.335896
vt 0.988703 0.315875
vt 0.990406 0.315873
vt 0.253899 0.985960
vt 0.254415 0.965939
vt 0.254415 0.985960
vt 0.253899 0.965939
vt 0.252168 0.965937
vt 0.252168 0.985958
vt 0.684239 0.330052
vt 0.684239 0.328950
vt 0.686149 0.328950
vt 0.686149 0.330052
vt 0.132191 0.966722
vt 0.132191 0.965620
vt 0.134718 0.965620
vt 0.684239 0.319719
vt 0.686149 0.318696
vt 0.132191 0.955366
vt 0.134718 0.955366
vt 0.667776 0.330052
vt 0.667776 0.328950
vt 0.491590 0.969075
vt 0.491590 0.985524
vt 0.489062 0.985524
vt 0.814946 0.976407
vt 0.814946 0.985635
vt 0.812418 0.985635
vt 0.489062 0.969075
vt 0.719676 0.973586
vt 0.717149 0.982818
vt 0.717149 0.973586
vt 0.222345 0.966385
vt 0.219817 0.982843
vt 0.219817 0.966385
vt 0.719676 0.982818
vt 0.222345 0.982843
vt 0.667776 0.319719
vt 0.665866 0.318696
vt 0.665866 0.328950
vt 0.845542 0.978638
vt 0.845542 0.968387
vt 0.848069 0.968387
vt 0.848069 0.967286
vt 0.665866 0.330052
vt 0.845542 0.967286
vt 0.848069 0.957035
vt 0.845542 0.957035
vt 0.153993 0.959038
vt 0.156520 0.979315
vt 0.153993 0.979315
vt 0.156520 0.959037
vt 0.134718 0.976976
vt 0.132191 0.976976
vt 0.686149 0.340305
vt 0.684239 0.339283
vt 0.665866 0.340306
vt 0.807514 0.976407
vt 0.810041 0.976407
vt 0.810041 0.985635
vt 0.667776 0.339283
vt 0.984904 0.108557
vt 0.982377 0.108558
vt 0.982377 0.092109
vt 0.807514 0.985635
vt 0.984904 0.092108
vt 0.707548 0.973586
vt 0.710075 0.973586
vt 0.710075 0.982818
vt 0.707548 0.982818
vt 0.753164 0.982989
vt 0.750637 0.966532
vt 0.753164 0.966532
vt 0.750637 0.982989
vt 0.134718 0.966722
vt 0.848069 0.978638
vt 0.496576 0.961848
vt 0.494049 0.982116
vt 0.494049 0.961848
vt 0.496576 0.982116
vt 0.812418 0.976407
vn 0.0000 -0.8761 -0.4822
vn 0.0000 -0.4822 0.8761
vn 0.0000 0.8761 0.4821
vn 0.0000 0.8761 0.4822
vn 0.0000 -0.4823 0.8760
vn -0.0000 -0.4821 0.8761
vn 0.0000 -0.8761 -0.4821
vn 0.0000 -0.0000 1.0000
vn 0.0000 1.0000 0.0000
vn 1.0000 0.0000 0.0000
vn 0.0000 -1.0000 -0.0000
vn -1.0000 0.0000 0.0000
usemtl Nuclear_station_1.002
s 1
f 1/1/1 2/2/1 3/3/1
f 1/1/1 3/3/1 4/4/1
f 5/5/2 4/6/2 3/7/2
f 5/5/2 6/8/2 4/6/2
f 5/5/3 7/9/4 6/8/4
f 5/5/3 8/10/3 7/9/4
f 9/11/1 12/12/1 10/13/1
f 9/11/1 10/13/1 11/14/1
f 13/15/5 11/16/5 10/17/5
f 13/15/5 14/18/5 11/16/5
f 13/15/4 15/19/4 14/18/4
f 13/15/4 16/20/4 15/19/4
f 17/21/1 20/22/1 18/23/1
f 17/21/1 18/23/1 19/24/1
f 21/25/5 19/26/5 18/27/5
f 21/25/5 22/28/5 19/26/5
f 21/25/4 23/29/4 22/28/4
f 21/25/4 24/30/4 23/29/4
f 25/31/1 26/32/1 27/33/1
f 25/31/1 27/33/1 28/34/1
f 29/35/6 28/36/6 27/37/6
f 29/35/2 30/38/2 28/36/2
f 29/35/3 31/39/3 30/38/3
f 29/35/3 32/40/3 31/39/3
f 33/41/1 34/42/1 35/43/7
f 33/41/1 35/43/7 36/44/7
f 37/45/2 33/46/2 36/47/2
f 37/45/5 38/48/5 33/46/5
f 37/45/4 39/49/4 38/48/4
f 37/45/4 40/50/4 39/49/4
f 42/51/8 48/52/8 41/53/8
f 42/51/8 41/53/8 43/54/8
f 43/55/9 41/56/9 47/57/9
f 41/53/8 48/52/8 44/58/8
f 41/53/8 44/58/8 45/59/8
f 41/56/9 45/60/9 46/61/9
f 41/56/9 46/61/9 47/57/9
f 49/62/8 51/63/8 48/52/8
f 49/62/8 48/52/8 42/51/8
f 52/64/10 50/65/10 48/66/10
f 44/67/11 48/68/11 50/69/11
f 52/64/10 48/66/10 51/70/10
f 51/71/9 53/72/9 52/73/9
f 55/74/12 54/75/12 53/76/12
f 51/71/9 55/77/9 53/72/9
f 55/74/12 44/78/12 54/75/12
f 44/58/8 55/79/8 56/80/8
f 55/79/8 57/81/8 56/80/8
f 55/79/8 51/63/8 57/81/8
f 56/82/11 57/83/11 58/84/11
f 60/85/11 58/84/11 57/83/11
f 59/86/8 57/81/8 51/63/8
f 60/85/11 57/83/11 59/87/11
f 61/88/11 60/85/11 59/87/11
f 61/88/11 59/87/11 63/89/11
f 61/90/12 64/91/12 62/92/12
f 61/90/12 63/93/12 64/91/12
f 62/94/9 64/95/9 43/55/9
f 43/54/8 64/96/8 65/97/8
f 63/98/8 65/97/8 64/96/8
f 67/99/11 42/100/11 65/101/11
f 43/54/8 65/97/8 42/51/8
f 63/98/8 66/102/8 65/97/8
f 68/103/10 65/104/10 66/105/10
f 67/99/11 65/101/11 68/106/11
f 68/103/10 66/105/10 69/107/10
f 69/108/9 66/109/9 49/110/9
f 69/108/9 49/110/9 70/111/9
f 42/112/12 70/113/12 49/114/12
f 42/112/12 67/115/12 70/113/12
f 59/86/8 49/62/8 66/102/8
f 59/86/8 66/102/8 63/98/8
f 62/94/9 43/55/9 71/116/9
f 43/55/9 47/57/9 71/116/9
f 59/86/8 51/63/8 49/62/8
f 56/82/11 58/84/11 72/117/11
f 45/118/10 72/119/10 46/120/10
f 45/118/10 56/121/10 72/119/10
f 44/58/8 56/80/8 45/59/8
f 44/67/11 50/69/11 54/122/11
