# Blender v2.92.0 OBJ File: 'NuclearStationGrouped.blend'
# www.blender.org
mtllib NuclearStation_Ground.mtl
o Ground_Cube.038_Cube.002
v 2.536084 0.151856 4.112253
v 2.668067 -0.024398 3.980270
v 2.668067 0.151856 3.980270
v 2.508316 0.260225 3.952503
v -4.509803 -0.024398 3.980271
v -4.377820 0.151857 4.112254
v -4.509803 0.151857 3.980271
v -4.292636 0.152764 3.895087
v 2.450899 0.260225 3.895086
v 2.450899 0.152764 3.895086
v 5.921068 0.151857 -3.988791
v 5.789085 -0.024398 -4.120773
v 5.789085 0.151857 -4.120773
v -4.292636 0.260226 3.895087
v -4.292579 0.152764 -0.589491
v -4.292579 0.260226 -0.589491
v 5.761318 0.260227 -3.961023
v -4.350053 0.260226 3.952504
v -5.815618 0.151858 -4.120772
v -5.815618 -0.024397 -4.120772
v -5.787850 0.260227 -3.961022
v -5.947599 0.151856 -0.504306
v -5.787849 0.260226 -0.532074
v -5.947600 -0.024397 -3.988790
v -5.947599 -0.024398 -0.504306
v 5.703900 0.260227 -3.903606
v -5.730433 0.260226 -0.589490
v -5.947600 0.151858 -3.988790
v -5.730433 0.152765 -3.903605
v 5.703900 0.152765 -3.903606
v 5.789085 -0.024398 -0.199617
v 5.921068 0.151857 -0.331600
v 5.789085 0.151857 -0.199617
v 5.703901 0.152764 -0.416785
v 5.761318 0.260226 -0.359368
v 5.703901 0.260226 -0.416785
v 5.921068 -0.024398 -0.331600
v 5.921068 -0.024398 -3.988791
v -4.509563 0.151856 -0.372323
v -4.348691 0.260226 -0.532074
v -5.730433 0.152764 -0.589490
v -4.377820 -0.024398 4.112254
v 2.536084 -0.024398 4.112253
v -5.815617 0.151856 -0.372323
v -4.509973 -0.024398 -0.372323
v -5.815617 -0.024398 -0.372323
v 2.450899 0.152764 0.842383
v 2.691552 0.152764 -0.036716
v 0.461029 0.152764 -0.036464
v 3.643251 0.260225 0.899383
v 3.803002 0.151856 -0.198519
v 3.643251 0.260225 -0.357642
v -0.603991 0.152764 -0.037688
v 4.703383 0.152765 -1.224614
v -4.745411 0.152765 -3.125316
v -1.918821 0.152764 -0.037687
v 4.703382 0.152765 -3.110617
v 3.585834 0.152764 -0.416070
v 3.585834 0.152764 0.841966
v 3.803002 -0.024398 -0.198519
v 3.671019 0.151856 1.059133
v 3.803002 -0.024398 0.927150
v 3.803002 0.151856 0.927150
v 2.668067 0.151856 1.056347
v 2.668067 -0.024398 1.056347
v 3.671019 -0.024398 1.059133
v 3.585834 0.260225 0.841966
v 2.507580 0.260226 0.899383
v -1.970642 0.152765 -1.196325
v 2.771305 0.152765 -1.224183
v -4.708378 0.152765 -1.227387
v 2.450899 0.260225 0.842383
v 3.585834 0.260225 -0.416070
v -5.730433 0.260227 -3.903605
vt 0.545227 0.414458
vt 0.533394 0.409974
vt 0.545257 0.409974
vt 0.542455 0.852842
vt 0.535129 0.858278
vt 0.534950 0.853795
vt 0.533394 0.654188
vt 0.545227 0.649691
vt 0.545257 0.654188
vt 0.450002 0.853462
vt 0.442770 0.624026
vt 0.450002 0.624026
vt 0.736359 0.350339
vt 0.748270 0.354834
vt 0.736408 0.354834
vt 0.875108 0.746293
vt 0.882335 0.898873
vt 0.875108 0.898873
vt 0.816394 0.215937
vt 0.823899 0.216874
vt 0.823720 0.221371
vt 0.726442 0.579069
vt 0.719025 0.578130
vt 0.719128 0.573635
vt 0.736408 0.749663
vt 0.748270 0.749663
vt 0.871014 0.870578
vt 0.863597 0.752975
vt 0.871014 0.753914
vt 0.851738 0.871528
vt 0.851738 0.752974
vt 0.729055 0.748713
vt 0.277589 0.402647
vt 0.275636 0.011660
vt 0.277589 0.009707
vt 0.162875 0.400693
vt 0.160921 0.402647
vt 0.863701 0.876014
vt 0.863597 0.871528
vt 0.851495 0.739164
vt 0.858728 0.350132
vt 0.858728 0.739164
vt 0.801039 0.882779
vt 0.789147 0.887263
vt 0.789176 0.882779
vt 0.356763 0.867415
vt 0.349532 0.748782
vt 0.356763 0.748782
vt 0.816394 0.093397
vt 0.823720 0.087961
vt 0.823899 0.092444
vt 0.156998 0.011660
vt 0.155045 0.009707
vt 0.835752 0.092445
vt 0.835752 0.216874
vt 0.010289 0.122338
vt 0.008336 0.353728
vt 0.008336 0.120384
vt 0.719024 0.726219
vt 0.726442 0.731649
vt 0.139484 0.870702
vt 0.132257 0.757945
vt 0.139484 0.757945
vt 0.160921 0.353682
vt 0.010289 0.351775
vt 0.162875 0.351773
vt 0.533364 0.649691
vt 0.533364 0.414458
vt 0.736359 0.754149
vt 0.863701 0.748479
vt 0.552556 0.648754
vt 0.552556 0.415411
vt 0.707165 0.578130
vt 0.707164 0.726219
vt 0.740869 0.812776
vt 0.729036 0.817274
vt 0.729007 0.812777
vt 0.448076 0.288594
vt 0.418165 0.296782
vt 0.418173 0.220892
vt 0.449891 0.902359
vt 0.442386 0.865013
vt 0.449891 0.859591
vt 0.551942 0.288594
vt 0.418132 0.184657
vt 0.286596 0.399271
vt 0.377747 0.365231
vt 0.405233 0.399271
vt 0.399357 0.010238
vt 0.313077 0.043752
vt 0.286596 0.010238
vt 0.551942 0.059157
vt 0.418132 0.139922
vt 0.313577 0.365231
vt 0.405257 0.327208
vt 0.448061 0.327208
vt 0.952148 0.216885
vt 0.944916 0.167964
vt 0.952148 0.167964
vt 0.740869 0.768340
vt 0.748199 0.811839
vt 0.789176 0.815207
vt 0.801039 0.815206
vt 0.534885 0.866441
vt 0.523052 0.861957
vt 0.534914 0.861956
vt 0.442566 0.907795
vt 0.442386 0.903312
vt 0.542214 0.867393
vt 0.534885 0.900564
vt 0.523023 0.900564
vt 0.523022 0.866441
vt 0.114170 0.083724
vt 0.112217 0.120409
vt 0.112217 0.081770
vt 0.176210 0.910471
vt 0.183442 0.949085
vt 0.176210 0.949085
vt 0.534949 0.754314
vt 0.542455 0.748965
vt 0.609737 0.867177
vt 0.616969 0.939240
vt 0.609737 0.939240
vt 0.154986 0.081770
vt 0.781847 0.881827
vt 0.729007 0.768354
vt 0.399357 0.059159
vt 0.378710 0.138159
vt 0.377762 0.299495
vt 0.377653 0.045012
vt 0.114156 0.122338
vt 0.523097 0.853794
vt 0.609739 0.862620
vt 0.616969 0.758758
vt 0.616969 0.862621
vt 0.156974 0.083724
vt 0.430533 0.903312
vt 0.519920 0.905706
vt 0.512690 0.948509
vt 0.512690 0.905706
vt 0.442770 0.853463
vt 0.748221 0.350338
vt 0.882335 0.746294
vt 0.729055 0.355773
vt 0.275636 0.400693
vt 0.851495 0.350132
vt 0.801009 0.887263
vt 0.349532 0.867414
vt 0.132257 0.870702
vt 0.748221 0.754149
vt 0.740899 0.817273
vt 0.944916 0.216885
vt 0.748199 0.762875
vt 0.542214 0.906032
vt 0.183442 0.910471
vt 0.616969 0.867177
vt 0.781847 0.809764
vt 0.523096 0.754313
vt 0.609739 0.758758
vt 0.430533 0.865013
vt 0.519920 0.948509
vn 0.7071 0.0000 0.7071
vn 0.4475 0.7743 0.4475
vn -0.7071 0.0000 0.7071
vn -0.0000 0.0000 -1.0000
vn 0.7071 0.0000 -0.7071
vn 1.0000 0.0000 0.0000
vn 0.4475 0.7743 -0.4475
vn -0.4475 0.7743 0.4475
vn -0.5614 0.8276 0.0000
vn -1.0000 0.0000 0.0000
vn 0.0000 0.8276 -0.5614
vn -0.0000 1.0000 0.0000
vn -0.4475 0.7743 -0.4475
vn 0.0000 0.0000 1.0000
vn 0.5614 0.8276 -0.0000
vn -0.5607 0.8280 -0.0001
vn -0.5596 0.8288 -0.0001
vn -0.5588 0.8293 -0.0002
vn -0.7071 0.0000 -0.7071
vn 0.0000 0.8276 0.5614
vn -1.0000 0.0023 0.0000
vn 0.0006 0.0000 1.0000
vn -0.0004 0.8241 0.5665
vn -0.0012 0.8262 0.5634
vn -0.0016 0.8274 0.5616
vn -0.0028 0.0000 1.0000
vn -0.0004 0.0000 -1.0000
vn 0.5602 0.8283 -0.0001
vn 0.5608 0.8279 -0.0000
vn 0.5597 0.8287 -0.0001
vn -0.0003 0.0000 -1.0000
vn 0.0004 0.8269 0.5623
vn 0.0004 0.8274 0.5616
vn 0.0003 0.8276 0.5613
vn -1.0000 0.0000 -0.0001
vn 0.0000 0.8229 0.5682
vn 0.0005 0.8267 0.5626
usemtl Nuclear_station_1.002
s 1
f 1/1/1 2/2/1 3/3/1
f 4/4/2 1/5/2 3/6/2
f 5/7/3 6/8/3 7/9/3
f 8/10/4 9/11/4 10/12/4
f 11/13/5 12/14/5 13/15/5
f 14/16/6 15/17/6 16/18/6
f 17/19/7 11/20/7 13/21/7
f 18/22/8 7/23/8 6/24/8
f 19/25/4 12/14/4 20/26/4
f 21/27/9 22/28/9 23/29/9
f 22/28/10 24/30/10 25/31/10
f 21/32/11 13/15/11 19/25/11
f 21/33/12 26/34/12 17/35/12
f 27/36/12 21/33/12 23/37/12
f 21/27/13 19/38/13 28/39/13
f 26/40/14 29/41/14 30/42/14
f 31/43/1 32/44/1 33/45/1
f 34/46/10 26/47/10 30/48/10
f 35/49/2 33/50/2 32/51/2
f 17/35/12 36/52/12 35/53/12
f 11/20/6 37/54/6 38/55/6
f 35/49/15 11/20/15 17/19/15
f 9/56/12 18/57/12 4/58/12
f 39/59/16 18/22/17 40/60/18
f 29/61/6 27/62/6 41/63/6
f 40/64/12 14/65/12 16/66/12
f 1/1/14 42/67/14 43/68/14
f 20/26/19 28/69/19 19/25/19
f 23/29/8 22/28/8 44/70/8
f 18/71/20 1/1/20 4/72/20
f 5/73/21 39/59/21 45/74/21
f 44/75/3 25/76/3 46/77/3
f 47/78/12 48/79/12 49/80/12
f 50/81/15 51/82/15 52/83/15
f 10/84/12 49/80/12 53/85/12
f 30/86/12 54/87/12 34/88/12
f 41/89/12 55/90/12 29/91/12
f 8/92/12 53/85/12 56/93/12
f 30/86/12 55/90/12 57/94/12
f 58/95/12 48/79/12 59/96/12
f 41/97/4 16/98/4 15/99/4
f 40/64/12 27/36/12 23/37/12
f 39/100/20 23/101/20 44/75/20
f 31/43/22 51/102/22 60/103/22
f 61/104/1 62/105/1 63/106/1
f 50/81/2 61/107/2 63/108/2
f 50/109/23 64/110/24 61/104/25
f 61/104/26 65/111/26 66/112/26
f 67/113/12 68/114/12 50/115/12
f 47/116/27 67/117/27 59/118/27
f 4/4/28 64/119/29 68/120/30
f 58/121/31 36/122/31 34/123/31
f 36/52/12 52/124/12 35/53/12
f 35/125/32 51/102/33 33/45/34
f 45/126/14 44/75/14 46/77/14
f 15/127/12 56/93/12 69/128/12
f 58/95/12 54/87/12 70/129/12
f 15/127/12 71/130/12 41/89/12
f 9/56/12 68/114/12 72/131/12
f 2/132/6 64/119/6 3/6/6
f 9/133/10 47/134/10 10/135/10
f 67/113/12 52/124/12 73/136/12
f 62/137/6 51/82/6 63/108/6
f 67/138/10 58/139/10 59/140/10
f 1/1/1 43/68/1 2/2/1
f 5/7/3 42/67/3 6/8/3
f 8/10/4 14/141/4 9/11/4
f 11/13/5 38/142/5 12/14/5
f 14/16/6 8/143/6 15/17/6
f 19/25/4 13/15/4 12/14/4
f 21/27/9 28/39/9 22/28/9
f 22/28/10 28/39/10 24/30/10
f 21/32/11 17/144/11 13/15/11
f 21/33/12 74/145/12 26/34/12
f 27/36/12 74/145/12 21/33/12
f 26/40/14 74/146/14 29/41/14
f 31/43/1 37/147/1 32/44/1
f 34/46/10 36/148/10 26/47/10
f 17/35/12 26/34/12 36/52/12
f 11/20/6 32/51/6 37/54/6
f 35/49/15 32/51/15 11/20/15
f 9/56/12 14/65/12 18/57/12
f 39/59/16 7/23/9 18/22/17
f 29/61/6 74/149/6 27/62/6
f 40/64/12 18/57/12 14/65/12
f 1/1/14 6/8/14 42/67/14
f 20/26/19 24/150/19 28/69/19
f 18/71/20 6/8/20 1/1/20
f 5/73/35 7/23/35 39/59/35
f 44/75/3 22/151/3 25/76/3
f 47/78/12 59/96/12 48/79/12
f 50/81/15 63/108/15 51/82/15
f 10/84/12 47/78/12 49/80/12
f 30/86/12 57/94/12 54/87/12
f 41/89/12 71/130/12 55/90/12
f 8/92/12 10/84/12 53/85/12
f 30/86/12 29/91/12 55/90/12
f 58/95/12 70/129/12 48/79/12
f 41/97/4 27/152/4 16/98/4
f 40/64/12 16/66/12 27/36/12
f 39/100/20 40/153/20 23/101/20
f 31/43/22 33/45/22 51/102/22
f 61/104/1 66/112/1 62/105/1
f 50/109/23 68/154/36 64/110/24
f 61/104/26 64/110/26 65/111/26
f 67/113/12 72/131/12 68/114/12
f 47/116/27 72/155/27 67/117/27
f 4/4/28 3/6/15 64/119/29
f 58/121/31 73/156/31 36/122/31
f 36/52/12 73/136/12 52/124/12
f 35/125/32 52/157/37 51/102/33
f 45/126/14 39/100/14 44/75/14
f 15/127/12 8/92/12 56/93/12
f 58/95/12 34/88/12 54/87/12
f 15/127/12 69/128/12 71/130/12
f 9/56/12 4/58/12 68/114/12
f 2/132/6 65/158/6 64/119/6
f 9/133/10 72/159/10 47/134/10
f 67/113/12 50/115/12 52/124/12
f 62/137/6 60/160/6 51/82/6
f 67/138/10 73/161/10 58/139/10
