# Blender v2.92.0 OBJ File: 'NuclearStationGrouped.blend'
# www.blender.org
mtllib NuclearStation_Ladder1.mtl
o Ladder1_Cube.038_Cube.016
v -0.525804 1.537765 1.840685
v -0.525804 1.537765 1.912055
v -0.477167 1.537765 1.840685
v -0.509539 0.150009 1.824419
v -0.525804 0.150009 1.912054
v -0.525804 0.150009 1.840684
v -0.509539 1.537765 1.824419
v -0.493432 1.537765 1.824419
v -0.493432 0.150009 1.824419
v -0.477167 0.150009 1.840684
v -0.477167 1.537765 1.912055
v -0.477167 0.150009 1.912054
v -0.245950 1.537765 1.824419
v -0.262057 1.537765 1.824419
v -0.278322 1.537765 1.840685
v -0.245950 0.150009 1.824419
v -0.229685 1.537765 1.840685
v -0.229685 0.150009 1.840684
v -0.229685 0.150009 1.912053
v -0.229685 1.537765 1.912053
v -0.278322 0.150009 1.912053
v -0.278322 1.537765 1.912053
v -0.278322 0.150009 1.840684
v -0.262057 0.150009 1.824419
v -0.481510 0.230510 1.874258
v -0.273978 0.279697 1.874258
v -0.273978 0.230510 1.874258
v -0.273978 0.230510 1.906027
v -0.481510 0.279697 1.874258
v -0.481510 0.230510 1.906027
v -0.481510 0.279697 1.906027
v -0.273978 0.279697 1.906027
v -0.481510 0.328884 1.874258
v -0.273978 0.378071 1.874258
v -0.273978 0.328884 1.874258
v -0.273978 0.328884 1.906027
v -0.481510 0.378071 1.874258
v -0.481510 0.328884 1.906027
v -0.273978 0.378071 1.906027
v -0.481510 0.378071 1.906027
v -0.481510 0.427258 1.874258
v -0.273978 0.476445 1.874258
v -0.273978 0.427258 1.874258
v -0.273978 0.427258 1.906027
v -0.481510 0.476445 1.874258
v -0.481510 0.427258 1.906027
v -0.481510 0.476445 1.906027
v -0.273978 0.476445 1.906027
v -0.481510 0.525632 1.874258
v -0.273978 0.574819 1.874258
v -0.273978 0.525632 1.874258
v -0.273978 0.525632 1.906027
v -0.481510 0.574819 1.874258
v -0.481510 0.525632 1.906027
v -0.481510 0.574819 1.906027
v -0.273978 0.574819 1.906027
v -0.481510 0.624005 1.874258
v -0.481510 0.673192 1.874258
v -0.273978 0.673192 1.874258
v -0.273978 0.624005 1.874258
v -0.273978 0.624005 1.906027
v -0.481510 0.624005 1.906027
v -0.273978 0.673192 1.906027
v -0.481510 0.673192 1.906027
v -0.481510 0.722379 1.874258
v -0.273978 0.771566 1.874258
v -0.273978 0.722379 1.874258
v -0.273978 0.722379 1.906027
v -0.481510 0.771566 1.874258
v -0.481510 0.722379 1.906027
v -0.273978 0.771566 1.906027
v -0.481510 0.771566 1.906027
v -0.481510 0.820753 1.874258
v -0.273978 0.869939 1.874258
v -0.273978 0.820753 1.874258
v -0.273978 0.820753 1.906027
v -0.481510 0.820753 1.906027
v -0.481510 0.869939 1.874258
v -0.273978 0.869939 1.906027
v -0.481510 0.869939 1.906027
v -0.481510 1.165497 1.874258
v -0.481510 1.165497 1.906027
v -0.273978 1.165497 1.906027
v -0.273978 1.165497 1.874258
v -0.481510 1.116310 1.874258
v -0.273978 1.116310 1.906027
v -0.273978 1.116310 1.874258
v -0.481510 1.116310 1.906027
v -0.481510 1.067123 1.874258
v -0.481510 1.067123 1.906027
v -0.273978 1.067123 1.906027
v -0.273978 1.067123 1.874258
v -0.481510 1.017936 1.874258
v -0.273978 1.017936 1.906027
v -0.481510 1.017936 1.906027
v -0.273978 1.017936 1.874258
v -0.481510 0.968749 1.874258
v -0.273978 0.968749 1.906027
v -0.273978 0.968749 1.874258
v -0.481510 0.919562 1.874258
v -0.481510 0.968749 1.906027
v -0.481510 0.919562 1.906027
v -0.273978 0.919562 1.906027
v -0.273978 0.919562 1.874258
v -0.481510 1.461366 1.874259
v -0.273978 1.461366 1.906028
v -0.273978 1.461366 1.874259
v -0.481510 1.412179 1.874259
v -0.481510 1.461366 1.906028
v -0.481510 1.412179 1.906028
v -0.273978 1.412179 1.906028
v -0.273978 1.412179 1.874259
v -0.481510 1.362992 1.874259
v -0.481510 1.362992 1.906027
v -0.273978 1.362992 1.906027
v -0.273978 1.362992 1.874259
v -0.481510 1.313805 1.874259
v -0.273978 1.313805 1.906027
v -0.481510 1.313805 1.906027
v -0.273978 1.313805 1.874259
v -0.481510 1.264618 1.874259
v -0.481510 1.264618 1.906027
v -0.481510 1.215431 1.874259
v -0.273978 1.264618 1.906027
v -0.273978 1.264618 1.874259
v -0.273978 1.215431 1.874259
v -0.273978 1.215431 1.906027
v -0.481510 1.215431 1.906027
vt 0.953098 0.070503
vt 0.953098 0.163878
vt 0.950670 0.163878
vt 0.969116 0.064621
vt 0.969116 0.067049
vt 0.967461 0.064621
vt 0.968562 0.064068
vt 0.950298 0.937645
vt 0.949745 0.937639
vt 0.949745 0.844244
vt 0.950298 0.844251
vt 0.950670 0.070503
vt 0.968014 0.064068
vt 0.950846 0.844251
vt 0.951400 0.844244
vt 0.951400 0.937639
vt 0.950846 0.937645
vt 0.954603 0.431838
vt 0.954603 0.525164
vt 0.952174 0.525164
vt 0.952174 0.431838
vt 0.962433 0.525237
vt 0.962433 0.431839
vt 0.964087 0.431839
vt 0.964087 0.525237
vt 0.967461 0.067049
vt 0.962595 0.296073
vt 0.962047 0.296073
vt 0.962047 0.202679
vt 0.536059 0.991582
vt 0.535511 0.991582
vt 0.534958 0.991028
vt 0.536613 0.991028
vt 0.961493 0.202685
vt 0.961493 0.296079
vt 0.955984 0.754819
vt 0.953555 0.661493
vt 0.955984 0.661493
vt 0.953555 0.754819
vt 0.963454 0.759526
vt 0.965109 0.852924
vt 0.963454 0.852924
vt 0.965109 0.759526
vt 0.952493 0.653977
vt 0.950065 0.560602
vt 0.952493 0.560602
vt 0.950065 0.653978
vt 0.963147 0.296079
vt 0.962595 0.202679
vt 0.963147 0.202685
vt 0.534958 0.988600
vt 0.536613 0.988600
vt 0.984205 0.282497
vt 0.987516 0.282497
vt 0.987516 0.289558
vt 0.984205 0.289558
vt 0.993928 0.738441
vt 0.995008 0.731382
vt 0.995008 0.738441
vt 0.993928 0.731382
vt 0.036155 0.984504
vt 0.036155 0.977443
vt 0.039465 0.977443
vt 0.039465 0.984504
vt 0.991918 0.201473
vt 0.992999 0.208534
vt 0.991918 0.208534
vt 0.992999 0.201473
vt 0.112765 0.981592
vt 0.116075 0.981592
vt 0.116075 0.988653
vt 0.112765 0.988653
vt 0.993825 0.931097
vt 0.994906 0.924038
vt 0.994906 0.931097
vt 0.993825 0.924038
vt 0.858203 0.984469
vt 0.858203 0.977408
vt 0.861514 0.977408
vt 0.861514 0.984469
vt 0.971981 0.657605
vt 0.970900 0.657605
vt 0.970900 0.650544
vt 0.971981 0.650544
vt 0.560670 0.987190
vt 0.557360 0.987190
vt 0.557360 0.980129
vt 0.560670 0.980129
vt 0.995018 0.767674
vt 0.993937 0.774733
vt 0.993937 0.767674
vt 0.995018 0.774733
vt 0.337778 0.985881
vt 0.341088 0.978821
vt 0.341088 0.985881
vt 0.337778 0.978821
vt 0.991874 0.023374
vt 0.992955 0.023374
vt 0.992955 0.030435
vt 0.991874 0.030435
vt 0.144611 0.981796
vt 0.147921 0.981796
vt 0.147921 0.988857
vt 0.144611 0.988857
vt 0.994941 0.147966
vt 0.993860 0.155025
vt 0.993860 0.147966
vt 0.994941 0.155025
vt 0.372835 0.984715
vt 0.372835 0.977654
vt 0.376146 0.977654
vt 0.376146 0.984715
vt 0.991888 0.439989
vt 0.992968 0.447050
vt 0.991888 0.447050
vt 0.992968 0.439989
vt 0.350599 0.988738
vt 0.347288 0.988738
vt 0.347288 0.981677
vt 0.350599 0.981677
vt 0.224966 0.994822
vt 0.226047 0.987763
vt 0.226047 0.994822
vt 0.224966 0.987763
vt 0.864966 0.985563
vt 0.868277 0.978502
vt 0.868277 0.985563
vt 0.864966 0.978502
vt 0.992655 0.400153
vt 0.991575 0.400153
vt 0.991575 0.393092
vt 0.992655 0.393092
vt 0.840856 0.981137
vt 0.844167 0.981137
vt 0.844167 0.988198
vt 0.840856 0.988198
vt 0.993827 0.897398
vt 0.994908 0.890339
vt 0.994908 0.897398
vt 0.993827 0.890340
vt 0.953074 0.985699
vt 0.956384 0.978638
vt 0.956384 0.985699
vt 0.953074 0.978638
vt 0.991874 0.032731
vt 0.992955 0.032731
vt 0.992955 0.039792
vt 0.991874 0.039792
vt 0.265296 0.988611
vt 0.261985 0.988611
vt 0.261985 0.981550
vt 0.265296 0.981550
vt 0.995008 0.712673
vt 0.993928 0.719732
vt 0.993928 0.712674
vt 0.995008 0.719732
vt 0.615152 0.984128
vt 0.616233 0.991189
vt 0.615152 0.991189
vt 0.616233 0.984128
vt 0.400692 0.984694
vt 0.400692 0.977633
vt 0.404002 0.977633
vt 0.404002 0.984694
vt 0.991790 0.587466
vt 0.992871 0.587466
vt 0.992871 0.594527
vt 0.991790 0.594527
vt 0.773128 0.987159
vt 0.769818 0.987159
vt 0.769818 0.980098
vt 0.773128 0.980098
vt 0.993827 0.878689
vt 0.993827 0.871631
vt 0.994908 0.871631
vt 0.994908 0.878689
vt 0.390285 0.984698
vt 0.390285 0.977637
vt 0.393595 0.977637
vt 0.393595 0.984698
vt 0.991918 0.229543
vt 0.992999 0.229543
vt 0.992999 0.236603
vt 0.991918 0.236603
vt 0.775319 0.980098
vt 0.778630 0.980098
vt 0.778630 0.987159
vt 0.775319 0.987159
vt 0.994941 0.138612
vt 0.994941 0.145671
vt 0.993860 0.145671
vt 0.993860 0.138612
vt 0.356114 0.978624
vt 0.352804 0.985685
vt 0.352804 0.978624
vt 0.356114 0.985685
vt 0.991782 0.959886
vt 0.992863 0.959886
vt 0.992863 0.966947
vt 0.991782 0.966947
vt 0.989553 0.554872
vt 0.986243 0.554872
vt 0.986243 0.547811
vt 0.540482 0.986353
vt 0.540482 0.979292
vt 0.543793 0.979292
vt 0.993827 0.888044
vt 0.993827 0.880985
vt 0.994908 0.880985
vt 0.543793 0.986353
vt 0.994908 0.888044
vt 0.989553 0.547811
vt 0.624683 0.985420
vt 0.625764 0.985420
vt 0.625764 0.992481
vt 0.624683 0.992481
vt 0.480455 0.988268
vt 0.477144 0.988268
vt 0.477144 0.981207
vt 0.732949 0.986137
vt 0.732949 0.979076
vt 0.736260 0.979076
vt 0.995018 0.758320
vt 0.995018 0.765378
vt 0.993937 0.765378
vt 0.736260 0.986137
vt 0.993937 0.758320
vt 0.480455 0.981207
vt 0.991575 0.383735
vt 0.992655 0.383735
vt 0.992655 0.390796
vt 0.991575 0.390796
vt 0.150112 0.981796
vt 0.153423 0.981796
vt 0.153423 0.988857
vt 0.150112 0.988857
vt 0.993928 0.747796
vt 0.993928 0.740737
vt 0.995008 0.740737
vt 0.995008 0.747796
vt 0.574101 0.977100
vt 0.574101 0.984160
vt 0.570790 0.984160
vt 0.570790 0.977100
vt 0.992279 0.497564
vt 0.991198 0.497564
vt 0.991198 0.490503
vt 0.244511 0.981544
vt 0.247821 0.981544
vt 0.247821 0.988605
vt 0.992279 0.490503
vt 0.244511 0.988605
vt 0.993928 0.729087
vt 0.995008 0.722028
vt 0.995008 0.729087
vt 0.385957 0.977642
vt 0.382646 0.984702
vt 0.382646 0.977642
vt 0.993928 0.722028
vt 0.385957 0.984702
vn -1.0000 0.0000 0.0000
vn 0.0000 1.0000 0.0000
vn -0.7071 0.0000 -0.7071
vn 0.0000 0.0000 -1.0000
vn 0.7071 0.0000 -0.7071
vn 1.0000 0.0000 0.0000
vn 0.0000 -0.0000 1.0000
vn 0.0000 -1.0000 0.0000
usemtl Nuclear_station_1.002
s 1
f 5/1/1 2/2/1 1/3/1
f 1/4/2 2/5/2 3/6/2
f 7/7/2 1/4/2 3/6/2
f 4/8/3 6/9/3 1/10/3
f 4/8/3 1/10/3 7/11/3
f 5/1/1 1/3/1 6/12/1
f 3/6/2 8/13/2 7/7/2
f 4/8/4 7/11/4 8/14/4
f 8/14/5 3/15/5 10/16/5
f 4/8/4 8/14/4 9/17/4
f 8/14/5 10/16/5 9/17/5
f 10/18/6 3/19/6 11/20/6
f 10/18/6 11/20/6 12/21/6
f 12/22/7 11/23/7 2/24/7
f 12/22/7 2/24/7 5/25/7
f 2/5/2 11/26/2 3/6/2
f 14/27/4 13/28/4 16/29/4
f 13/30/2 14/31/2 15/32/2
f 17/33/2 13/30/2 15/32/2
f 18/34/5 16/29/5 13/28/5
f 18/34/5 13/28/5 17/35/5
f 17/36/6 19/37/6 18/38/6
f 17/36/6 20/39/6 19/37/6
f 20/40/7 21/41/7 19/42/7
f 20/40/7 22/43/7 21/41/7
f 22/44/1 23/45/1 21/46/1
f 22/44/1 15/47/1 23/45/1
f 15/48/3 24/49/3 23/50/3
f 15/48/3 14/27/3 24/49/3
f 14/27/4 16/29/4 24/49/4
f 15/32/2 22/51/2 20/52/2
f 20/52/2 17/33/2 15/32/2
f 25/53/4 29/54/4 26/55/4
f 25/53/4 26/55/4 27/56/4
f 28/57/8 25/58/8 27/59/8
f 28/57/8 30/60/8 25/58/8
f 32/61/7 31/62/7 30/63/7
f 32/61/7 30/63/7 28/64/7
f 29/65/2 32/66/2 26/67/2
f 29/65/2 31/68/2 32/66/2
f 33/69/4 37/70/4 34/71/4
f 33/69/4 34/71/4 35/72/4
f 36/73/8 33/74/8 35/75/8
f 36/73/8 38/76/8 33/74/8
f 39/77/7 40/78/7 38/79/7
f 39/77/7 38/79/7 36/80/7
f 37/81/2 40/82/2 39/83/2
f 37/81/2 39/83/2 34/84/2
f 41/85/4 45/86/4 42/87/4
f 41/85/4 42/87/4 43/88/4
f 44/89/8 41/90/8 43/91/8
f 44/89/8 46/92/8 41/90/8
f 48/93/7 46/94/7 44/95/7
f 48/93/7 47/96/7 46/94/7
f 45/97/2 47/98/2 48/99/2
f 45/97/2 48/99/2 42/100/2
f 49/101/4 53/102/4 50/103/4
f 49/101/4 50/103/4 51/104/4
f 52/105/8 49/106/8 51/107/8
f 52/105/8 54/108/8 49/106/8
f 56/109/7 55/110/7 54/111/7
f 56/109/7 54/111/7 52/112/7
f 53/113/2 56/114/2 50/115/2
f 53/113/2 55/116/2 56/114/2
f 57/117/4 58/118/4 59/119/4
f 57/117/4 59/119/4 60/120/4
f 61/121/8 57/122/8 60/123/8
f 61/121/8 62/124/8 57/122/8
f 63/125/7 62/126/7 61/127/7
f 63/125/7 64/128/7 62/126/7
f 58/129/2 64/130/2 63/131/2
f 58/129/2 63/131/2 59/132/2
f 65/133/4 69/134/4 66/135/4
f 65/133/4 66/135/4 67/136/4
f 68/137/8 65/138/8 67/139/8
f 68/137/8 70/140/8 65/138/8
f 71/141/7 70/142/7 68/143/7
f 71/141/7 72/144/7 70/142/7
f 69/145/2 72/146/2 71/147/2
f 69/145/2 71/147/2 66/148/2
f 73/149/4 78/150/4 74/151/4
f 73/149/4 74/151/4 75/152/4
f 76/153/8 73/154/8 75/155/8
f 76/153/8 77/156/8 73/154/8
f 78/157/2 79/158/2 74/159/2
f 78/157/2 80/160/2 79/158/2
f 79/161/7 80/162/7 77/163/7
f 79/161/7 77/163/7 76/164/7
f 81/165/2 82/166/2 83/167/2
f 81/165/2 83/167/2 84/168/2
f 85/169/4 81/170/4 84/171/4
f 85/169/4 84/171/4 87/172/4
f 86/173/8 88/174/8 85/175/8
f 86/173/8 85/175/8 87/176/8
f 83/177/7 82/178/7 88/179/7
f 83/177/7 88/179/7 86/180/7
f 89/181/2 90/182/2 91/183/2
f 89/181/2 91/183/2 92/184/2
f 93/185/4 89/186/4 92/187/4
f 93/185/4 92/187/4 96/188/4
f 94/189/8 95/190/8 93/191/8
f 94/189/8 93/191/8 96/192/8
f 91/193/7 95/194/7 94/195/7
f 91/193/7 90/196/7 95/194/7
f 97/197/2 101/198/2 98/199/2
f 97/197/2 98/199/2 99/200/2
f 100/201/4 97/202/4 99/203/4
f 98/204/7 101/205/7 102/206/7
f 103/207/8 102/208/8 100/209/8
f 98/204/7 102/206/7 103/210/7
f 103/207/8 100/209/8 104/211/8
f 100/201/4 99/203/4 104/212/4
f 105/213/2 109/214/2 106/215/2
f 105/213/2 106/215/2 107/216/2
f 108/217/4 105/218/4 107/219/4
f 106/220/7 109/221/7 110/222/7
f 111/223/8 110/224/8 108/225/8
f 106/220/7 110/222/7 111/226/7
f 111/223/8 108/225/8 112/227/8
f 108/217/4 107/219/4 112/228/4
f 113/229/2 114/230/2 115/231/2
f 113/229/2 115/231/2 116/232/2
f 117/233/4 113/234/4 116/235/4
f 117/233/4 116/235/4 120/236/4
f 118/237/8 119/238/8 117/239/8
f 118/237/8 117/239/8 120/240/8
f 115/241/7 114/242/7 119/243/7
f 115/241/7 119/243/7 118/244/7
f 121/245/2 122/246/2 124/247/2
f 123/248/4 121/249/4 125/250/4
f 121/245/2 124/247/2 125/251/2
f 123/248/4 125/250/4 126/252/4
f 127/253/8 123/254/8 126/255/8
f 124/256/7 128/257/7 127/258/7
f 127/253/8 128/259/8 123/254/8
f 124/256/7 122/260/7 128/257/7
