# Blender v2.92.0 OBJ File: 'NuclearStationGrouped.blend'
# www.blender.org
mtllib NuclearStation_Windows4.mtl
o Windows4_Cube.038_Cube.108
v -4.033685 0.809259 -1.168623
v -3.445238 0.783691 -1.122168
v -3.445238 0.809259 -1.168623
v -4.033685 0.783691 -1.122166
v -3.445238 0.791375 -1.117939
v -4.033685 0.791375 -1.117939
v -4.033685 0.816941 -1.164396
v -3.445238 0.816941 -1.164396
v -3.739461 0.830173 -1.108649
v -3.723268 0.585574 -1.108649
v -3.723268 0.830173 -1.108649
v -3.739461 0.858561 -1.108649
v -3.739461 0.585574 -1.108649
v -3.755654 0.585574 -1.108649
v -3.755654 0.830173 -1.108649
v -3.755654 0.858561 -1.108649
v -4.026975 0.830173 -1.108649
v -3.755654 0.585574 -1.182928
v -3.755654 0.830173 -1.182928
v -4.026975 0.830173 -1.182926
v -4.026975 0.585574 -1.182927
v -4.026975 0.585574 -1.108649
v -4.057029 0.858561 -1.108649
v -3.755654 0.557187 -1.108649
v -4.057029 0.557187 -1.108649
v -3.755654 0.557187 -1.182928
v -4.057029 0.557187 -1.182927
v -4.057029 0.858561 -1.182926
v -3.755654 0.858561 -1.182928
v -3.739461 0.858561 -1.182928
v -3.723268 0.858561 -1.108649
v -3.723268 0.858561 -1.182928
v -3.421894 0.858561 -1.182928
v -3.421894 0.557187 -1.182928
v -3.421894 0.858561 -1.108649
v -3.451947 0.830173 -1.108649
v -3.421894 0.557187 -1.108649
v -3.451947 0.585574 -1.108649
v -3.723268 0.557187 -1.108649
v -3.723268 0.557187 -1.182928
v -3.739461 0.557187 -1.182928
v -3.739461 0.557187 -1.108649
v -3.451947 0.830173 -1.182928
v -3.451947 0.585574 -1.182928
v -3.723268 0.585574 -1.182928
v -3.723268 0.830173 -1.182928
v -4.033685 0.633877 -1.168624
v -3.445238 0.608310 -1.122168
v -4.033685 0.608310 -1.122167
v -3.445238 0.633877 -1.168624
v -3.445238 0.615992 -1.117939
v -4.033685 0.615992 -1.117939
v -4.033685 0.641560 -1.164396
v -3.445238 0.641560 -1.164396
v -4.033685 0.677723 -1.168624
v -3.445238 0.677723 -1.168624
v -3.445238 0.652155 -1.122168
v -4.033685 0.652155 -1.122167
v -3.445238 0.659838 -1.117939
v -4.033685 0.659838 -1.117939
v -4.033685 0.685405 -1.164396
v -3.445238 0.685405 -1.164396
v -4.033685 0.721568 -1.168624
v -3.445238 0.721568 -1.168624
v -3.445238 0.696001 -1.122167
v -4.033685 0.696001 -1.122167
v -3.445238 0.703683 -1.117939
v -4.033685 0.703683 -1.117939
v -4.033685 0.729252 -1.164396
v -3.445238 0.729252 -1.164396
v -4.033685 0.765414 -1.168623
v -3.445238 0.739846 -1.122166
v -4.033685 0.739846 -1.122166
v -3.445238 0.765414 -1.168623
v -3.445238 0.747528 -1.117939
v -4.033685 0.747528 -1.117939
v -4.033685 0.773097 -1.164396
v -3.445238 0.773097 -1.164396
v -4.458905 0.416786 -0.908878
v -4.458905 0.928104 -1.182926
v -4.458905 0.819649 -1.018142
v -4.544518 0.416786 -0.908878
v -4.458905 0.142619 -0.908878
v -4.458905 0.142620 -1.182927
v -4.544518 0.142619 -0.908878
v -4.544518 0.142620 -1.182927
v -4.544677 0.925445 -1.186287
v -4.544518 0.819649 -1.018142
v -4.544677 0.985083 -1.120178
v -1.998508 0.925445 -1.186287
v -1.998508 0.925445 -1.120178
v -4.544677 1.011058 -1.186287
v -4.544677 0.925445 -1.120178
v -4.458905 0.928104 -1.125172
v -4.544677 1.011058 -1.146152
v -1.998508 1.011058 -1.186287
v -1.998508 1.011058 -1.146152
v -1.998508 0.985083 -1.120178
v -3.033599 0.416786 -0.908878
v -3.033599 0.142620 -1.182927
v -3.033599 0.928104 -1.182926
v -3.033599 0.819649 -1.018142
v -3.119212 0.416786 -0.908878
v -3.033599 0.142619 -0.908878
v -3.119212 0.142619 -0.908878
v -3.119212 0.141965 -1.182927
v -3.119212 0.928104 -1.182926
v -3.119212 0.819649 -1.018142
v -3.119212 0.928104 -1.125172
v -3.033599 0.928104 -1.125172
vt 0.987049 0.778523
vt 0.987049 0.758502
vt 0.988752 0.758501
vt 0.988752 0.778522
vt 0.921738 0.964884
vt 0.921738 0.984905
vt 0.921222 0.984905
vt 0.921222 0.964885
vt 0.923469 0.984907
vt 0.923469 0.964887
vt 0.707187 0.329501
vt 0.690725 0.329501
vt 0.690725 0.328950
vt 0.707187 0.328950
vt 0.709098 0.329501
vt 0.707187 0.330052
vt 0.690725 0.330052
vt 0.467915 0.982735
vt 0.465388 0.966278
vt 0.467915 0.966277
vt 0.709098 0.330052
vt 0.707187 0.339283
vt 0.512624 0.985876
vt 0.515151 0.976648
vt 0.515151 0.985876
vt 0.465388 0.982735
vt 0.512624 0.976648
vt 0.986722 0.256068
vt 0.984195 0.239619
vt 0.986722 0.239618
vt 0.984195 0.256068
vt 0.727166 0.973586
vt 0.729694 0.973586
vt 0.729694 0.982818
vt 0.688814 0.330052
vt 0.690725 0.339283
vt 0.709098 0.340305
vt 0.688814 0.340306
vt 0.198804 0.965876
vt 0.196277 0.965877
vt 0.196277 0.955626
vt 0.198804 0.955626
vt 0.084225 0.959752
vt 0.086752 0.959752
vt 0.086752 0.980030
vt 0.084225 0.980030
vt 0.584036 0.942122
vt 0.586563 0.942122
vt 0.586563 0.952376
vt 0.584036 0.952376
vt 0.584036 0.952927
vt 0.586563 0.952927
vt 0.586563 0.953478
vt 0.584036 0.953478
vt 0.584036 0.963731
vt 0.586563 0.963731
vt 0.979007 0.134945
vt 0.981535 0.114678
vt 0.981535 0.134945
vt 0.709098 0.328950
vt 0.707187 0.319719
vt 0.709098 0.318696
vt 0.688814 0.318696
vt 0.979007 0.114678
vt 0.690725 0.319719
vt 0.688814 0.328950
vt 0.196277 0.977229
vt 0.196277 0.966978
vt 0.198804 0.966978
vt 0.198804 0.977228
vt 0.196277 0.966427
vt 0.198804 0.966427
vt 0.688814 0.329501
vt 0.650260 0.966126
vt 0.650260 0.982584
vt 0.647733 0.982584
vt 0.695362 0.973586
vt 0.695362 0.982818
vt 0.692834 0.982818
vt 0.647733 0.966126
vt 0.692834 0.973586
vt 0.273416 0.968564
vt 0.273416 0.985014
vt 0.270888 0.985014
vt 0.270888 0.968565
vt 0.439654 0.983479
vt 0.442181 0.974250
vt 0.442181 0.983479
vt 0.439654 0.974250
vt 0.727166 0.982818
vt 0.988703 0.381258
vt 0.988703 0.361237
vt 0.990406 0.361235
vt 0.990406 0.381256
vt 0.983464 0.476019
vt 0.983464 0.496040
vt 0.982948 0.496040
vt 0.982948 0.476019
vt 0.985195 0.496042
vt 0.985195 0.476021
vt 0.988033 0.047545
vt 0.988033 0.027525
vt 0.989737 0.027523
vt 0.989737 0.047544
vt 0.215637 0.985733
vt 0.216153 0.965712
vt 0.216153 0.985733
vt 0.215637 0.965712
vt 0.213906 0.965710
vt 0.213906 0.985730
vt 0.988033 0.024864
vt 0.988033 0.004844
vt 0.989737 0.004842
vt 0.989737 0.024863
vt 0.917329 0.964884
vt 0.916813 0.984905
vt 0.916813 0.964885
vt 0.917329 0.984905
vt 0.919060 0.984907
vt 0.919060 0.964887
vt 0.987408 0.703172
vt 0.987408 0.683152
vt 0.989112 0.683150
vt 0.989112 0.703171
vt 0.985372 0.047546
vt 0.985888 0.027525
vt 0.985888 0.047546
vt 0.985372 0.027525
vt 0.983641 0.027523
vt 0.983641 0.047544
vt 0.946138 0.717377
vt 0.946138 0.770200
vt 0.936814 0.735815
vt 0.940531 0.762907
vt 0.959590 0.012521
vt 0.962506 0.039658
vt 0.959593 0.039659
vt 0.959599 0.058111
vt 0.936814 0.717377
vt 0.962512 0.058110
vt 0.704232 0.741178
vt 0.694908 0.741199
vt 0.694868 0.722751
vt 0.704232 0.688506
vt 0.698527 0.695637
vt 0.701983 0.688511
vt 0.701974 0.684498
vt 0.704220 0.682745
vt 0.953553 0.949987
vt 0.953553 0.863385
vt 0.955802 0.863385
vt 0.955802 0.949987
vt 0.959593 0.005198
vt 0.962512 0.005377
vt 0.962503 0.012520
vt 0.934426 0.316804
vt 0.938440 0.403433
vt 0.934426 0.403433
vt 0.944173 0.770200
vt 0.702854 0.682748
vt 0.970904 0.647137
vt 0.970904 0.560508
vt 0.972270 0.560508
vt 0.972270 0.647137
vt 0.938440 0.316804
vt 0.940194 0.316805
vt 0.940194 0.403434
vt 0.946138 0.660979
vt 0.946138 0.713802
vt 0.936814 0.679417
vt 0.936814 0.660980
vt 0.940531 0.706509
vt 0.552258 0.923962
vt 0.555171 0.951099
vt 0.552258 0.951099
vt 0.552262 0.969551
vt 0.555174 0.969551
vt 0.894562 0.943263
vt 0.885237 0.943219
vt 0.885237 0.924772
vt 0.894562 0.890367
vt 0.888955 0.897665
vt 0.892596 0.890367
vt 0.552262 0.916638
vt 0.555175 0.916638
vt 0.555171 0.923961
vt 0.944173 0.713803
vn 0.0000 -0.8761 -0.4822
vn 0.0000 -0.4821 0.8761
vn 0.0000 -0.4822 0.8761
vn 0.0000 0.8761 0.4821
vn 0.0000 -0.0000 1.0000
vn -1.0000 0.0000 0.0000
vn 0.0000 -1.0000 0.0000
vn 1.0000 0.0000 0.0000
vn 0.0000 1.0000 0.0000
vn -0.0000 -0.8761 -0.4821
vn 0.0000 -0.4823 0.8760
vn 0.0000 0.8761 0.4822
vn 0.0000 0.2618 0.9651
vn -1.0000 -0.0001 0.0001
vn -1.0000 -0.0001 0.0002
vn -1.0000 -0.0005 0.0004
vn -1.0000 -0.0009 0.0004
vn -1.0000 -0.0015 0.0000
vn 0.0197 0.7023 0.7116
vn 0.0000 0.6942 0.7198
vn 0.0000 0.7071 0.7071
vn 0.0000 0.7024 0.7118
usemtl Nuclear_station_1.002
s 1
f 1/1/1 3/2/1 2/3/1
f 1/1/1 2/3/1 4/4/1
f 5/5/2 6/6/2 4/7/2
f 5/5/3 4/7/3 2/8/3
f 5/5/4 7/9/4 6/6/4
f 5/5/4 8/10/4 7/9/4
f 9/11/5 13/12/5 10/13/5
f 9/11/5 10/13/5 11/14/5
f 12/15/5 9/11/5 11/14/5
f 15/16/5 9/11/5 12/15/5
f 14/17/5 13/12/5 9/11/5
f 14/17/5 9/11/5 15/16/5
f 15/18/6 18/19/6 14/20/6
f 16/21/5 17/22/5 15/16/5
f 15/16/5 12/15/5 16/21/5
f 20/23/7 15/24/7 17/25/7
f 15/18/6 19/26/6 18/19/6
f 20/23/7 19/27/7 15/24/7
f 20/28/8 22/29/8 21/30/8
f 20/28/8 17/31/8 22/29/8
f 21/32/9 22/33/9 14/34/9
f 24/35/5 14/17/5 22/36/5
f 23/37/5 22/36/5 17/22/5
f 23/37/5 25/38/5 22/36/5
f 24/35/5 22/36/5 25/38/5
f 26/39/7 24/40/7 25/41/7
f 26/39/7 25/41/7 27/42/7
f 27/43/6 25/44/6 23/45/6
f 27/43/6 23/45/6 28/46/6
f 28/47/9 23/48/9 16/49/9
f 28/47/9 16/49/9 29/50/9
f 16/49/9 30/51/9 29/50/9
f 30/51/9 12/52/9 31/53/9
f 30/51/9 31/53/9 32/54/9
f 16/49/9 12/52/9 30/51/9
f 31/53/9 33/55/9 32/54/9
f 31/53/9 35/56/9 33/55/9
f 35/57/8 34/58/8 33/59/8
f 31/60/5 36/61/5 35/62/5
f 36/61/5 37/63/5 35/62/5
f 35/57/8 37/64/8 34/58/8
f 36/61/5 38/65/5 37/63/5
f 38/65/5 39/66/5 37/63/5
f 37/67/7 39/68/7 40/69/7
f 37/67/7 40/69/7 34/70/7
f 42/71/7 41/72/7 40/69/7
f 42/71/7 40/69/7 39/68/7
f 26/39/7 41/72/7 42/71/7
f 24/35/5 42/73/5 13/12/5
f 13/12/5 42/73/5 39/66/5
f 26/39/7 42/71/7 24/40/7
f 38/65/5 10/13/5 39/66/5
f 13/12/5 39/66/5 10/13/5
f 38/74/6 36/75/6 43/76/6
f 10/77/9 38/78/9 44/79/9
f 38/74/6 43/76/6 44/80/6
f 10/77/9 44/79/9 45/81/9
f 45/82/8 46/83/8 11/84/8
f 45/82/8 11/84/8 10/85/8
f 36/86/7 46/87/7 43/88/7
f 36/86/7 11/89/7 46/87/7
f 31/60/5 11/14/5 36/61/5
f 12/15/5 11/14/5 31/60/5
f 24/35/5 13/12/5 14/17/5
f 16/21/5 23/37/5 17/22/5
f 21/32/9 14/34/9 18/90/9
f 47/91/1 50/92/1 48/93/1
f 47/91/10 48/93/10 49/94/10
f 51/95/3 52/96/3 49/97/3
f 51/95/11 49/97/11 48/98/11
f 51/95/12 53/99/12 52/96/12
f 51/95/12 54/100/12 53/99/12
f 55/101/1 56/102/1 57/103/1
f 55/101/1 57/103/1 58/104/1
f 59/105/3 58/106/3 57/107/3
f 59/105/2 60/108/2 58/106/2
f 59/105/4 61/109/4 60/108/4
f 59/105/4 62/110/4 61/109/4
f 63/111/10 64/112/10 65/113/10
f 63/111/10 65/113/10 66/114/10
f 67/115/3 66/116/3 65/117/3
f 67/115/3 68/118/3 66/116/3
f 67/115/12 69/119/12 68/118/12
f 67/115/12 70/120/12 69/119/12
f 71/121/1 74/122/1 72/123/1
f 71/121/1 72/123/1 73/124/1
f 75/125/3 73/126/3 72/127/3
f 75/125/3 76/128/3 73/126/3
f 75/125/12 77/129/12 76/128/12
f 75/125/12 78/130/12 77/129/12
f 84/131/8 80/132/8 79/133/8
f 79/133/8 80/132/8 81/134/8
f 81/135/13 82/136/13 79/137/13
f 82/136/5 83/138/5 79/137/5
f 79/133/8 83/139/8 84/131/8
f 82/136/5 85/140/5 83/138/5
f 86/141/14 85/142/6 82/143/15
f 87/144/16 86/141/14 82/143/15
f 88/145/17 93/146/18 87/144/16
f 87/144/16 82/143/15 88/145/17
f 87/144/6 93/146/6 89/147/6
f 92/148/6 87/144/6 89/147/6
f 87/149/7 90/150/7 91/151/7
f 87/149/7 91/151/7 93/152/7
f 81/135/19 94/153/19 93/154/19
f 81/135/20 93/154/20 88/155/20
f 91/156/5 89/157/5 93/158/5
f 80/132/8 94/159/8 81/134/8
f 89/147/6 95/160/6 92/148/6
f 96/161/9 92/162/9 95/163/9
f 96/161/9 95/163/9 97/164/9
f 89/157/21 98/165/21 97/166/21
f 89/157/21 97/166/21 95/167/21
f 91/156/5 98/165/5 89/157/5
f 81/135/13 88/155/13 82/136/13
f 100/168/8 101/169/8 99/170/8
f 99/170/8 104/171/8 100/168/8
f 99/170/8 101/169/8 102/172/8
f 102/173/13 103/174/13 99/175/13
f 103/174/5 104/176/5 99/175/5
f 103/174/5 105/177/5 104/176/5
f 106/178/6 105/179/6 103/180/6
f 107/181/6 106/178/6 103/180/6
f 108/182/6 109/183/6 107/181/6
f 107/181/6 103/180/6 108/182/6
f 110/184/22 109/185/22 108/186/22
f 101/169/8 110/187/8 102/172/8
f 110/184/22 108/186/22 102/173/22
f 102/173/13 108/186/13 103/174/13
