# Blender v2.92.0 OBJ File: 'NuclearStationGrouped.blend'
# www.blender.org
mtllib NuclearStation_ExteriorControlStation.mtl
o ExteriorControlStation_Cube.038_Cube.186
v -0.165193 2.468602 1.910491
v -0.126960 2.468602 2.063494
v -0.127133 2.468602 1.672592
v -0.207875 2.401006 1.979827
v -0.165193 2.468602 2.025419
v -0.207733 2.401006 1.910476
v -0.165193 2.468602 1.723313
v -0.207733 2.401006 1.723212
v -0.165193 2.468602 1.672592
v -0.127025 2.401006 1.630052
v -0.207733 2.401006 1.630052
v -0.207733 2.195710 1.630052
v -0.127025 2.195710 1.630052
v -0.207733 2.195710 1.822656
v -0.207733 2.195710 1.979799
v -0.391084 2.195710 1.979827
v -0.282069 2.401006 1.979827
v -0.439427 2.401006 1.979827
v -0.282034 2.468602 2.025799
v -0.495685 2.468602 2.063591
v -0.439307 2.468602 2.025799
v -0.495685 2.468602 2.025799
v -0.538224 2.401006 1.979827
v -0.538224 2.401006 2.063699
v -0.538224 2.195710 1.979827
v -0.538224 2.195710 2.063699
v -0.126852 2.401006 2.063494
v -0.126852 2.195710 2.063494
v -0.129592 2.493314 2.060935
v -0.164938 2.457968 2.060935
v -0.129592 2.457968 2.060935
v -0.164938 2.493314 2.060935
v -0.129592 2.493314 2.025589
v -0.136796 2.493314 2.053731
v -0.157734 2.493314 2.053731
v -0.136796 2.493314 2.032793
v -0.157734 2.620771 2.053731
v -0.136796 2.620771 2.053731
v -0.136796 2.620771 2.032793
v -0.157734 2.620771 2.032793
v -0.157734 2.493314 2.032793
v -0.164938 2.493314 2.025589
v -0.164938 2.457968 2.025589
v -0.129592 2.457968 2.025589
v -0.157734 2.634172 2.032793
v -0.143449 2.823002 2.039446
v -0.136796 2.634172 2.032793
v -0.151081 2.823002 2.039446
v -0.157734 2.634172 2.053731
v -0.151081 2.823002 2.047078
v -0.136796 2.634172 2.053731
v -0.143449 2.823002 2.047078
v -0.157734 2.620771 2.053731
v -0.157734 2.634172 2.032793
v -0.157734 2.620771 2.032793
v -0.136796 2.634172 2.053731
v -0.136796 2.620771 2.053731
v -0.157734 2.634172 2.053731
v -0.136796 2.620771 2.032793
v -0.136796 2.634172 2.032793
v -0.165193 2.468603 1.723313
v -0.207733 2.401007 1.910475
v -0.165193 2.468603 1.910491
v -0.207733 2.401007 1.723211
v -0.439307 2.468603 2.025798
v -0.439427 2.401007 1.979826
v -0.282069 2.401007 1.979826
v -0.282035 2.468603 2.025799
vt 0.051993 0.251302
vt 0.051997 0.264670
vt 0.047606 0.269100
vt 0.047614 0.223630
vt 0.051988 0.229529
vt 0.146366 0.271951
vt 0.138050 0.271951
vt 0.138049 0.263884
vt 0.146368 0.258582
vt 0.051986 0.223629
vt 0.149911 0.222677
vt 0.158228 0.228565
vt 0.149911 0.228577
vt 0.138014 0.245066
vt 0.142399 0.253157
vt 0.138027 0.253157
vt 0.147285 0.245066
vt 0.158228 0.217729
vt 0.147285 0.221214
vt 0.123405 0.285437
vt 0.100007 0.296273
vt 0.100007 0.285437
vt 0.138014 0.221214
vt 0.123405 0.307840
vt 0.123405 0.326119
vt 0.100007 0.318056
vt 0.129729 0.293524
vt 0.129729 0.284894
vt 0.153286 0.284877
vt 0.100009 0.326123
vt 0.153286 0.306204
vt 0.092370 0.315736
vt 0.084362 0.324363
vt 0.084360 0.315733
vt 0.129729 0.311828
vt 0.092370 0.329326
vt 0.065419 0.264711
vt 0.089963 0.269100
vt 0.083486 0.264706
vt 0.148668 0.264222
vt 0.148668 0.257665
vt 0.156677 0.257678
vt 0.089962 0.264704
vt 0.090028 0.310898
vt 0.084747 0.302477
vt 0.094382 0.302478
vt 0.156677 0.269170
vt 0.094369 0.310898
vt 0.046644 0.284961
vt 0.054409 0.280013
vt 0.054409 0.327864
vt 0.084747 0.278786
vt 0.094382 0.278786
vt 0.077993 0.280013
vt 0.077993 0.327864
vt 0.046644 0.327851
vt 0.108057 0.222444
vt 0.100292 0.267913
vt 0.100292 0.222444
vt 0.108057 0.272862
vt 0.131641 0.272862
vt 0.131641 0.222444
vt 0.153286 0.323320
vt 0.129729 0.323320
vt 0.056114 0.193944
vt 0.060317 0.193944
vt 0.060317 0.201505
vt 0.056114 0.201505
vt 0.067453 0.193944
vt 0.071656 0.193944
vt 0.071656 0.201505
vt 0.104240 0.194861
vt 0.108444 0.194861
vt 0.107587 0.195640
vt 0.108444 0.198683
vt 0.107587 0.197904
vt 0.094615 0.208076
vt 0.097105 0.180811
vt 0.097105 0.208076
vt 0.105097 0.195640
vt 0.094615 0.174323
vt 0.097105 0.147057
vt 0.097105 0.174323
vt 0.094615 0.180811
vt 0.094615 0.147057
vt 0.116356 0.147057
vt 0.116356 0.174323
vt 0.113866 0.174323
vt 0.113866 0.147057
vt 0.104240 0.198683
vt 0.105097 0.197904
vt 0.104240 0.174323
vt 0.106730 0.147057
vt 0.106730 0.174323
vt 0.104240 0.180811
vt 0.108444 0.180811
vt 0.108444 0.188372
vt 0.083276 0.193944
vt 0.087480 0.201505
vt 0.083276 0.201505
vt 0.087480 0.193944
vt 0.067453 0.201505
vt 0.104240 0.188372
vt 0.104240 0.147057
vt 0.065739 0.187456
vt 0.066530 0.147057
vt 0.067438 0.147057
vt 0.068229 0.187456
vt 0.056114 0.187456
vt 0.057813 0.147057
vt 0.058604 0.187456
vt 0.056905 0.147057
vt 0.084990 0.187456
vt 0.086689 0.147057
vt 0.087480 0.187456
vt 0.075365 0.187456
vt 0.077063 0.147057
vt 0.077854 0.187456
vt 0.085781 0.147057
vt 0.076156 0.147057
vt 0.115579 0.180811
vt 0.116487 0.180811
vt 0.116487 0.181636
vt 0.115579 0.181636
vt 0.818963 0.841079
vt 0.834155 0.841079
vt 0.834155 0.865152
vt 0.818963 0.865152
vt 0.946966 0.725236
vt 0.952971 0.725236
vt 0.952971 0.740643
vt 0.946966 0.740643
vt 0.800690 0.865152
vt 0.785498 0.841079
vt 0.800690 0.841079
vt 0.928796 0.740643
vt 0.934802 0.725236
vt 0.934802 0.740643
vt 0.785498 0.865152
vt 0.928796 0.725236
vt 0.038734 0.516751
vt 0.038289 0.059649
vt 0.857002 0.059649
vt 0.857067 0.516751
vt 0.296984 0.565463
vt 0.031087 0.965006
vt 0.031267 0.565088
vt 0.296803 0.965165
vn 0.0000 1.0000 0.0000
vn -0.8459 0.5333 -0.0008
vn -0.8463 0.5326 -0.0017
vn -0.8463 0.5327 -0.0015
vn -0.8455 0.5339 0.0000
vn -0.8463 0.5326 0.0000
vn 0.0000 0.5326 -0.8463
vn 0.0000 0.0000 -1.0000
vn -1.0000 0.0000 0.0000
vn -0.0001 0.0001 -1.0000
vn 0.0000 0.0001 -1.0000
vn -1.0000 -0.0007 -0.0020
vn -0.0002 0.0001 -1.0000
vn 0.0000 0.5624 -0.8269
vn -0.0027 0.5603 -0.8283
vn -0.8464 0.5326 0.0000
vn 0.0004 0.0004 1.0000
vn 0.0005 0.0012 1.0000
vn 0.0005 0.0006 1.0000
vn 0.0005 -0.0000 1.0000
vn 0.0003 0.0000 1.0000
vn 1.0000 0.0005 -0.0003
vn 1.0000 0.0018 -0.0004
vn 1.0000 0.0016 -0.0004
vn 1.0000 0.0015 -0.0004
vn 1.0000 0.0000 -0.0004
vn 0.0000 0.0000 1.0000
vn 1.0000 0.0000 0.0000
vn 0.0000 0.0352 -0.9994
vn -0.9994 0.0352 0.0000
vn 0.0000 0.0352 0.9994
vn 0.9994 0.0352 0.0000
usemtl Nuclear_station_1.002
s 1
f 1/1/1 5/2/1 2/3/1
f 1/1/1 2/3/1 3/4/1
f 3/4/1 7/5/1 1/1/1
f 1/6/2 6/7/3 4/8/4
f 1/6/2 4/8/4 5/9/5
f 3/4/1 9/10/1 7/5/1
f 9/11/6 8/12/6 7/13/6
f 10/14/7 9/15/7 3/16/7
f 10/14/7 11/17/7 9/15/7
f 9/11/6 11/18/6 8/12/6
f 12/19/8 11/17/8 10/14/8
f 12/20/9 8/21/9 11/22/9
f 12/19/8 10/14/8 13/23/8
f 12/20/9 14/24/9 8/21/9
f 15/25/9 6/26/9 14/24/9
f 14/24/9 6/26/9 8/21/9
f 17/27/10 4/28/11 15/29/10
f 15/25/12 4/30/12 6/26/12
f 17/27/10 15/29/10 16/31/13
f 19/32/14 4/33/14 17/34/14
f 16/31/8 18/35/8 17/27/8
f 19/32/15 5/36/15 4/33/15
f 2/3/1 5/2/1 19/37/1
f 2/3/1 19/37/1 20/38/1
f 20/38/1 19/37/1 21/39/1
f 22/40/14 21/41/14 18/42/14
f 20/38/1 21/39/1 22/43/1
f 22/44/16 23/45/16 24/46/16
f 22/40/14 18/42/14 23/47/14
f 22/44/16 24/46/16 20/48/16
f 20/49/17 24/50/18 27/51/19
f 24/46/9 23/45/9 25/52/9
f 24/46/9 25/52/9 26/53/9
f 27/51/19 24/50/18 26/54/20
f 27/51/19 26/54/20 28/55/20
f 20/49/17 27/51/19 2/56/21
f 27/57/22 3/58/23 2/59/24
f 27/57/22 10/60/25 3/58/23
f 13/61/26 10/60/25 27/57/22
f 13/61/26 27/57/26 28/62/26
f 25/63/8 23/64/8 18/35/8
f 25/63/8 18/35/8 16/31/8
f 29/65/27 32/66/27 30/67/27
f 29/65/27 30/67/27 31/68/27
f 33/69/28 29/70/28 31/71/28
f 32/72/1 29/73/1 34/74/1
f 33/75/1 34/74/1 29/73/1
f 33/75/1 36/76/1 34/74/1
f 34/77/27 37/78/27 35/79/27
f 32/72/1 34/74/1 35/80/1
f 36/81/28 38/82/28 34/83/28
f 34/77/27 38/84/27 37/78/27
f 36/81/28 39/85/28 38/82/28
f 41/86/8 40/87/8 39/88/8
f 41/86/8 39/88/8 36/89/8
f 42/90/1 35/80/1 41/91/1
f 35/92/9 40/93/9 41/94/9
f 42/90/1 41/91/1 36/76/1
f 42/90/1 32/72/1 35/80/1
f 32/95/9 42/96/9 43/97/9
f 42/98/8 44/99/8 43/100/8
f 42/98/8 33/101/8 44/99/8
f 42/90/1 36/76/1 33/75/1
f 33/69/28 31/71/28 44/102/28
f 32/95/9 43/97/9 30/103/9
f 35/92/9 37/104/9 40/93/9
f 45/105/29 48/106/29 46/107/29
f 45/105/29 46/107/29 47/108/29
f 49/109/30 48/110/30 45/111/30
f 49/109/30 50/112/30 48/110/30
f 51/113/31 50/114/31 49/115/31
f 47/116/32 52/117/32 51/118/32
f 51/113/31 52/119/31 50/114/31
f 47/116/32 46/120/32 52/117/32
f 50/121/1 52/122/1 46/123/1
f 50/121/1 46/123/1 48/124/1
usemtl Nuclear_station_Light_1.002
f 53/125/9 58/126/9 54/127/9
f 53/125/9 54/127/9 55/128/9
f 53/129/27 57/130/27 56/131/27
f 53/129/27 56/131/27 58/132/27
f 59/133/28 56/134/28 57/135/28
f 55/136/8 60/137/8 59/138/8
f 59/133/28 60/139/28 56/134/28
f 55/136/8 54/140/8 60/137/8
f 61/141/6 64/142/6 62/143/6
f 61/141/6 62/143/6 63/144/6
f 65/145/14 67/146/14 66/147/14
f 65/145/14 68/148/14 67/146/14
