# Blender v2.92.0 OBJ File: 'NuclearStationGrouped.blend'
# www.blender.org
mtllib NuclearStation_SmokeStackSupport.mtl
o SmokeStackSupport_Cube.038_Cube.175
v -3.208939 1.264382 1.398362
v -3.120024 1.264382 1.265292
v -3.106627 1.264382 1.466725
v -3.033016 1.264382 1.352300
v -3.106627 0.330114 1.466724
v -3.208939 0.330114 1.398362
v -3.297853 0.330114 1.531432
v -3.297853 1.264382 1.531433
v -3.386767 1.386847 1.664502
v -3.120024 1.386847 1.265293
v -2.720816 1.386847 0.998550
v -3.033016 1.386847 1.352301
v -2.673727 1.386847 1.112232
v -2.986955 1.264382 1.176378
v -2.853885 1.264382 1.087464
v -2.986955 0.330114 1.176378
v -2.918592 1.264382 1.278689
v -2.918592 0.330114 1.278689
v -2.785522 1.264382 1.189775
v -2.673727 1.264382 1.112232
v -2.785522 0.330114 1.189775
v -2.853885 0.330114 1.087464
v -2.249918 1.264382 1.027936
v -2.720816 1.264382 0.998550
v -2.249918 1.264382 0.904884
v -1.779020 1.264382 0.998550
v -1.779020 1.386847 0.998550
v -1.826109 1.264382 1.112232
v -2.249918 1.386847 0.904884
v -2.249918 1.386847 1.027936
v -1.826109 1.386847 1.112232
v -1.714314 1.264382 1.189775
v -1.581244 1.264382 1.278689
v -1.466820 1.386847 1.352301
v -1.379812 1.386847 1.265293
v -1.226751 1.386847 1.711589
v -1.113069 1.386847 1.664502
v -1.393209 1.264382 1.466725
v -1.466820 1.264382 1.352300
v -1.290897 1.264382 1.398362
v -1.379812 1.264382 1.265292
v -1.512881 1.264382 1.176378
v -1.512881 0.330114 1.176378
v -1.645951 1.264382 1.087464
v -1.581244 0.330114 1.278689
v -1.714314 0.330114 1.189775
v -1.645951 0.330114 1.087464
v -1.201983 0.330114 1.531432
v -1.290897 0.330114 1.398362
v -1.201983 1.264382 1.531433
v -1.113069 1.264382 1.664501
v -1.304294 0.330114 1.599794
v -1.304294 1.264382 1.599795
v -1.226751 1.264382 1.711589
v -1.019402 1.264382 2.135400
v -1.142453 1.386847 2.135400
v -1.142453 1.264382 2.135400
v -1.226751 1.264382 2.559209
v -1.113069 1.264382 2.606298
v -1.304294 1.264382 2.671005
v -1.201983 1.264382 2.739367
v -1.226751 1.386847 2.559210
v -1.113069 1.386847 2.606298
v -1.019402 1.386847 2.135400
v -1.393209 1.264382 2.804075
v -1.466820 1.386847 2.918499
v -1.826109 1.386847 3.158567
v -1.466820 1.264382 2.918499
v -1.379812 1.386847 3.005507
v -1.581244 1.264382 2.992110
v -1.512881 1.264382 3.094421
v -1.581244 0.330114 2.992110
v -1.714314 1.264382 3.081025
v -1.512881 0.330114 3.094421
v -1.645951 1.264382 3.183334
v -1.645951 0.330114 3.183334
v -1.714314 0.330114 3.081024
v -1.779020 1.386847 3.272249
v -1.779020 1.264382 3.272249
v -1.826109 1.264382 3.158567
v -2.249918 1.264382 3.242865
v -2.249918 1.264382 3.365916
v -2.720816 1.264382 3.272249
v -2.673727 1.264382 3.158567
v -2.249918 1.386847 3.365916
v -2.720816 1.386847 3.272249
v -2.853885 1.264382 3.183334
v -2.986955 1.264382 3.094421
v -3.120024 1.386847 3.005507
v -2.673727 1.386847 3.158567
v -3.033016 1.386847 2.918499
v -2.918592 1.264382 2.992110
v -3.273085 1.386847 2.559210
v -3.106627 1.264382 2.804075
v -3.386767 1.386847 2.606298
v -3.033016 1.264382 2.918499
v -3.120024 1.264382 3.005507
v -3.208939 1.264382 2.872437
v -3.297853 0.330114 2.739367
v -3.297853 1.264382 2.739367
v -3.208939 0.330114 2.872437
v -3.106627 0.330114 2.804074
v -3.195542 0.330114 2.671005
v -3.195542 1.264382 2.671005
v -3.273085 1.264382 2.559209
v -3.357383 1.386847 2.135400
v -3.357383 1.264382 2.135400
v -3.480434 1.264382 2.135400
v -3.386767 1.264382 2.606298
v -3.480434 1.386847 2.135400
v -3.386767 1.264382 1.664501
v -3.273085 1.386847 1.711589
v -3.195542 1.264382 1.599795
v -3.273085 1.264382 1.711589
v -3.195542 0.330114 1.599794
v -2.918592 0.330114 2.992110
v -2.785522 1.264382 3.081025
v -2.785522 0.330114 3.081024
v -2.853885 0.330114 3.183334
v -2.986955 0.330114 3.094421
v -2.249918 1.386847 3.242865
v -1.379812 1.264382 3.005507
v -1.290897 1.264382 2.872437
v -1.201983 0.330114 2.739367
v -1.393209 0.330114 2.804074
v -1.290897 0.330114 2.872437
v -1.304294 0.330114 2.671005
v -1.393209 0.330114 1.466724
v -1.853796 0.141795 3.341602
v -1.853796 0.342229 3.341602
v -1.280983 0.141795 3.104335
v -2.646040 0.342229 3.341602
v -2.646040 0.141795 3.341602
v -3.218853 0.141795 3.104335
v -3.218853 0.342229 3.104335
v -3.456121 0.141795 2.531521
v -3.456121 0.342229 1.739278
v -3.456121 0.141795 1.739278
v -3.456121 0.342229 2.531521
v -3.218853 0.141795 1.166464
v -2.646040 0.141795 0.929196
v -3.218853 0.342229 1.166464
v -2.646040 0.342229 0.929196
v -1.043715 0.342229 1.739278
v -1.853796 0.342229 0.929196
v -1.853796 0.141795 0.929196
v -1.280983 0.141795 1.166464
v -1.280983 0.342229 1.166464
v -1.043715 0.141795 1.739278
v -1.043715 0.342229 2.531521
v -1.043715 0.141795 2.531521
v -1.280983 0.342229 3.104335
vt 0.934301 0.083035
vt 0.933239 0.077696
vt 0.937425 0.077697
vt 0.755953 0.484664
vt 0.751429 0.492974
vt 0.751429 0.484734
vt 0.955279 0.070102
vt 0.958763 0.070077
vt 0.958763 0.132952
vt 0.938407 0.082220
vt 0.955279 0.132978
vt 0.755955 0.421802
vt 0.760479 0.421732
vt 0.760477 0.484594
vt 0.765001 0.492765
vt 0.806114 0.559971
vt 0.810639 0.568246
vt 0.797066 0.568147
vt 0.210036 0.645648
vt 0.194126 0.643503
vt 0.194943 0.639397
vt 0.810639 0.560004
vt 0.207710 0.649129
vt 0.221587 0.657199
vt 0.801590 0.559938
vt 0.806114 0.497096
vt 0.341264 0.955447
vt 0.337780 0.892531
vt 0.341264 0.892585
vt 0.934301 0.072357
vt 0.938407 0.073174
vt 0.337780 0.955394
vt 0.333581 0.818650
vt 0.329057 0.755753
vt 0.333581 0.755772
vt 0.325257 0.747493
vt 0.337470 0.747547
vt 0.337470 0.755789
vt 0.329058 0.818630
vt 0.325257 0.755735
vt 0.813833 0.948292
vt 0.814675 0.942164
vt 0.817314 0.945966
vt 0.953648 0.296511
vt 0.950163 0.296418
vt 0.950163 0.233589
vt 0.953648 0.233682
vt 0.801589 0.497063
vt 0.810807 0.943766
vt 0.807620 0.927750
vt 0.811807 0.927749
vt 0.310842 0.755716
vt 0.781048 0.568112
vt 0.781047 0.559870
vt 0.797066 0.559905
vt 0.810807 0.911733
vt 0.814675 0.913334
vt 0.765022 0.568147
vt 0.765022 0.559905
vt 0.178607 0.639397
vt 0.179424 0.643503
vt 0.165841 0.649129
vt 0.163515 0.645648
vt 0.292610 0.755753
vt 0.296418 0.747493
vt 0.296418 0.755735
vt 0.288078 0.755772
vt 0.284181 0.747547
vt 0.155445 0.659525
vt 0.310842 0.747474
vt 0.145712 0.672291
vt 0.151964 0.657199
vt 0.284181 0.755789
vt 0.800809 0.112412
vt 0.813043 0.112600
vt 0.809146 0.120783
vt 0.149818 0.673107
vt 0.813042 0.120840
vt 0.911563 0.414720
vt 0.915668 0.415535
vt 0.914686 0.420059
vt 0.910500 0.420060
vt 0.911563 0.425400
vt 0.915668 0.424582
vt 0.961284 0.821929
vt 0.957806 0.759193
vt 0.961284 0.759100
vt 0.755959 0.497096
vt 0.760491 0.559938
vt 0.755960 0.559971
vt 0.751429 0.568246
vt 0.751429 0.560004
vt 0.957806 0.822022
vt 0.292611 0.818630
vt 0.288079 0.818650
vt 0.956784 0.431466
vt 0.960262 0.431413
vt 0.960262 0.494275
vt 0.956784 0.494329
vt 0.760490 0.497063
vt 0.813833 0.907207
vt 0.817314 0.909532
vt 0.806106 0.409284
vt 0.810639 0.409405
vt 0.810638 0.417641
vt 0.801578 0.346335
vt 0.806110 0.346455
vt 0.801574 0.409164
vt 0.797041 0.417279
vt 0.958164 0.661068
vt 0.961643 0.723969
vt 0.958165 0.723943
vt 0.960355 0.560176
vt 0.963832 0.623069
vt 0.960355 0.623054
vt 0.797041 0.409043
vt 0.878827 0.944775
vt 0.875803 0.940247
vt 0.879669 0.938645
vt 0.963832 0.560191
vt 0.882307 0.942449
vt 0.800809 0.120652
vt 0.804615 0.120713
vt 0.872617 0.924226
vt 0.876802 0.924226
vt 0.786386 0.112346
vt 0.786386 0.120586
vt 0.771969 0.120652
vt 0.879669 0.909807
vt 0.771969 0.112412
vt 0.875803 0.908204
vt 0.878827 0.903677
vt 0.882307 0.906003
vt 0.768168 0.120713
vt 0.145712 0.688626
vt 0.149818 0.687809
vt 0.155445 0.701392
vt 0.151964 0.703718
vt 0.165841 0.711788
vt 0.763644 0.120783
vt 0.759753 0.112600
vt 0.163515 0.715269
vt 0.179424 0.717414
vt 0.813168 0.013248
vt 0.804843 0.004944
vt 0.817059 0.005033
vt 0.759753 0.120840
vt 0.817059 0.013275
vt 0.918973 0.414720
vt 0.923079 0.415538
vt 0.922097 0.420060
vt 0.207957 0.876769
vt 0.211442 0.939691
vt 0.207957 0.939598
vt 0.211442 0.876862
vt 0.813169 0.076123
vt 0.808644 0.013215
vt 0.760475 0.579327
vt 0.760476 0.642204
vt 0.755953 0.642185
vt 0.755952 0.579307
vt 0.306852 0.892566
vt 0.310336 0.955482
vt 0.306852 0.955428
vt 0.808645 0.076090
vt 0.310336 0.892619
vt 0.764998 0.571105
vt 0.764998 0.579347
vt 0.825895 0.948292
vt 0.822870 0.943766
vt 0.826738 0.942164
vt 0.829376 0.945966
vt 0.819683 0.927750
vt 0.823870 0.927749
vt 0.790427 0.013154
vt 0.804843 0.013186
vt 0.822870 0.911733
vt 0.826738 0.913334
vt 0.781016 0.579368
vt 0.797042 0.571105
vt 0.797042 0.579347
vt 0.781016 0.571126
vt 0.806106 0.579307
vt 0.801574 0.579327
vt 0.810638 0.571045
vt 0.210036 0.715269
vt 0.218106 0.701392
vt 0.221587 0.703718
vt 0.207710 0.711788
vt 0.194943 0.721520
vt 0.767666 0.013248
vt 0.763770 0.005033
vt 0.776003 0.004944
vt 0.763770 0.013275
vt 0.792398 0.733318
vt 0.804635 0.733643
vt 0.800738 0.741779
vt 0.227838 0.688626
vt 0.223732 0.687809
vt 0.804635 0.741879
vt 0.904152 0.425400
vt 0.903090 0.420060
vt 0.907276 0.420059
vt 0.904152 0.414720
vt 0.908257 0.424582
vt 0.908257 0.415535
vt 0.801578 0.421732
vt 0.806109 0.421802
vt 0.806108 0.484664
vt 0.801577 0.484594
vt 0.797046 0.492765
vt 0.810638 0.492974
vt 0.810639 0.484734
vt 0.964436 0.132970
vt 0.960959 0.070077
vt 0.964436 0.070092
vt 0.960959 0.132954
vt 0.800734 0.804608
vt 0.796201 0.804488
vt 0.963487 0.379373
vt 0.960008 0.379348
vt 0.960008 0.316472
vt 0.963487 0.316498
vt 0.796205 0.741659
vt 0.944407 0.296816
vt 0.945249 0.290686
vt 0.947887 0.294490
vt 0.792397 0.741553
vt 0.941383 0.292288
vt 0.777973 0.733203
vt 0.777973 0.741439
vt 0.938197 0.276266
vt 0.942382 0.276267
vt 0.797046 0.484525
vt 0.781020 0.492691
vt 0.781020 0.484451
vt 0.765002 0.484525
vt 0.227838 0.672291
vt 0.223732 0.673107
vt 0.218106 0.659525
vt 0.755235 0.741779
vt 0.751346 0.733643
vt 0.763558 0.733318
vt 0.759758 0.741659
vt 0.763557 0.741553
vt 0.941383 0.260245
vt 0.945250 0.261848
vt 0.944407 0.255718
vt 0.947887 0.258044
vt 0.759754 0.804488
vt 0.954675 0.560191
vt 0.958159 0.560176
vt 0.958159 0.623054
vt 0.954675 0.623069
vt 0.755231 0.804608
vt 0.810638 0.579287
vt 0.955844 0.233643
vt 0.959322 0.233589
vt 0.959322 0.296452
vt 0.772197 0.013215
vt 0.767667 0.076123
vt 0.825895 0.907207
vt 0.829376 0.909532
vt 0.961458 0.925883
vt 0.957981 0.863147
vt 0.961458 0.863054
vt 0.957981 0.925976
vt 0.772198 0.076090
vt 0.776004 0.013186
vt 0.806107 0.642184
vt 0.801575 0.642204
vt 0.955844 0.296505
vt 0.790427 0.004913
vt 0.194126 0.717414
vt 0.178607 0.721520
vt 0.751429 0.571045
vt 0.917911 0.420059
vt 0.751429 0.579287
vt 0.918973 0.425399
vt 0.755952 0.409284
vt 0.751429 0.417641
vt 0.751429 0.409405
vt 0.755956 0.346455
vt 0.760479 0.346335
vt 0.760475 0.409164
vt 0.764997 0.417279
vt 0.957812 0.379350
vt 0.954328 0.379365
vt 0.954328 0.316487
vt 0.923079 0.424583
vt 0.957812 0.316472
vt 0.768166 0.183575
vt 0.763642 0.183645
vt 0.958763 0.199709
vt 0.955279 0.199734
vt 0.955279 0.136859
vt 0.958763 0.136833
vt 0.781014 0.417152
vt 0.764997 0.409043
vt 0.781014 0.408916
vt 0.804614 0.183575
vt 0.809145 0.183645
vt 0.961643 0.661093
vt 0.751346 0.741879
vt 0.910464 0.392074
vt 0.923954 0.392074
vt 0.923901 0.411551
vt 0.910464 0.365119
vt 0.923954 0.365119
vt 0.923901 0.345619
vt 0.910411 0.345619
vt 0.907931 0.345619
vt 0.894259 0.365116
vt 0.894445 0.345619
vt 0.907745 0.365117
vt 0.907745 0.392071
vt 0.894259 0.392071
vt 0.697510 0.315149
vt 0.670554 0.315149
vt 0.642992 0.287588
vt 0.651065 0.307077
vt 0.894445 0.411551
vt 0.897579 0.024963
vt 0.897668 0.005483
vt 0.911157 0.005483
vt 0.907931 0.411551
vt 0.911069 0.024963
vt 0.725072 0.287588
vt 0.717000 0.307077
vt 0.911069 0.051918
vt 0.725072 0.260633
vt 0.697510 0.233071
vt 0.897579 0.051918
vt 0.717000 0.241144
vt 0.897668 0.071416
vt 0.911157 0.071416
vt 0.544828 0.674580
vt 0.531026 0.694081
vt 0.531348 0.674579
vt 0.544506 0.694082
vt 0.544506 0.721036
vt 0.531026 0.721035
vt 0.531348 0.740511
vt 0.642992 0.260633
vt 0.651065 0.241144
vt 0.670554 0.233071
vt 0.544828 0.740512
vt 0.910411 0.411551
vn 0.0000 -1.0000 -0.0000
vn -0.8315 0.0000 -0.5556
vn 0.5556 0.0000 -0.8315
vn -0.5556 0.0000 -0.8315
vn -0.0000 1.0000 0.0000
vn -0.8315 0.0000 0.5556
vn 0.5556 0.0000 0.8315
vn 0.5555 0.0193 0.8313
vn 0.5410 0.0000 0.8410
vn 0.5699 0.0000 0.8217
vn 0.8315 0.0000 -0.5556
vn 0.1951 0.0000 0.9808
vn -0.1951 0.0000 -0.9808
vn 0.1951 0.0000 -0.9808
vn -0.5699 0.0000 0.8217
vn -0.5555 0.0193 0.8313
vn -0.1951 0.0000 0.9808
vn -0.5410 -0.0000 0.8410
vn -0.8313 0.0193 0.5555
vn -0.8410 -0.0000 0.5410
vn 0.8315 -0.0000 0.5556
vn -0.5556 -0.0000 0.8315
vn -0.8217 0.0000 0.5699
vn -0.9808 0.0000 0.1951
vn -0.9808 0.0000 -0.1951
vn -0.8217 0.0000 -0.5699
vn -0.8313 0.0193 -0.5555
vn -0.5555 0.0193 -0.8313
vn -0.8410 0.0000 -0.5410
vn -0.5410 0.0000 -0.8410
vn -0.5699 0.0000 -0.8217
vn 0.5555 0.0193 -0.8313
vn 0.5410 0.0000 -0.8410
vn 0.8313 0.0193 -0.5555
vn 0.8410 0.0000 -0.5410
vn 0.8217 0.0000 -0.5699
vn 0.9808 -0.0000 -0.1951
vn 0.8313 0.0193 0.5555
vn 0.8217 0.0000 0.5699
vn 0.9808 0.0000 0.1951
vn 0.5699 0.0000 -0.8217
vn 0.8410 -0.0000 0.5410
vn 0.3827 0.0000 0.9239
vn 0.0000 0.0000 1.0000
vn -0.3827 0.0000 0.9239
vn -0.9239 0.0000 0.3827
vn -1.0000 0.0000 0.0000
vn -0.9239 0.0000 -0.3827
vn -0.3827 0.0000 -0.9239
vn 0.0000 0.0000 -1.0000
vn 0.3827 0.0000 -0.9239
vn 0.9239 0.0000 -0.3827
vn 1.0000 0.0000 0.0000
vn 0.9239 0.0000 0.3827
usemtl Nuclear_station_1.002
s 1
f 1/1/1 2/2/1 4/3/1
f 1/4/2 10/5/2 2/6/2
f 1/7/3 3/8/3 5/9/3
f 1/1/1 4/3/1 3/10/1
f 1/7/3 5/9/3 6/11/3
f 1/4/2 6/12/2 7/13/2
f 1/4/2 7/13/2 8/14/2
f 9/15/2 1/4/2 8/14/2
f 9/15/2 10/5/2 1/4/2
f 14/16/4 10/17/4 11/18/4
f 10/19/5 13/20/5 11/21/5
f 2/22/4 10/17/4 14/16/4
f 10/19/5 12/23/5 13/20/5
f 9/24/5 12/23/5 10/19/5
f 14/16/4 11/18/4 15/25/4
f 15/25/4 16/26/4 14/16/4
f 16/27/6 17/28/6 14/29/6
f 14/30/1 17/31/1 4/3/1
f 14/30/1 4/3/1 2/2/1
f 16/27/6 18/32/6 17/28/6
f 18/33/7 19/34/7 17/35/7
f 17/35/8 19/34/8 13/36/8
f 17/35/8 13/36/8 12/37/8
f 4/38/9 17/35/9 12/37/9
f 18/33/7 21/39/7 19/34/7
f 19/34/10 20/40/10 13/36/10
f 15/41/1 20/42/1 19/43/1
f 15/44/11 19/45/11 21/46/11
f 15/44/11 21/46/11 22/47/11
f 15/25/4 22/48/4 16/26/4
f 15/41/1 24/49/1 20/42/1
f 25/50/1 23/51/1 20/42/1
f 23/52/12 13/36/12 20/40/12
f 25/50/1 20/42/1 24/49/1
f 11/18/13 29/53/13 25/54/13
f 11/18/13 25/54/13 24/55/13
f 25/50/1 26/56/1 28/57/1
f 25/54/14 27/58/14 26/59/14
f 25/54/14 29/53/14 27/58/14
f 25/50/1 28/57/1 23/51/1
f 29/60/5 11/21/5 13/20/5
f 29/60/5 30/61/5 31/62/5
f 29/60/5 13/20/5 30/61/5
f 29/60/5 31/62/5 27/63/5
f 32/64/15 31/65/15 28/66/15
f 33/67/16 31/65/16 32/64/16
f 33/67/16 34/68/16 31/65/16
f 27/63/5 31/62/5 34/69/5
f 31/65/17 30/70/17 23/52/17
f 31/65/17 23/52/17 28/66/17
f 37/71/5 35/72/5 34/69/5
f 27/63/5 34/69/5 35/72/5
f 39/73/18 34/68/18 33/67/18
f 36/74/19 34/75/19 38/76/19
f 37/71/5 34/69/5 36/77/5
f 38/76/20 34/75/20 39/78/20
f 40/79/1 38/80/1 39/81/1
f 40/79/1 39/81/1 41/82/1
f 42/83/1 41/82/1 39/81/1
f 42/83/1 39/81/1 33/84/1
f 42/85/21 45/86/21 43/87/21
f 43/88/3 44/89/3 42/90/3
f 44/89/3 35/91/3 42/90/3
f 41/92/3 42/90/3 35/91/3
f 42/85/21 33/93/21 45/86/21
f 32/64/22 46/94/22 45/95/22
f 32/64/22 45/95/22 33/67/22
f 47/96/2 46/97/2 32/98/2
f 47/96/2 32/98/2 44/99/2
f 43/88/3 47/100/3 44/89/3
f 44/89/3 27/58/3 35/91/3
f 44/89/3 26/59/3 27/58/3
f 44/101/1 28/57/1 26/56/1
f 44/101/1 32/102/1 28/57/1
f 40/103/11 41/104/11 35/105/11
f 48/106/11 49/107/11 40/103/11
f 48/106/11 40/103/11 50/108/11
f 40/103/11 35/105/11 37/109/11
f 49/110/4 38/111/4 40/112/4
f 40/103/11 37/109/11 50/108/11
f 50/113/7 52/114/7 48/115/7
f 51/116/11 50/108/11 37/109/11
f 50/117/1 51/118/1 54/119/1
f 50/113/7 53/120/7 52/114/7
f 50/117/1 54/119/1 53/121/1
f 54/122/23 36/74/23 53/123/23
f 55/124/1 57/125/1 54/119/1
f 55/124/1 54/119/1 51/118/1
f 56/126/24 36/74/24 54/122/24
f 56/126/24 54/122/24 57/127/24
f 58/128/25 56/126/25 57/127/25
f 55/124/1 58/129/1 57/125/1
f 58/128/25 62/130/25 56/126/25
f 55/124/1 59/131/1 58/129/1
f 61/132/1 58/129/1 59/131/1
f 61/132/1 60/133/1 58/129/1
f 58/128/26 60/134/26 62/130/26
f 64/135/5 56/136/5 62/137/5
f 63/138/5 62/137/5 66/139/5
f 64/135/5 62/137/5 63/138/5
f 65/140/27 66/141/27 62/130/27
f 65/140/27 62/130/27 60/134/27
f 69/142/5 66/139/5 67/143/5
f 70/144/28 67/145/28 66/146/28
f 63/138/5 66/139/5 69/142/5
f 65/140/29 68/147/29 66/141/29
f 68/148/30 70/144/30 66/146/30
f 71/149/1 70/150/1 68/151/1
f 74/152/11 70/153/11 71/154/11
f 74/152/11 72/155/11 70/153/11
f 72/156/4 73/157/4 70/144/4
f 70/144/28 73/157/28 67/145/28
f 75/158/7 76/159/7 74/160/7
f 75/158/7 74/160/7 71/161/7
f 75/162/6 77/163/6 76/164/6
f 72/156/4 77/165/4 73/157/4
f 75/162/6 73/166/6 77/163/6
f 71/161/7 78/167/7 75/158/7
f 75/158/7 78/167/7 79/168/7
f 75/169/1 79/170/1 80/171/1
f 75/169/1 80/171/1 73/172/1
f 82/173/1 81/174/1 80/171/1
f 81/175/13 67/145/13 80/176/13
f 73/157/31 80/176/31 67/145/31
f 82/173/1 80/171/1 79/170/1
f 82/173/1 83/177/1 84/178/1
f 82/179/17 86/180/17 83/181/17
f 78/167/12 85/182/12 82/179/12
f 78/167/12 82/179/12 79/168/12
f 82/173/1 84/178/1 81/174/1
f 82/179/17 85/182/17 86/180/17
f 88/183/22 87/184/22 86/180/22
f 87/184/22 83/181/22 86/180/22
f 88/183/22 86/180/22 89/185/22
f 86/186/5 91/187/5 89/188/5
f 86/186/5 90/189/5 91/187/5
f 85/190/5 90/189/5 86/186/5
f 92/191/32 91/192/32 90/193/32
f 96/194/33 91/192/33 92/191/33
f 93/195/34 91/196/34 94/197/34
f 95/198/5 91/187/5 93/199/5
f 94/197/35 91/196/35 96/200/35
f 95/198/5 89/188/5 91/187/5
f 88/201/1 97/202/1 96/203/1
f 98/204/1 96/203/1 97/202/1
f 88/201/1 96/203/1 92/205/1
f 98/204/1 94/206/1 96/203/1
f 99/207/6 101/208/6 98/209/6
f 99/207/6 98/209/6 100/210/6
f 98/209/6 95/211/6 100/210/6
f 98/209/6 89/212/6 95/211/6
f 98/209/6 97/213/6 89/212/6
f 101/214/7 94/215/7 98/216/7
f 101/214/7 102/217/7 94/215/7
f 94/197/11 102/218/11 103/219/11
f 100/220/4 104/221/4 103/222/4
f 100/220/4 103/222/4 99/223/4
f 94/197/11 103/219/11 104/224/11
f 100/225/1 105/226/1 104/227/1
f 93/195/34 94/197/34 104/224/34
f 105/228/36 93/195/36 104/224/36
f 100/225/1 109/229/1 105/226/1
f 106/230/37 93/195/37 105/228/37
f 106/230/37 105/228/37 107/231/37
f 108/232/1 107/233/1 105/226/1
f 108/232/1 105/226/1 109/229/1
f 109/234/6 100/210/6 95/211/6
f 109/234/24 95/211/24 110/235/24
f 109/234/24 110/235/24 108/236/24
f 110/235/25 9/15/25 111/237/25
f 110/235/25 111/237/25 108/236/25
f 110/238/5 106/239/5 112/240/5
f 110/238/5 93/199/5 106/239/5
f 110/238/5 95/198/5 93/199/5
f 110/238/5 112/240/5 9/24/5
f 3/241/38 12/242/38 112/243/38
f 3/241/38 112/243/38 113/244/38
f 114/245/39 113/244/39 112/243/39
f 114/245/40 112/243/40 106/230/40
f 9/24/5 112/240/5 12/23/5
f 108/232/1 111/246/1 114/247/1
f 8/248/1 114/247/1 111/246/1
f 8/248/1 113/249/1 114/247/1
f 108/232/1 114/247/1 107/233/1
f 114/245/40 106/230/40 107/231/40
f 115/250/21 3/241/21 113/244/21
f 7/251/22 115/252/22 113/253/22
f 7/251/22 113/253/22 8/254/22
f 115/250/21 5/255/21 3/241/21
f 111/237/2 9/15/2 8/14/2
f 97/256/22 88/183/22 89/185/22
f 88/257/2 92/258/2 116/259/2
f 117/260/3 116/261/3 92/191/3
f 92/191/32 90/193/32 117/260/32
f 87/262/1 117/263/1 84/178/1
f 119/264/21 117/265/21 87/266/21
f 119/264/21 118/267/21 117/265/21
f 117/260/3 118/268/3 116/261/3
f 117/260/41 90/193/41 84/269/41
f 120/270/22 119/271/22 87/184/22
f 120/270/22 87/184/22 88/183/22
f 88/257/2 116/259/2 120/272/2
f 90/193/14 81/175/14 84/269/14
f 90/193/14 121/273/14 81/175/14
f 85/190/5 121/274/5 90/189/5
f 81/175/13 121/273/13 67/145/13
f 85/190/5 67/143/5 121/274/5
f 87/262/1 84/178/1 83/177/1
f 85/190/5 78/275/5 67/143/5
f 71/161/7 69/276/7 78/167/7
f 69/142/5 67/143/5 78/275/5
f 71/149/1 68/151/1 122/277/1
f 122/278/7 69/276/7 71/161/7
f 123/279/1 122/277/1 68/151/1
f 123/280/21 69/281/21 122/282/21
f 123/280/21 126/283/21 124/284/21
f 123/280/21 124/284/21 61/285/21
f 63/286/21 123/280/21 61/285/21
f 63/286/21 69/281/21 123/280/21
f 123/287/22 65/288/22 125/289/22
f 123/279/1 68/151/1 65/290/1
f 123/287/22 125/289/22 126/291/22
f 127/292/2 125/293/2 65/140/2
f 127/292/2 65/140/2 60/134/2
f 124/294/3 127/295/3 60/296/3
f 124/294/3 60/296/3 61/297/3
f 64/298/40 59/299/40 55/300/40
f 51/116/37 64/298/37 55/300/37
f 64/298/40 63/286/40 59/299/40
f 64/135/5 37/71/5 36/77/5
f 64/135/5 36/77/5 56/136/5
f 51/116/37 37/109/37 64/298/37
f 59/299/21 63/286/21 61/285/21
f 36/74/19 38/76/19 53/123/19
f 38/76/6 52/301/6 53/123/6
f 38/76/6 128/302/6 52/301/6
f 49/110/4 128/303/4 38/111/4
f 23/52/12 30/70/12 13/36/12
f 15/25/4 11/18/4 24/55/4
f 3/241/42 4/304/42 12/242/42
f 130/305/43 129/306/43 131/307/43
f 129/306/44 130/305/44 132/308/44
f 129/306/44 132/308/44 133/309/44
f 132/308/45 134/310/45 133/309/45
f 132/308/45 135/311/45 134/310/45
f 135/312/46 136/313/46 134/314/46
f 136/313/47 139/315/47 137/316/47
f 136/313/47 137/316/47 138/317/47
f 135/312/46 139/315/46 136/313/46
f 137/318/5 139/319/5 132/320/5
f 139/319/5 135/321/5 132/320/5
f 140/322/48 138/317/48 137/316/48
f 141/323/49 140/324/49 142/325/49
f 140/322/48 137/316/48 142/326/48
f 141/323/49 142/325/49 143/327/49
f 143/328/5 142/329/5 137/318/5
f 141/323/50 143/327/50 145/330/50
f 145/331/5 143/328/5 144/332/5
f 137/318/5 144/332/5 143/328/5
f 141/323/50 145/330/50 146/333/50
f 144/332/5 148/334/5 145/331/5
f 145/330/51 147/335/51 146/333/51
f 145/330/51 148/336/51 147/335/51
f 148/337/52 149/338/52 147/339/52
f 148/337/52 144/340/52 149/338/52
f 149/338/53 144/340/53 150/341/53
f 149/338/53 150/341/53 151/342/53
f 131/343/54 151/342/54 150/341/54
f 130/344/5 152/345/5 150/346/5
f 130/344/5 150/346/5 137/318/5
f 150/346/5 144/332/5 137/318/5
f 131/343/54 150/341/54 152/347/54
f 130/305/43 131/307/43 152/348/43
f 132/320/5 130/344/5 137/318/5
