# Blender v2.92.0 OBJ File: 'NuclearStationGrouped.blend'
# www.blender.org
mtllib NuclearStation_Windows7.mtl
o Windows7_Cube.038_Cube.176
v -1.336933 2.617520 0.022213
v -1.336933 2.582138 0.131359
v -1.336933 2.617520 0.131359
v -1.336933 2.744773 0.131359
v -1.336933 2.744773 0.022213
v -1.336933 2.582138 0.022213
v -1.289222 2.582138 0.022213
v -1.169945 2.582138 0.022213
v -1.289222 2.582138 0.131359
v -1.289222 2.617520 0.131359
v -1.169945 2.582138 0.131359
v -1.146090 2.582138 0.022213
v -1.146090 2.582138 0.131359
v -1.169945 2.617520 0.131359
v -1.146090 2.744773 0.131359
v -1.146090 2.617520 0.131359
v -1.169945 2.617520 0.022213
v -1.169945 2.744773 0.131359
v -1.169945 2.744773 0.022213
v -1.289222 2.744773 0.022213
v -1.289222 2.744773 0.131359
v -1.169945 2.780155 0.131359
v -1.146090 2.780155 0.131359
v -1.146090 2.780155 0.022213
v -1.026813 2.780155 0.022213
v -1.026813 2.780155 0.131359
v -1.026813 2.744773 0.131359
v -1.002957 2.780155 0.131359
v -1.002957 2.780155 0.022213
v -0.883680 2.780155 0.131359
v -0.883680 2.780155 0.022213
v -0.859824 2.780155 0.022213
v -0.740547 2.780155 0.131359
v -0.740547 2.780155 0.022213
v -0.859824 2.780155 0.131359
v -0.859824 2.744773 0.131359
v -0.883680 2.744773 0.131359
v -0.883680 2.617520 0.022213
v -0.883680 2.744773 0.022213
v -0.883680 2.617520 0.131359
v -1.002957 2.744773 0.131359
v -1.026813 2.617520 0.131359
v -1.002957 2.744773 0.022213
v -1.002957 2.617520 0.131359
v -1.002957 2.582138 0.131359
v -1.002957 2.617520 0.022213
v -1.026813 2.582138 0.131359
v -1.002957 2.582138 0.022213
v -0.883680 2.582138 0.131359
v -0.859824 2.582138 0.022213
v -0.859824 2.582138 0.131359
v -0.883680 2.582138 0.022213
v -0.859824 2.617520 0.131359
v -0.740547 2.617520 0.131359
v -0.859824 2.744773 0.022213
v -0.859824 2.617520 0.022213
v -0.740547 2.582138 0.131359
v -0.740547 2.582138 0.022213
v -0.692836 2.582138 0.022213
v -0.692836 2.582138 0.131359
v -0.692836 2.617520 0.131359
v -0.692836 2.744773 0.131359
v -0.692836 2.744773 0.022213
v -0.692836 2.617520 0.022213
v -0.692836 2.780155 0.022213
v -0.692836 2.780155 0.131359
v -0.740547 2.744773 0.131359
v -0.740547 2.617520 0.022213
v -0.740547 2.744773 0.022213
v -1.026813 2.582138 0.022213
v -1.026813 2.617520 0.022213
v -1.146090 2.617520 0.022213
v -1.026813 2.744773 0.022213
v -1.146090 2.744773 0.022213
v -1.169945 2.780155 0.022213
v -1.289222 2.780155 0.022213
v -1.289222 2.780155 0.131359
v -1.336933 2.780155 0.022213
v -1.336933 2.780155 0.131359
v -1.289222 2.617520 0.022213
v -1.300057 2.608997 0.046226
v -0.729713 2.753297 0.046227
v -1.300057 2.753297 0.046226
v -0.729713 2.608997 0.046227
vt 0.261991 0.968224
vt 0.261991 0.965843
vt 0.265705 0.965843
vt 0.265705 0.968224
vt 0.265705 0.976786
vt 0.261991 0.976786
vt 0.581850 0.964034
vt 0.578136 0.964034
vt 0.578136 0.962411
vt 0.578136 0.958354
vt 0.581850 0.962411
vt 0.791458 0.320324
vt 0.793839 0.320324
vt 0.793839 0.324382
vt 0.791458 0.318700
vt 0.581850 0.958354
vt 0.793839 0.318700
vt 0.791458 0.324382
vt 0.578136 0.957543
vt 0.581850 0.957542
vt 0.793839 0.325194
vt 0.782893 0.325194
vt 0.782893 0.324382
vt 0.791458 0.325194
vt 0.848067 0.073982
vt 0.851781 0.073982
vt 0.851781 0.082544
vt 0.831673 0.225646
vt 0.827959 0.229704
vt 0.827959 0.225646
vt 0.848067 0.082544
vt 0.987833 0.710402
vt 0.991547 0.706345
vt 0.991547 0.710402
vt 0.780512 0.325194
vt 0.987833 0.706345
vt 0.780512 0.324382
vt 0.782893 0.320324
vt 0.780512 0.329252
vt 0.465404 0.957150
vt 0.469118 0.953092
vt 0.469118 0.957150
vt 0.465404 0.957962
vt 0.465404 0.953092
vt 0.782893 0.329252
vt 0.780512 0.330063
vt 0.469118 0.952280
vt 0.465404 0.952280
vt 0.465404 0.948222
vt 0.469118 0.948222
vt 0.469118 0.947410
vt 0.465404 0.947410
vt 0.465404 0.943352
vt 0.469118 0.943352
vt 0.780512 0.334933
vt 0.780512 0.334122
vt 0.782893 0.334122
vt 0.780512 0.338992
vt 0.782893 0.334933
vt 0.845360 0.824343
vt 0.849073 0.824342
vt 0.849073 0.832905
vt 0.845360 0.832905
vt 0.813446 0.987919
vt 0.817160 0.987919
vt 0.817160 0.991976
vt 0.791458 0.334122
vt 0.782893 0.330063
vt 0.813446 0.991976
vt 0.791458 0.329252
vt 0.791458 0.330063
vt 0.907072 0.083113
vt 0.903358 0.083113
vt 0.903358 0.074555
vt 0.793839 0.330063
vt 0.819841 0.229704
vt 0.816127 0.229704
vt 0.816127 0.225646
vt 0.907072 0.074555
vt 0.819841 0.225646
vt 0.793839 0.329252
vt 0.581850 0.953486
vt 0.578136 0.952675
vt 0.581850 0.952674
vt 0.793839 0.334122
vt 0.581850 0.948617
vt 0.578136 0.948618
vt 0.578136 0.947806
vt 0.581850 0.947806
vt 0.791458 0.334933
vt 0.793839 0.334933
vt 0.978183 0.604560
vt 0.981896 0.604560
vt 0.981896 0.608618
vt 0.793839 0.338991
vt 0.791458 0.338991
vt 0.532448 0.981013
vt 0.528735 0.981013
vt 0.528735 0.972455
vt 0.532448 0.972455
vt 0.581850 0.943749
vt 0.578136 0.943749
vt 0.578136 0.942127
vt 0.581850 0.942126
vt 0.793839 0.340615
vt 0.791458 0.340615
vt 0.112770 0.968272
vt 0.112770 0.965893
vt 0.116484 0.965892
vt 0.116484 0.976830
vt 0.112770 0.976830
vt 0.782893 0.340615
vt 0.116484 0.968272
vt 0.116484 0.979209
vt 0.112770 0.979209
vt 0.469118 0.941729
vt 0.465404 0.941729
vt 0.780512 0.340615
vt 0.782893 0.338991
vt 0.827762 0.991976
vt 0.827762 0.987920
vt 0.831476 0.987919
vt 0.845865 0.082544
vt 0.842152 0.073982
vt 0.845865 0.073982
vt 0.842152 0.082544
vt 0.831476 0.991976
vt 0.978183 0.608618
vt 0.578136 0.953486
vt 0.988248 0.908328
vt 0.991962 0.908328
vt 0.991962 0.912385
vt 0.884405 0.073554
vt 0.888119 0.073554
vt 0.888119 0.082116
vt 0.988248 0.912385
vt 0.884405 0.082116
vt 0.985272 0.804377
vt 0.985272 0.808435
vt 0.981558 0.808435
vt 0.981558 0.804377
vt 0.564392 0.980915
vt 0.568106 0.972357
vt 0.568106 0.980915
vt 0.564392 0.972358
vt 0.469118 0.957962
vt 0.469118 0.962020
vt 0.465404 0.962020
vt 0.469118 0.963643
vt 0.465404 0.963643
vt 0.265705 0.979167
vt 0.261991 0.979167
vt 0.780512 0.320324
vt 0.780512 0.318701
vt 0.782893 0.318701
vt 0.526533 0.981013
vt 0.522819 0.981013
vt 0.522819 0.972455
vt 0.526533 0.972455
vt 0.831673 0.229704
vt 0.386514 0.899742
vt 0.328206 0.899742
vt 0.328206 0.803667
vt 0.386515 0.803667
vn -1.0000 0.0000 0.0000
vn 0.0000 -1.0000 0.0000
vn 0.0000 0.0000 1.0000
vn 0.0000 1.0000 0.0000
vn 1.0000 0.0000 0.0000
vn 0.0000 0.0000 -1.0000
usemtl Nuclear_station_1.002
s 1
f 1/1/1 6/2/1 2/3/1
f 1/1/1 2/3/1 3/4/1
f 4/5/1 1/1/1 3/4/1
f 4/5/1 5/6/1 1/1/1
f 2/7/2 6/8/2 7/9/2
f 8/10/2 9/11/2 7/9/2
f 2/7/2 7/9/2 9/11/2
f 10/12/3 9/13/3 11/14/3
f 3/15/3 9/13/3 10/12/3
f 8/10/2 11/16/2 9/11/2
f 3/15/3 2/17/3 9/13/3
f 10/12/3 11/14/3 14/18/3
f 11/16/2 8/10/2 12/19/2
f 11/16/2 12/19/2 13/20/2
f 14/18/3 11/14/3 13/21/3
f 15/22/3 18/23/3 14/18/3
f 15/22/3 14/18/3 16/24/3
f 14/18/3 13/21/3 16/24/3
f 17/25/1 14/26/1 18/27/1
f 17/28/4 10/29/4 14/30/4
f 17/25/1 18/27/1 19/31/1
f 18/32/2 20/33/2 19/34/2
f 23/35/3 18/23/3 15/22/3
f 18/32/2 21/36/2 20/33/2
f 22/37/3 21/38/3 18/23/3
f 23/35/3 22/37/3 18/23/3
f 26/39/3 23/35/3 15/22/3
f 23/40/4 25/41/4 24/42/4
f 24/42/4 22/43/4 23/40/4
f 23/40/4 26/44/4 25/41/4
f 26/39/3 15/22/3 27/45/3
f 28/46/3 26/39/3 27/45/3
f 29/47/4 26/44/4 28/48/4
f 29/47/4 25/41/4 26/44/4
f 29/47/4 28/48/4 30/49/4
f 29/47/4 30/49/4 31/50/4
f 32/51/4 31/50/4 30/49/4
f 32/51/4 35/52/4 33/53/4
f 32/51/4 33/53/4 34/54/4
f 32/51/4 30/49/4 35/52/4
f 35/55/3 30/56/3 37/57/3
f 33/58/3 35/55/3 36/59/3
f 35/55/3 37/57/3 36/59/3
f 38/60/1 40/61/1 37/62/1
f 38/60/1 37/62/1 39/63/1
f 39/64/2 37/65/2 41/66/2
f 36/59/3 37/57/3 40/67/3
f 30/56/3 41/68/3 37/57/3
f 39/64/2 41/66/2 43/69/2
f 41/68/3 27/45/3 42/70/3
f 41/68/3 42/70/3 44/71/3
f 43/72/5 41/73/5 44/74/5
f 28/46/3 27/45/3 41/68/3
f 30/56/3 28/46/3 41/68/3
f 42/70/3 45/75/3 44/71/3
f 40/67/3 44/71/3 45/75/3
f 46/76/4 44/77/4 40/78/4
f 43/72/5 44/74/5 46/79/5
f 46/76/4 40/78/4 38/80/4
f 42/70/3 47/81/3 45/75/3
f 47/82/2 48/83/2 45/84/2
f 40/67/3 45/75/3 49/85/3
f 48/83/2 49/86/2 45/84/2
f 49/86/2 52/87/2 50/88/2
f 49/86/2 50/88/2 51/89/2
f 53/90/3 40/67/3 49/85/3
f 53/90/3 49/85/3 51/91/3
f 48/83/2 52/87/2 49/86/2
f 56/92/4 53/93/4 54/94/4
f 53/90/3 57/95/3 54/96/3
f 55/97/5 36/98/5 53/99/5
f 55/97/5 53/99/5 56/100/5
f 36/59/3 40/67/3 53/90/3
f 53/90/3 51/91/3 57/95/3
f 57/101/2 51/89/2 50/88/2
f 57/101/2 50/88/2 58/102/2
f 57/101/2 58/102/2 59/103/2
f 57/101/2 59/103/2 60/104/2
f 54/96/3 57/95/3 60/105/3
f 54/96/3 60/105/3 61/106/3
f 61/107/5 60/108/5 59/109/5
f 63/110/5 62/111/5 61/107/5
f 62/112/3 54/96/3 61/106/3
f 63/110/5 61/107/5 64/113/5
f 61/107/5 59/109/5 64/113/5
f 65/114/5 62/111/5 63/110/5
f 65/114/5 66/115/5 62/111/5
f 65/116/4 33/53/4 66/117/4
f 65/116/4 34/54/4 33/53/4
f 66/118/3 67/119/3 62/112/3
f 66/118/3 33/58/3 67/119/3
f 62/112/3 67/119/3 54/96/3
f 67/120/2 36/121/2 55/122/2
f 33/58/3 36/59/3 67/119/3
f 67/123/1 68/124/1 54/125/1
f 67/123/1 69/126/1 68/124/1
f 67/120/2 55/122/2 69/127/2
f 56/92/4 54/94/4 68/128/4
f 47/82/2 70/129/2 48/83/2
f 70/129/2 47/82/2 13/20/2
f 70/129/2 13/20/2 12/19/2
f 16/24/3 13/21/3 47/81/3
f 16/24/3 47/81/3 42/70/3
f 71/130/2 42/131/2 16/132/2
f 71/133/1 42/134/1 27/135/1
f 71/130/2 16/132/2 72/136/2
f 71/133/1 27/135/1 73/137/1
f 15/138/4 27/139/4 73/140/4
f 15/138/4 73/140/4 74/141/4
f 15/142/5 72/143/5 74/144/5
f 15/142/5 16/145/5 72/143/5
f 24/42/4 75/146/4 22/43/4
f 76/147/4 22/43/4 75/146/4
f 76/147/4 77/148/4 22/43/4
f 77/148/4 76/147/4 78/149/4
f 77/148/4 78/149/4 79/150/4
f 79/151/1 78/152/1 5/6/1
f 77/153/3 79/154/3 4/155/3
f 79/151/1 5/6/1 4/5/1
f 22/37/3 77/153/3 21/38/3
f 77/153/3 4/155/3 21/38/3
f 20/156/5 21/157/5 10/158/5
f 21/38/3 3/15/3 10/12/3
f 21/38/3 4/155/3 3/15/3
f 20/156/5 10/158/5 80/159/5
f 17/28/4 80/160/4 10/29/4
usemtl Nuclear_station_Light_1.002
f 81/161/6 83/162/6 82/163/6
f 81/161/6 82/163/6 84/164/6
