# Blender v2.92.0 OBJ File: 'NuclearStationGrouped.blend'
# www.blender.org
mtllib NuclearStation_Windows8.mtl
o Windows8_Cube.038_Cube.177
v 0.919649 2.617521 -2.171242
v 0.919649 2.582139 -2.280388
v 0.919649 2.617521 -2.280388
v 0.919649 2.744774 -2.280388
v 0.919649 2.582139 -2.171242
v 0.919649 2.744774 -2.171242
v 0.919649 2.780156 -2.280388
v 0.919649 2.780156 -2.171242
v 0.871938 2.780156 -2.280388
v 0.871938 2.780156 -2.171242
v 0.752661 2.780156 -2.171242
v 0.728806 2.780156 -2.171242
v 0.752661 2.780156 -2.280388
v 0.728806 2.780156 -2.280388
v 0.752661 2.744774 -2.280388
v 0.871938 2.744774 -2.280388
v 0.871938 2.617521 -2.171242
v 0.752661 2.744774 -2.171242
v 0.871938 2.744774 -2.171242
v 0.871938 2.617521 -2.280388
v 0.752661 2.617521 -2.280388
v 0.752661 2.582139 -2.280388
v 0.871938 2.582139 -2.280388
v 0.871938 2.582139 -2.171242
v 0.752661 2.582139 -2.171242
v 0.728806 2.582139 -2.171242
v 0.728806 2.582139 -2.280388
v 0.609528 2.582139 -2.171242
v 0.585673 2.582139 -2.171242
v 0.609528 2.582139 -2.280388
v 0.728806 2.617521 -2.280388
v 0.609528 2.617521 -2.280388
v 0.585673 2.582139 -2.280388
v 0.585673 2.617521 -2.280388
v 0.466395 2.582139 -2.171242
v 0.466395 2.582139 -2.280388
v 0.466395 2.617521 -2.280388
v 0.442540 2.582139 -2.280388
v 0.442540 2.582139 -2.171242
v 0.323263 2.582139 -2.280388
v 0.323263 2.582139 -2.171242
v 0.275552 2.582139 -2.171242
v 0.275552 2.617521 -2.280388
v 0.275552 2.617521 -2.171242
v 0.275552 2.582139 -2.280388
v 0.323263 2.617521 -2.280388
v 0.442540 2.617521 -2.280388
v 0.442540 2.617521 -2.171242
v 0.323263 2.617521 -2.171242
v 0.323263 2.744774 -2.280388
v 0.275552 2.744774 -2.280388
v 0.275552 2.780156 -2.171242
v 0.275552 2.744774 -2.171242
v 0.275552 2.780156 -2.280388
v 0.323263 2.780156 -2.280388
v 0.442540 2.780156 -2.171242
v 0.323263 2.780156 -2.171242
v 0.442540 2.780156 -2.280388
v 0.442540 2.744774 -2.280388
v 0.442540 2.744774 -2.171242
v 0.466395 2.744774 -2.280388
v 0.466395 2.617521 -2.171242
v 0.466396 2.780156 -2.280388
v 0.466395 2.744774 -2.171242
v 0.585673 2.744774 -2.280388
v 0.585673 2.744774 -2.171242
v 0.609528 2.744774 -2.280388
v 0.585673 2.780156 -2.280388
v 0.609528 2.780156 -2.280388
v 0.585673 2.780156 -2.171242
v 0.609528 2.780156 -2.171242
v 0.466395 2.780156 -2.171242
v 0.728806 2.744774 -2.280388
v 0.728806 2.617521 -2.171242
v 0.728806 2.744774 -2.171242
v 0.609528 2.744774 -2.171242
v 0.609528 2.617521 -2.171242
v 0.585673 2.617521 -2.171242
v 0.323263 2.744774 -2.171242
v 0.752661 2.617521 -2.171242
v 0.882773 2.608998 -2.195256
v 0.312428 2.753298 -2.195256
v 0.312428 2.608998 -2.195256
v 0.882773 2.753298 -2.195256
vt 0.244517 0.968224
vt 0.244517 0.965845
vt 0.248230 0.965845
vt 0.248230 0.968224
vt 0.248230 0.976782
vt 0.244517 0.976782
vt 0.248230 0.979161
vt 0.244517 0.979161
vt 0.217632 0.942734
vt 0.213918 0.941111
vt 0.217632 0.941111
vt 0.213918 0.942734
vt 0.213918 0.946793
vt 0.213918 0.947604
vt 0.217632 0.946793
vt 0.217632 0.947604
vt 0.910273 0.325654
vt 0.910273 0.324842
vt 0.912654 0.324842
vt 0.910273 0.320784
vt 0.912654 0.320784
vt 0.807530 0.987919
vt 0.811244 0.987919
vt 0.811244 0.991976
vt 0.857697 0.073982
vt 0.857697 0.082544
vt 0.853983 0.082544
vt 0.853983 0.073982
vt 0.807530 0.991976
vt 0.912654 0.319161
vt 0.921219 0.319160
vt 0.921219 0.320784
vt 0.986046 0.912386
vt 0.982332 0.912386
vt 0.982332 0.908328
vt 0.923600 0.324842
vt 0.921219 0.324842
vt 0.923600 0.320784
vt 0.233436 0.963694
vt 0.233436 0.962071
vt 0.237150 0.962071
vt 0.237150 0.963694
vt 0.237150 0.958014
vt 0.923600 0.319160
vt 0.233436 0.958014
vt 0.233436 0.957203
vt 0.237150 0.957203
vt 0.233436 0.953146
vt 0.237150 0.953146
vt 0.233436 0.952335
vt 0.921219 0.325654
vt 0.923600 0.325654
vt 0.923600 0.329712
vt 0.921219 0.329712
vt 0.923600 0.330523
vt 0.237150 0.952335
vt 0.921219 0.330523
vt 0.923600 0.334582
vt 0.233436 0.948278
vt 0.237150 0.948278
vt 0.921219 0.334582
vt 0.923600 0.335393
vt 0.233436 0.947466
vt 0.237150 0.947466
vt 0.237150 0.943409
vt 0.233436 0.943410
vt 0.233436 0.941787
vt 0.971541 0.124174
vt 0.971541 0.121793
vt 0.975254 0.121793
vt 0.975254 0.124174
vt 0.237150 0.941787
vt 0.921219 0.339451
vt 0.923600 0.339451
vt 0.923600 0.341075
vt 0.921219 0.341075
vt 0.912654 0.341075
vt 0.981918 0.706345
vt 0.985631 0.706345
vt 0.985631 0.710403
vt 0.921219 0.335393
vt 0.981918 0.710403
vt 0.930250 0.428273
vt 0.926536 0.419715
vt 0.930250 0.419715
vt 0.912654 0.339451
vt 0.975254 0.135117
vt 0.971541 0.135117
vt 0.971541 0.132736
vt 0.975254 0.132736
vt 0.910273 0.341075
vt 0.213918 0.963025
vt 0.217632 0.961402
vt 0.217632 0.963025
vt 0.910273 0.339452
vt 0.912654 0.335393
vt 0.213918 0.957344
vt 0.217632 0.957344
vt 0.213918 0.961402
vt 0.910273 0.335393
vt 0.512640 0.992217
vt 0.512640 0.988160
vt 0.516354 0.988160
vt 0.439707 0.853910
vt 0.435993 0.853910
vt 0.435993 0.845348
vt 0.912654 0.334582
vt 0.943922 0.981645
vt 0.940209 0.981645
vt 0.940209 0.973087
vt 0.943922 0.973087
vt 0.910273 0.334582
vt 0.912654 0.330523
vt 0.356523 0.991995
vt 0.352810 0.991996
vt 0.352810 0.987939
vt 0.912654 0.329712
vt 0.890321 0.073554
vt 0.894034 0.073554
vt 0.894034 0.082116
vt 0.356523 0.987938
vt 0.910273 0.330523
vt 0.910273 0.329712
vt 0.213918 0.952474
vt 0.217632 0.951662
vt 0.217632 0.952474
vt 0.217632 0.956532
vt 0.213918 0.951662
vt 0.213918 0.956532
vt 0.912654 0.325654
vt 0.901156 0.074555
vt 0.901156 0.083117
vt 0.897442 0.083117
vt 0.897442 0.074555
vt 0.975901 0.855901
vt 0.972188 0.859959
vt 0.972188 0.855901
vt 0.975901 0.859959
vt 0.871516 0.972881
vt 0.875230 0.981438
vt 0.871516 0.981438
vt 0.821846 0.987920
vt 0.825560 0.987919
vt 0.825560 0.991976
vt 0.875230 0.972880
vt 0.821846 0.991976
vt 0.890321 0.082116
vt 0.822043 0.229704
vt 0.825757 0.225646
vt 0.825757 0.229704
vt 0.822043 0.225646
vt 0.516354 0.992217
vt 0.439707 0.845348
vt 0.926536 0.428273
vt 0.547172 0.972612
vt 0.550886 0.972612
vt 0.550886 0.981170
vt 0.986046 0.908328
vt 0.547172 0.981170
vt 0.910273 0.319161
vt 0.328206 0.734982
vt 0.328206 0.638906
vt 0.386514 0.638906
vt 0.386514 0.734981
vn 1.0000 0.0000 0.0000
vn 0.0000 1.0000 0.0000
vn 0.0000 0.0000 -1.0000
vn 0.0000 -1.0000 0.0000
vn -1.0000 0.0000 0.0000
vn 0.0000 0.0000 1.0000
usemtl Nuclear_station_1.002
s 1
f 1/1/1 5/2/1 2/3/1
f 1/1/1 2/3/1 3/4/1
f 4/5/1 1/1/1 3/4/1
f 4/5/1 6/6/1 1/1/1
f 7/7/1 6/6/1 4/5/1
f 7/7/1 8/8/1 6/6/1
f 9/9/2 8/10/2 7/11/2
f 9/9/2 10/12/2 8/10/2
f 11/13/2 10/12/2 9/9/2
f 12/14/2 11/13/2 13/15/2
f 11/13/2 9/9/2 13/15/2
f 12/14/2 13/15/2 14/16/2
f 14/17/3 13/18/3 15/19/3
f 13/18/3 9/20/3 16/21/3
f 13/18/3 16/21/3 15/19/3
f 18/22/4 15/23/4 16/24/4
f 17/25/5 19/26/5 16/27/5
f 17/25/5 16/27/5 20/28/5
f 18/22/4 16/24/4 19/29/4
f 16/21/3 4/30/3 3/31/3
f 16/21/3 3/31/3 20/32/3
f 9/20/3 4/30/3 16/21/3
f 17/33/2 20/34/2 21/35/2
f 20/32/3 22/36/3 21/37/3
f 3/31/3 23/38/3 20/32/3
f 20/32/3 23/38/3 22/36/3
f 5/39/4 24/40/4 23/41/4
f 5/39/4 23/41/4 2/42/4
f 22/43/4 23/41/4 24/40/4
f 3/31/3 2/44/3 23/38/3
f 22/43/4 24/40/4 25/45/4
f 22/43/4 25/45/4 26/46/4
f 22/43/4 26/46/4 27/47/4
f 28/48/4 27/47/4 26/46/4
f 28/48/4 30/49/4 27/47/4
f 30/49/4 28/48/4 29/50/4
f 31/51/3 27/52/3 30/53/3
f 31/51/3 30/53/3 32/54/3
f 32/54/3 30/53/3 33/55/3
f 30/49/4 29/50/4 33/56/4
f 32/54/3 33/55/3 34/57/3
f 34/57/3 33/55/3 36/58/3
f 35/59/4 33/56/4 29/50/4
f 35/59/4 36/60/4 33/56/4
f 37/61/3 36/58/3 38/62/3
f 34/57/3 36/58/3 37/61/3
f 36/60/4 35/59/4 39/63/4
f 36/60/4 39/63/4 38/64/4
f 40/65/4 38/64/4 39/63/4
f 40/65/4 39/63/4 41/66/4
f 40/65/4 41/66/4 42/67/4
f 43/68/5 45/69/5 42/70/5
f 43/68/5 42/70/5 44/71/5
f 40/65/4 42/67/4 45/72/4
f 46/73/3 40/74/3 45/75/3
f 46/73/3 45/75/3 43/76/3
f 51/77/3 46/73/3 43/76/3
f 48/78/2 47/79/2 46/80/2
f 47/81/3 40/74/3 46/73/3
f 48/78/2 46/80/2 49/82/2
f 50/83/1 49/84/1 46/85/1
f 51/77/3 50/86/3 46/73/3
f 52/87/5 54/88/5 51/89/5
f 52/87/5 51/89/5 53/90/5
f 53/90/5 51/89/5 43/68/5
f 54/91/3 50/86/3 51/77/3
f 52/92/2 55/93/2 54/94/2
f 54/91/3 55/95/3 50/86/3
f 55/95/3 59/96/3 50/86/3
f 56/97/2 58/98/2 55/93/2
f 56/97/2 55/93/2 57/99/2
f 52/92/2 57/99/2 55/93/2
f 55/95/3 58/100/3 59/96/3
f 50/101/4 59/102/4 60/103/4
f 60/104/5 59/105/5 47/106/5
f 59/96/3 61/107/3 37/61/3
f 58/100/3 61/107/3 59/96/3
f 59/96/3 37/61/3 47/81/3
f 62/108/1 37/109/1 61/110/1
f 62/108/1 61/110/1 64/111/1
f 58/100/3 63/112/3 61/107/3
f 63/112/3 65/113/3 61/107/3
f 64/114/4 61/115/4 65/116/4
f 65/113/3 67/117/3 32/54/3
f 65/113/3 32/54/3 34/57/3
f 66/118/5 65/119/5 34/120/5
f 64/114/4 65/116/4 66/121/4
f 68/122/3 67/117/3 65/113/3
f 63/112/3 68/122/3 65/113/3
f 68/122/3 69/123/3 67/117/3
f 70/124/2 69/125/2 68/126/2
f 70/124/2 68/126/2 63/127/2
f 70/124/2 71/128/2 69/125/2
f 70/124/2 63/127/2 72/129/2
f 58/98/2 56/97/2 72/129/2
f 58/98/2 72/129/2 63/127/2
f 14/16/2 71/128/2 12/14/2
f 14/16/2 69/125/2 71/128/2
f 69/123/3 73/130/3 67/117/3
f 69/123/3 14/17/3 73/130/3
f 73/130/3 15/19/3 21/37/3
f 14/17/3 15/19/3 73/130/3
f 73/131/5 31/132/5 74/133/5
f 73/130/3 21/37/3 31/51/3
f 73/131/5 74/133/5 75/134/5
f 73/135/2 76/136/2 75/137/2
f 73/135/2 67/138/2 76/136/2
f 77/139/1 67/140/1 76/141/1
f 77/142/4 32/143/4 31/144/4
f 77/139/1 32/145/1 67/140/1
f 77/142/4 31/144/4 74/146/4
f 66/118/5 34/120/5 78/147/5
f 34/148/2 62/149/2 78/150/2
f 34/148/2 37/151/2 62/149/2
f 50/101/4 60/103/4 79/152/4
f 60/104/5 47/106/5 48/153/5
f 50/83/1 79/154/1 49/84/1
f 53/90/5 43/68/5 44/71/5
f 37/61/3 38/62/3 47/81/3
f 47/81/3 38/62/3 40/74/3
f 21/37/3 27/52/3 31/51/3
f 21/37/3 22/36/3 27/52/3
f 80/155/1 21/156/1 15/157/1
f 17/33/2 21/35/2 80/158/2
f 80/155/1 15/157/1 18/159/1
f 9/20/3 7/160/3 4/30/3
usemtl Nuclear_station_Light_1.002
f 81/161/6 84/162/6 82/163/6
f 81/161/6 82/163/6 83/164/6
