# Blender v2.92.0 OBJ File: 'NuclearStationGrouped.blend'
# www.blender.org
mtllib NuclearStation_Windows3.mtl
o Windows3_Cube.038_Cube.167
v 1.699101 0.809259 0.039905
v 2.287548 0.809259 0.039905
v 2.287548 0.783692 0.086361
v 1.699101 0.783692 0.086361
v 2.287548 0.791374 0.090590
v 1.699101 0.791374 0.090590
v 1.699101 0.816942 0.044133
v 2.287548 0.816942 0.044133
v 1.699101 0.633878 0.039905
v 2.287548 0.633878 0.039905
v 2.287548 0.608310 0.086361
v 1.699101 0.608310 0.086361
v 2.287548 0.615993 0.090590
v 1.699101 0.615993 0.090590
v 1.699101 0.641560 0.044133
v 2.287548 0.641560 0.044133
v 1.699101 0.677723 0.039905
v 2.287548 0.652156 0.086361
v 1.699101 0.652156 0.086361
v 2.287548 0.677723 0.039905
v 2.287548 0.659838 0.090590
v 1.699101 0.659838 0.090590
v 1.699101 0.685406 0.044133
v 2.287548 0.685406 0.044133
v 1.699101 0.721569 0.039905
v 2.287548 0.696001 0.086362
v 1.699101 0.696001 0.086361
v 2.287548 0.721569 0.039905
v 2.287548 0.703683 0.090590
v 1.699101 0.703683 0.090590
v 1.699101 0.729251 0.044133
v 2.287548 0.729251 0.044133
v 1.699101 0.765414 0.039905
v 2.287548 0.765414 0.039905
v 2.287548 0.739846 0.086362
v 1.699101 0.739846 0.086361
v 1.699101 0.747529 0.090590
v 2.287548 0.747529 0.090590
v 1.699101 0.773096 0.044133
v 2.287548 0.773096 0.044133
v 2.009518 0.858560 0.099880
v 2.280839 0.830173 0.099880
v 2.310891 0.858560 0.099880
v 2.310891 0.858560 0.025601
v 2.009518 0.858560 0.025601
v 2.009518 0.830173 0.099880
v 1.977131 0.830173 0.099880
v 1.977131 0.858560 0.099880
v 1.977131 0.858560 0.025601
v 1.705810 0.830173 0.099880
v 1.675758 0.858560 0.099880
v 1.675758 0.858560 0.025601
v 1.675758 0.557187 0.025601
v 1.675758 0.557187 0.099880
v 1.977131 0.557187 0.099880
v 1.977131 0.557187 0.025601
v 2.009518 0.557187 0.099880
v 2.009518 0.557187 0.025601
v 2.310891 0.557187 0.025601
v 2.310891 0.557187 0.099880
v 2.280839 0.585574 0.099880
v 2.009518 0.585574 0.099880
v 2.280839 0.830173 0.025601
v 2.280839 0.585574 0.025601
v 2.009518 0.585574 0.025601
v 2.009518 0.830173 0.025601
v 1.977131 0.585574 0.099880
v 1.705810 0.585574 0.099880
v 1.705810 0.585574 0.025601
v 1.977131 0.585574 0.025601
v 1.977131 0.830173 0.025601
v 1.705810 0.830173 0.025601
vt 0.987049 0.801204
vt 0.987049 0.781183
vt 0.988752 0.781182
vt 0.988752 0.801203
vt 0.226722 0.985286
vt 0.227238 0.965265
vt 0.227238 0.985286
vt 0.226722 0.965265
vt 0.224991 0.965263
vt 0.224991 0.985284
vt 0.988703 0.358577
vt 0.988703 0.338556
vt 0.990406 0.338554
vt 0.990406 0.358575
vt 0.927378 0.984907
vt 0.927894 0.964886
vt 0.927894 0.984907
vt 0.927378 0.964887
vt 0.925647 0.964884
vt 0.925647 0.984905
vt 0.987408 0.680491
vt 0.987408 0.660471
vt 0.989112 0.660469
vt 0.989112 0.680490
vt 0.502492 0.985115
vt 0.503008 0.965094
vt 0.503008 0.985115
vt 0.502492 0.965094
vt 0.500761 0.965092
vt 0.500761 0.985113
vt 0.987357 0.496042
vt 0.987357 0.476021
vt 0.989061 0.476019
vt 0.989061 0.496040
vt 0.983146 0.712855
vt 0.982630 0.732876
vt 0.982630 0.712855
vt 0.983146 0.732875
vt 0.984877 0.732878
vt 0.984877 0.712857
vt 0.989804 0.114675
vt 0.989804 0.134695
vt 0.988101 0.134697
vt 0.988101 0.114676
vt 0.984388 0.778524
vt 0.984904 0.758503
vt 0.984904 0.778524
vt 0.984388 0.758503
vt 0.982657 0.778522
vt 0.982656 0.758501
vt 0.732047 0.328950
vt 0.730136 0.328950
vt 0.730136 0.319719
vt 0.732047 0.318696
vt 0.139415 0.966722
vt 0.139415 0.976976
vt 0.136887 0.976976
vt 0.136887 0.966722
vt 0.139415 0.965620
vt 0.730136 0.330052
vt 0.732047 0.330052
vt 0.730136 0.339283
vt 0.136887 0.955366
vt 0.136887 0.965620
vt 0.732047 0.340305
vt 0.139415 0.955366
vt 0.977456 0.292072
vt 0.979983 0.312350
vt 0.977456 0.312350
vt 0.979983 0.292072
vt 0.477133 0.978708
vt 0.479661 0.968458
vt 0.479661 0.978708
vt 0.477133 0.968458
vt 0.477133 0.967356
vt 0.479661 0.967356
vt 0.479661 0.957106
vt 0.477133 0.957106
vt 0.616895 0.961381
vt 0.616895 0.981648
vt 0.614368 0.981648
vt 0.713674 0.319719
vt 0.711763 0.318696
vt 0.711763 0.328950
vt 0.757861 0.966532
vt 0.757861 0.982989
vt 0.755333 0.982989
vt 0.724373 0.973586
vt 0.724373 0.982818
vt 0.721845 0.982818
vt 0.713674 0.328950
vt 0.755333 0.966532
vt 0.721845 0.973586
vt 0.984904 0.050421
vt 0.984904 0.066870
vt 0.982377 0.066870
vt 0.982377 0.050421
vt 0.169620 0.985157
vt 0.172148 0.975929
vt 0.172148 0.985157
vt 0.169620 0.975929
vt 0.711763 0.330052
vt 0.713674 0.330052
vt 0.964973 0.982864
vt 0.962446 0.966406
vt 0.964973 0.966406
vt 0.713674 0.339283
vt 0.712453 0.973586
vt 0.714980 0.973586
vt 0.714980 0.982818
vt 0.712453 0.982818
vt 0.962446 0.982864
vt 0.821830 0.976407
vt 0.824357 0.976407
vt 0.824357 0.985635
vt 0.821830 0.985635
vt 0.973617 0.983683
vt 0.971090 0.983683
vt 0.971090 0.967234
vt 0.973617 0.967234
vt 0.711763 0.340306
vt 0.614368 0.961381
vn 0.0000 -0.8761 -0.4822
vn 0.0000 -0.4823 0.8760
vn 0.0000 0.8761 0.4822
vn 0.0000 -0.4822 0.8761
vn 0.0000 0.8761 0.4821
vn 0.0000 -0.4822 0.8760
vn -0.0000 -0.4821 0.8761
vn 0.0000 0.0000 1.0000
vn 0.0000 1.0000 0.0000
vn -1.0000 0.0000 0.0000
vn 0.0000 -1.0000 0.0000
vn 1.0000 0.0000 0.0000
usemtl Nuclear_station_1.002
s 1
f 1/1/1 2/2/1 3/3/1
f 1/1/1 3/3/1 4/4/1
f 5/5/2 4/6/2 3/7/2
f 5/5/2 6/8/2 4/6/2
f 5/5/3 7/9/3 6/8/3
f 5/5/3 8/10/3 7/9/3
f 9/11/1 10/12/1 11/13/1
f 9/11/1 11/13/1 12/14/1
f 13/15/4 12/16/4 11/17/4
f 13/15/4 14/18/4 12/16/4
f 13/15/5 15/19/5 14/18/5
f 13/15/5 16/20/5 15/19/5
f 17/21/1 20/22/1 18/23/1
f 17/21/1 18/23/1 19/24/1
f 21/25/2 19/26/2 18/27/2
f 21/25/6 22/28/6 19/26/6
f 21/25/3 23/29/3 22/28/3
f 21/25/3 24/30/3 23/29/3
f 25/31/1 28/32/1 26/33/1
f 25/31/1 26/33/1 27/34/1
f 29/35/4 27/36/4 26/37/4
f 29/35/2 30/38/2 27/36/2
f 29/35/3 31/39/3 30/38/3
f 29/35/3 32/40/3 31/39/3
f 33/41/1 34/42/1 35/43/1
f 33/41/1 35/43/1 36/44/1
f 38/45/7 36/46/7 35/47/7
f 38/45/4 37/48/4 36/46/4
f 38/45/5 40/49/5 39/50/5
f 38/45/5 39/50/5 37/48/5
f 41/51/8 46/52/8 42/53/8
f 41/51/8 42/53/8 43/54/8
f 41/55/9 43/56/9 44/57/9
f 41/55/9 44/57/9 45/58/9
f 48/59/9 41/55/9 45/58/9
f 47/60/8 46/52/8 41/51/8
f 47/60/8 41/51/8 48/61/8
f 48/61/8 50/62/8 47/60/8
f 52/63/9 48/59/9 49/64/9
f 48/59/9 45/58/9 49/64/9
f 48/61/8 51/65/8 50/62/8
f 52/63/9 51/66/9 48/59/9
f 53/67/10 51/68/10 52/69/10
f 53/67/10 54/70/10 51/68/10
f 53/71/11 55/72/11 54/73/11
f 53/71/11 56/74/11 55/72/11
f 56/74/11 58/75/11 57/76/11
f 56/74/11 57/76/11 55/72/11
f 60/77/11 57/76/11 58/75/11
f 60/77/11 58/75/11 59/78/11
f 43/79/12 60/80/12 59/81/12
f 43/54/8 61/82/8 60/83/8
f 61/82/8 57/84/8 60/83/8
f 61/85/10 42/86/10 63/87/10
f 43/54/8 42/53/8 61/82/8
f 62/88/9 61/89/9 64/90/9
f 61/82/8 62/91/8 57/84/8
f 61/85/10 63/87/10 64/92/10
f 62/88/9 64/90/9 65/93/9
f 65/94/12 66/95/12 46/96/12
f 65/94/12 46/96/12 62/97/12
f 42/98/11 66/99/11 63/100/11
f 42/98/11 46/101/11 66/99/11
f 55/102/8 57/84/8 62/91/8
f 67/103/8 62/91/8 46/52/8
f 55/102/8 62/91/8 67/103/8
f 67/103/8 46/52/8 47/60/8
f 47/104/10 70/105/10 67/106/10
f 55/102/8 67/103/8 68/107/8
f 69/108/9 68/109/9 67/110/9
f 69/108/9 67/110/9 70/111/9
f 47/104/10 71/112/10 70/105/10
f 71/113/11 47/114/11 50/115/11
f 71/113/11 50/115/11 72/116/11
f 72/117/12 50/118/12 68/119/12
f 72/117/12 68/119/12 69/120/12
f 54/121/8 68/107/8 50/62/8
f 55/102/8 68/107/8 54/121/8
f 43/79/12 59/81/12 44/122/12
f 54/121/8 50/62/8 51/65/8
