# Blender v2.92.0 OBJ File: 'NuclearStationGrouped.blend'
# www.blender.org
mtllib NuclearStation_Ladder2B.mtl
o Ladder2B_Cube.038_Cube.045
v -0.759386 2.432380 1.245216
v -0.759386 1.141969 1.245215
v -0.759386 2.432380 1.229109
v -0.775651 2.432380 1.212844
v -0.775651 2.432380 1.261481
v -0.775651 1.141969 1.261480
v -0.847020 1.141969 1.261480
v -0.847020 2.432380 1.261481
v -0.847020 1.141969 1.212843
v -0.847020 2.432380 1.212844
v -0.775651 1.141969 1.212843
v -0.759386 1.141969 1.229108
v -0.809225 1.204167 1.009655
v -0.809225 1.253354 1.217186
v -0.809225 1.204167 1.217186
v -0.840994 1.204167 1.217186
v -0.809225 1.253354 1.009655
v -0.840994 1.204167 1.009655
v -0.840994 1.253354 1.217186
v -0.840994 1.253354 1.009655
v -0.809225 1.302541 1.009655
v -0.809225 1.351727 1.217186
v -0.809225 1.302541 1.217186
v -0.840994 1.302541 1.217186
v -0.809225 1.351727 1.009655
v -0.840994 1.302541 1.009655
v -0.840994 1.351727 1.217186
v -0.840994 1.351727 1.009655
v -0.809225 1.400914 1.009655
v -0.809225 1.450101 1.217186
v -0.809225 1.400914 1.217186
v -0.840994 1.400914 1.217186
v -0.809225 1.450101 1.009655
v -0.840994 1.400914 1.009655
v -0.840994 1.450101 1.217186
v -0.840994 1.450101 1.009655
v -0.809225 1.499288 1.009655
v -0.809225 1.548475 1.217186
v -0.809225 1.499288 1.217186
v -0.840994 1.499288 1.217186
v -0.809225 1.548475 1.009655
v -0.840994 1.499288 1.009655
v -0.840994 1.548475 1.217186
v -0.840994 1.548475 1.009655
v -0.809225 1.597661 1.009655
v -0.809225 1.646848 1.217187
v -0.809225 1.597661 1.217186
v -0.840994 1.597661 1.217186
v -0.809225 1.646848 1.009655
v -0.840994 1.597661 1.009655
v -0.840994 1.646848 1.009655
v -0.840994 1.646848 1.217187
v -0.809225 1.696035 1.009655
v -0.840994 1.696035 1.009655
v -0.809225 1.745222 1.217187
v -0.809225 1.696035 1.217187
v -0.840994 1.696035 1.217187
v -0.809225 1.745222 1.009655
v -0.840994 1.745222 1.009655
v -0.840994 1.745222 1.217187
v -0.809225 1.794409 1.009655
v -0.809225 1.843596 1.217187
v -0.809225 1.794409 1.217187
v -0.840994 1.794409 1.217187
v -0.809225 1.843596 1.009655
v -0.840994 1.794409 1.009655
v -0.840994 1.843596 1.009655
v -0.840994 1.843596 1.217187
v -0.809225 2.139153 1.009655
v -0.840994 2.139153 1.217187
v -0.809225 2.139153 1.217187
v -0.809225 2.089966 1.009655
v -0.840994 2.139153 1.009655
v -0.840994 2.089966 1.009655
v -0.840994 2.089966 1.217187
v -0.809225 2.089966 1.217187
v -0.809225 2.040779 1.009655
v -0.840994 2.040779 1.009655
v -0.840994 2.040779 1.217187
v -0.809225 2.040779 1.217187
v -0.809225 1.991592 1.009655
v -0.840994 1.991592 1.217187
v -0.840994 1.991592 1.009655
v -0.809225 1.991592 1.217187
v -0.809225 1.942406 1.009655
v -0.840994 1.942406 1.009655
v -0.840994 1.942406 1.217187
v -0.809225 1.942406 1.217187
v -0.809225 1.893219 1.009655
v -0.840994 1.893219 1.217187
v -0.809225 1.893219 1.217187
v -0.840994 1.893219 1.009655
v -0.809225 2.336406 1.009655
v -0.840994 2.336406 1.217187
v -0.809225 2.336406 1.217187
v -0.809225 2.287219 1.009655
v -0.840994 2.336406 1.009655
v -0.840994 2.287219 1.009655
v -0.840994 2.287219 1.217187
v -0.809225 2.287219 1.217187
v -0.809225 2.238032 1.009655
v -0.840994 2.238032 1.217187
v -0.809225 2.238032 1.217187
v -0.809225 2.188845 1.009655
v -0.840994 2.238032 1.009655
v -0.840994 2.188845 1.009655
v -0.840994 2.188845 1.217187
v -0.809225 2.188845 1.217187
v -0.775651 2.432380 0.965362
v -0.847020 2.432380 0.965362
v -0.775651 2.432380 1.013999
v -0.759386 1.141969 0.981626
v -0.847020 1.141969 0.965361
v -0.775651 1.141969 0.965361
v -0.759386 2.432380 0.981627
v -0.759386 2.432380 0.997734
v -0.759386 1.141969 0.997733
v -0.775651 1.141969 1.013999
v -0.847020 2.432380 1.013999
v -0.847020 1.141969 1.013999
vt 0.951600 0.316807
vt 0.952152 0.316810
vt 0.952152 0.403657
vt 0.555514 0.494555
vt 0.554966 0.494555
vt 0.554966 0.407775
vt 0.963836 0.856373
vt 0.964384 0.856373
vt 0.964937 0.856926
vt 0.963282 0.856926
vt 0.951600 0.403653
vt 0.949171 0.316807
vt 0.949171 0.403653
vt 0.128670 0.965081
vt 0.127015 0.878256
vt 0.128670 0.878256
vt 0.127015 0.965081
vt 0.738892 0.907962
vt 0.736463 0.821119
vt 0.738892 0.821119
vt 0.736463 0.907962
vt 0.735909 0.821125
vt 0.735909 0.907968
vt 0.555514 0.407775
vt 0.964937 0.859354
vt 0.963282 0.859354
vt 0.759455 0.992478
vt 0.756147 0.992477
vt 0.756147 0.985416
vt 0.759455 0.985417
vt 0.029295 0.987552
vt 0.028215 0.994613
vt 0.028215 0.987552
vt 0.029295 0.994613
vt 0.609682 0.991189
vt 0.609682 0.984128
vt 0.612992 0.984129
vt 0.612992 0.991189
vt 0.965284 0.305474
vt 0.966365 0.305474
vt 0.966365 0.312534
vt 0.965284 0.312535
vt 0.753956 0.992478
vt 0.750648 0.992477
vt 0.750648 0.985416
vt 0.753956 0.985417
vt 0.994661 0.810708
vt 0.993581 0.817769
vt 0.993581 0.810708
vt 0.994661 0.817769
vt 0.943513 0.983962
vt 0.940203 0.991022
vt 0.940203 0.983962
vt 0.943513 0.991023
vt 0.992794 0.554872
vt 0.991713 0.554872
vt 0.991713 0.547811
vt 0.992794 0.547811
vt 0.599761 0.985108
vt 0.603069 0.985108
vt 0.603069 0.992169
vt 0.599761 0.992169
vt 0.993298 0.944423
vt 0.994378 0.937362
vt 0.994378 0.944423
vt 0.993298 0.937362
vt 0.528729 0.990391
vt 0.532039 0.983330
vt 0.532039 0.990391
vt 0.528729 0.983330
vt 0.660390 0.992072
vt 0.659309 0.992072
vt 0.659309 0.985011
vt 0.660390 0.985011
vt 0.587354 0.992307
vt 0.584046 0.992307
vt 0.584046 0.985246
vt 0.587354 0.985247
vt 0.994532 0.291887
vt 0.993451 0.298948
vt 0.993451 0.291887
vt 0.994532 0.298948
vt 0.052085 0.984165
vt 0.052085 0.991226
vt 0.048775 0.991226
vt 0.048775 0.984165
vt 0.991790 0.568753
vt 0.992871 0.568753
vt 0.992871 0.575814
vt 0.991790 0.575814
vt 0.716960 0.992205
vt 0.713652 0.992204
vt 0.713652 0.985144
vt 0.716960 0.985144
vt 0.993581 0.845839
vt 0.994661 0.838778
vt 0.994661 0.845839
vt 0.993581 0.838778
vt 0.984909 0.989628
vt 0.984909 0.982567
vt 0.988218 0.982567
vt 0.988218 0.989628
vt 0.992955 0.021078
vt 0.991874 0.014017
vt 0.992955 0.014017
vt 0.991874 0.021078
vt 0.994572 0.528018
vt 0.994572 0.535079
vt 0.993492 0.535079
vt 0.689724 0.985144
vt 0.693032 0.985144
vt 0.693032 0.992205
vt 0.689724 0.992204
vt 0.993492 0.528018
vt 0.991874 0.004661
vt 0.992955 0.011722
vt 0.991874 0.011722
vt 0.992955 0.004661
vt 0.084236 0.989571
vt 0.084236 0.982511
vt 0.087545 0.982511
vt 0.087545 0.989572
vt 0.965765 0.992352
vt 0.962457 0.992352
vt 0.962457 0.985291
vt 0.965765 0.985291
vt 0.993058 0.169288
vt 0.994139 0.162228
vt 0.994139 0.169288
vt 0.993058 0.162227
vt 0.422834 0.991975
vt 0.426144 0.984915
vt 0.426144 0.991976
vt 0.422834 0.984915
vt 0.991782 0.969242
vt 0.992863 0.976303
vt 0.991782 0.976303
vt 0.992863 0.969243
vt 0.910318 0.081595
vt 0.909237 0.081595
vt 0.909237 0.074534
vt 0.910318 0.074534
vt 0.233431 0.985213
vt 0.236738 0.985214
vt 0.236738 0.992275
vt 0.987084 0.080031
vt 0.987084 0.072970
vt 0.990394 0.072970
vt 0.990394 0.080031
vt 0.994378 0.946719
vt 0.994378 0.953780
vt 0.993298 0.953780
vt 0.993298 0.946719
vt 0.233431 0.992274
vt 0.991790 0.578109
vt 0.992871 0.578109
vt 0.992871 0.585170
vt 0.991790 0.585170
vt 0.670961 0.992547
vt 0.667653 0.992547
vt 0.667653 0.985486
vt 0.670961 0.985486
vt 0.993648 0.608877
vt 0.993648 0.601816
vt 0.994728 0.601816
vt 0.994728 0.608877
vt 0.653839 0.992072
vt 0.653839 0.985011
vt 0.657149 0.985011
vt 0.657149 0.992072
vt 0.948252 0.522098
vt 0.949333 0.522098
vt 0.949333 0.529159
vt 0.948252 0.529159
vt 0.705962 0.992205
vt 0.702654 0.992204
vt 0.702654 0.985144
vt 0.705962 0.985144
vt 0.994139 0.171584
vt 0.994139 0.178645
vt 0.993058 0.178645
vt 0.993058 0.171584
vt 0.628116 0.991744
vt 0.628116 0.984683
vt 0.631425 0.984684
vt 0.631425 0.991744
vt 0.991790 0.559396
vt 0.992871 0.559396
vt 0.992871 0.566457
vt 0.991790 0.566457
vt 0.992210 0.252004
vt 0.988902 0.252004
vt 0.988902 0.244943
vt 0.459048 0.991607
vt 0.459048 0.984547
vt 0.462358 0.984547
vt 0.462358 0.991608
vt 0.994661 0.848135
vt 0.994661 0.855196
vt 0.993581 0.855196
vt 0.993581 0.848135
vt 0.992210 0.244943
vt 0.991249 0.693681
vt 0.992330 0.693681
vt 0.992330 0.700742
vt 0.991249 0.700742
vt 0.711461 0.992205
vt 0.708153 0.992204
vt 0.708153 0.985144
vt 0.975798 0.989879
vt 0.975798 0.982818
vt 0.979107 0.982818
vt 0.994661 0.820065
vt 0.994661 0.827126
vt 0.993581 0.827126
vt 0.979107 0.989879
vt 0.993581 0.820065
vt 0.711461 0.985144
vt 0.948483 0.077120
vt 0.948483 0.163963
vt 0.946054 0.163963
vt 0.732926 0.990813
vt 0.732926 0.988384
vt 0.734581 0.990813
vt 0.733480 0.991366
vt 0.945500 0.077126
vt 0.946054 0.077120
vt 0.945500 0.163969
vt 0.734028 0.991366
vt 0.555514 0.499078
vt 0.555514 0.585857
vt 0.554966 0.585857
vt 0.948387 0.752778
vt 0.948940 0.752781
vt 0.948940 0.839628
vt 0.554966 0.499078
vt 0.948387 0.839624
vt 0.951368 0.752781
vt 0.951368 0.839628
vt 0.273428 0.878198
vt 0.271773 0.965023
vt 0.271773 0.878198
vt 0.273428 0.965023
vt 0.734581 0.988384
vn 0.7071 -0.0000 0.7071
vn 1.0000 -0.0000 0.0000
vn 0.0000 1.0000 0.0000
vn 0.0000 -0.0000 1.0000
vn -1.0000 -0.0000 0.0000
vn 0.0000 0.0000 -1.0000
vn 0.7071 0.0000 -0.7071
vn 0.0000 -1.0000 0.0000
usemtl Nuclear_station_1.002
s 1
f 6/1/1 2/2/1 1/3/1
f 3/4/2 1/5/2 2/6/2
f 1/7/3 3/8/3 4/9/3
f 5/10/3 1/7/3 4/9/3
f 6/1/1 1/3/1 5/11/1
f 5/11/4 7/12/4 6/1/4
f 5/11/4 8/13/4 7/12/4
f 8/14/5 9/15/5 7/16/5
f 8/14/5 10/17/5 9/15/5
f 10/18/6 11/19/6 9/20/6
f 10/18/6 4/21/6 11/19/6
f 4/21/7 12/22/7 11/19/7
f 4/21/7 3/23/7 12/22/7
f 3/4/2 2/6/2 12/24/2
f 4/9/3 10/25/3 8/26/3
f 8/26/3 5/10/3 4/9/3
f 13/27/2 17/28/2 14/29/2
f 13/27/2 14/29/2 15/30/2
f 16/31/8 13/32/8 15/33/8
f 16/31/8 18/34/8 13/32/8
f 19/35/5 20/36/5 18/37/5
f 19/35/5 18/37/5 16/38/5
f 17/39/3 20/40/3 19/41/3
f 17/39/3 19/41/3 14/42/3
f 21/43/2 25/44/2 22/45/2
f 21/43/2 22/45/2 23/46/2
f 24/47/8 21/48/8 23/49/8
f 24/47/8 26/50/8 21/48/8
f 27/51/5 26/52/5 24/53/5
f 27/51/5 28/54/5 26/52/5
f 25/55/3 28/56/3 27/57/3
f 25/55/3 27/57/3 22/58/3
f 29/59/2 33/60/2 30/61/2
f 29/59/2 30/61/2 31/62/2
f 32/63/8 29/64/8 31/65/8
f 32/63/8 34/66/8 29/64/8
f 35/67/5 34/68/5 32/69/5
f 35/67/5 36/70/5 34/68/5
f 33/71/3 36/72/3 35/73/3
f 33/71/3 35/73/3 30/74/3
f 37/75/2 41/76/2 38/77/2
f 37/75/2 38/77/2 39/78/2
f 40/79/8 37/80/8 39/81/8
f 40/79/8 42/82/8 37/80/8
f 43/83/5 44/84/5 42/85/5
f 43/83/5 42/85/5 40/86/5
f 41/87/3 44/88/3 43/89/3
f 41/87/3 43/89/3 38/90/3
f 45/91/2 49/92/2 46/93/2
f 45/91/2 46/93/2 47/94/2
f 48/95/8 45/96/8 47/97/8
f 48/95/8 50/98/8 45/96/8
f 52/99/5 51/100/5 50/101/5
f 52/99/5 50/101/5 48/102/5
f 49/103/3 52/104/3 46/105/3
f 49/103/3 51/106/3 52/104/3
f 57/107/8 54/108/8 53/109/8
f 53/110/2 58/111/2 55/112/2
f 53/110/2 55/112/2 56/113/2
f 57/107/8 53/109/8 56/114/8
f 58/115/3 60/116/3 55/117/3
f 58/115/3 59/118/3 60/116/3
f 60/119/5 59/120/5 54/121/5
f 60/119/5 54/121/5 57/122/5
f 61/123/2 65/124/2 62/125/2
f 61/123/2 62/125/2 63/126/2
f 64/127/8 61/128/8 63/129/8
f 64/127/8 66/130/8 61/128/8
f 68/131/5 66/132/5 64/133/5
f 68/131/5 67/134/5 66/132/5
f 65/135/3 68/136/3 62/137/3
f 65/135/3 67/138/3 68/136/3
f 69/139/3 73/140/3 70/141/3
f 69/139/3 70/141/3 71/142/3
f 72/143/2 69/144/2 71/145/2
f 70/146/5 73/147/5 74/148/5
f 70/146/5 74/148/5 75/149/5
f 75/150/8 74/151/8 72/152/8
f 75/150/8 72/152/8 76/153/8
f 72/143/2 71/145/2 76/154/2
f 77/155/3 78/156/3 79/157/3
f 77/155/3 79/157/3 80/158/3
f 81/159/2 77/160/2 80/161/2
f 81/159/2 80/161/2 84/162/2
f 82/163/8 83/164/8 81/165/8
f 82/163/8 81/165/8 84/166/8
f 79/167/5 78/168/5 83/169/5
f 79/167/5 83/169/5 82/170/5
f 85/171/3 86/172/3 87/173/3
f 85/171/3 87/173/3 88/174/3
f 89/175/2 85/176/2 88/177/2
f 89/175/2 88/177/2 91/178/2
f 90/179/8 92/180/8 89/181/8
f 90/179/8 89/181/8 91/182/8
f 87/183/5 86/184/5 92/185/5
f 87/183/5 92/185/5 90/186/5
f 93/187/3 97/188/3 94/189/3
f 93/187/3 94/189/3 95/190/3
f 96/191/2 93/192/2 95/193/2
f 94/194/5 97/195/5 98/196/5
f 94/194/5 98/196/5 99/197/5
f 99/198/8 98/199/8 96/200/8
f 99/198/8 96/200/8 100/201/8
f 96/191/2 95/193/2 100/202/2
f 101/203/3 105/204/3 102/205/3
f 101/203/3 102/205/3 103/206/3
f 104/207/2 101/208/2 103/209/2
f 102/210/5 105/211/5 106/212/5
f 107/213/8 106/214/8 104/215/8
f 102/210/5 106/212/5 107/216/5
f 107/213/8 104/215/8 108/217/8
f 104/207/2 103/209/2 108/218/2
f 113/219/6 110/220/6 109/221/6
f 109/222/3 110/223/3 111/224/3
f 115/225/3 109/222/3 111/224/3
f 112/226/7 114/227/7 109/221/7
f 112/226/7 109/221/7 115/228/7
f 113/219/6 109/221/6 114/227/6
f 111/224/3 116/229/3 115/225/3
f 112/230/2 115/231/2 116/232/2
f 116/233/1 111/234/1 118/235/1
f 112/230/2 116/232/2 117/236/2
f 116/233/1 118/235/1 117/237/1
f 118/235/4 111/234/4 119/238/4
f 118/235/4 119/238/4 120/239/4
f 120/240/5 110/241/5 113/242/5
f 120/240/5 119/243/5 110/241/5
f 110/223/3 119/244/3 111/224/3
