# Blender v2.92.0 OBJ File: 'NuclearStationGrouped.blend'
# www.blender.org
mtllib NuclearStation_MainBuilding.mtl
o MainBuilding_Cube.038_Cube.054
v -2.008134 0.133128 -0.098527
v -1.876151 2.149107 0.033458
v -2.008134 2.149107 -0.098526
v -2.008134 1.205516 -1.183310
v -2.008134 0.133129 -1.183310
v -1.876151 0.133128 0.033457
v 1.192785 2.151307 0.033457
v 2.662349 0.131046 0.033456
v 2.794332 0.131046 -0.098527
v 2.662349 2.151307 0.033457
v 2.794332 2.151307 -0.098526
v 2.634581 2.259677 -0.126293
v 2.794332 2.151308 -2.051327
v 2.794332 1.203812 -1.180795
v 2.794332 1.312181 -1.340547
v 4.662603 1.312181 -1.340547
v 4.605186 1.312181 -1.397964
v 2.794332 1.312181 -1.397964
v 2.794332 1.204719 -1.397964
v 4.605186 1.204719 -1.397964
v 2.794332 1.204719 -2.051327
v 2.664863 1.204719 -2.180796
v 4.605186 1.204719 -2.180796
v 4.605186 1.204719 -2.963628
v 4.605186 1.312181 -2.963628
v 4.605186 1.312181 -2.180796
v 4.662603 1.312181 -2.180796
v 4.662603 1.312181 -3.021045
v 4.822354 1.203812 -2.180796
v 4.822354 0.135704 -1.312779
v 4.822354 0.135704 -2.180796
v 4.822354 1.203812 -3.048813
v 4.822354 1.203812 -1.312778
v 4.690371 0.135704 -1.180796
v 4.690371 1.203812 -1.180795
v 2.794332 0.135704 -1.180796
v 4.822354 0.135704 -3.048813
v 4.690371 1.203812 -3.180796
v -4.711066 1.203812 -3.180796
v 4.690371 0.135704 -3.180796
v -4.711066 0.135704 -3.180796
v -4.843049 1.203812 -3.048813
v -4.843049 0.135704 -3.048813
v -4.843049 0.135704 -1.312779
v -4.843049 1.203812 -1.312778
v -4.683298 1.312181 -1.340547
v -4.711066 1.203812 -1.180795
v -4.711066 0.135704 -1.180796
v -4.683298 1.312181 -3.021045
v -4.625881 1.312181 -1.397964
v -2.008134 1.312181 -1.340547
v -4.625881 1.312181 -2.963628
v -4.625881 1.204719 -2.963628
v -4.625881 1.204719 -1.397964
v -2.008134 1.204719 -2.051327
v -1.878665 1.204719 -2.180796
v -2.008134 2.149108 -2.051327
v -1.876151 2.149108 -2.183309
v 1.192785 2.151308 -2.183310
v -1.876151 3.088843 -2.183309
v 2.662349 2.151308 -2.183310
v 1.323136 2.240841 -2.051326
v 1.191153 3.088843 -2.183310
v 1.323136 3.088843 -2.051326
v 1.163385 3.197212 -2.023559
v 1.105968 3.197211 -0.183710
v 1.163385 3.197211 -0.126293
v -1.848383 3.197212 -2.023559
v -1.790967 3.197212 -1.966142
v 1.105968 3.197212 -1.966142
v 1.105968 3.089749 -0.183710
v 1.105968 3.089750 -1.966142
v -1.790967 3.089750 -1.966142
v -1.790966 3.089749 -0.183710
v -1.790966 3.197211 -0.183710
v -1.848383 3.197211 -0.126293
v -1.876151 3.088842 0.033458
v -2.008134 3.088842 -0.098526
v 1.191153 3.088842 0.033457
v 1.323136 3.088842 -0.098526
v 1.323136 2.240840 -0.098526
v 1.323136 2.259677 -0.126293
v 2.577164 2.259677 -0.183711
v 1.323136 2.259677 -0.183710
v 2.577164 2.152215 -0.183712
v 1.323136 2.152215 -0.183711
v 1.323136 2.152216 -1.966142
v 1.323136 2.259678 -1.966142
v 2.577164 2.152216 -1.966142
v 2.577164 2.259678 -1.966142
v 1.323136 2.259678 -2.023559
v 2.634581 2.259678 -2.023559
v -2.008134 3.088843 -2.051326
v -2.008134 1.312181 -1.397964
v -2.008134 1.204719 -1.397964
v -0.417445 3.090057 -1.707759
v -1.621178 3.337002 -1.707759
v -0.417445 3.337002 -1.707759
v -1.621178 3.090057 -1.707759
v -0.417445 3.090057 -0.504026
v -1.621178 3.090057 -0.504026
v -0.417445 3.337002 -0.504026
v -1.621178 3.337002 -0.504026
vt 0.449245 0.615115
vt 0.444747 0.615144
vt 0.444747 0.479466
vt 0.449244 0.479436
vt 0.459056 0.614661
vt 0.459059 0.479015
vt 0.495967 0.542505
vt 0.495965 0.614661
vt 0.340329 0.479317
vt 0.290328 0.615283
vt 0.290328 0.479316
vt 0.285843 0.479287
vt 0.285843 0.615253
vt 0.075534 0.581667
vt 0.076551 0.589163
vt 0.010111 0.589728
vt 0.081033 0.588946
vt 0.034770 0.645951
vt 0.040267 0.653192
vt 0.077698 0.725019
vt 0.032816 0.645968
vt 0.558965 0.411904
vt 0.558965 0.348340
vt 0.560919 0.350293
vt 0.683956 0.750229
vt 0.620389 0.750229
vt 0.620397 0.742900
vt 0.560919 0.411904
vt 0.032878 0.653194
vt 0.010648 0.653383
vt 0.073964 0.792568
vt 0.081197 0.730957
vt 0.081197 0.792568
vt 0.073964 0.730957
vt 0.070179 0.576133
vt 0.006472 0.576134
vt 0.006424 0.571724
vt 0.673198 0.664002
vt 0.646563 0.664002
vt 0.650968 0.602391
vt 0.673198 0.602391
vt 0.646563 0.597986
vt 0.607047 0.937575
vt 0.599816 0.937575
vt 0.599816 0.910941
vt 0.619928 0.664002
vt 0.607047 0.910941
vt 0.599816 0.884306
vt 0.587554 0.348340
vt 0.614190 0.350293
vt 0.587554 0.350293
vt 0.607047 0.884306
vt 0.616143 0.348340
vt 0.582088 0.747187
vt 0.610685 0.754691
vt 0.582096 0.754691
vt 0.553507 0.754691
vt 0.552554 0.747187
vt 0.552559 0.675357
vt 0.582093 0.675357
vt 0.611622 0.747187
vt 0.684908 0.671014
vt 0.689392 0.671044
vt 0.689393 0.742929
vt 0.684909 0.742900
vt 0.548071 0.747366
vt 0.620396 0.671014
vt 0.040873 0.725019
vt 0.611626 0.675357
vt 0.638416 0.009156
vt 0.566580 0.013652
vt 0.566531 0.009157
vt 0.616120 0.747366
vt 0.566580 0.333520
vt 0.638465 0.013652
vt 0.559227 0.014591
vt 0.638465 0.333519
vt 0.638416 0.338004
vt 0.566531 0.338005
vt 0.792821 0.305573
vt 0.733756 0.233706
vt 0.792823 0.233705
vt 0.733754 0.305573
vt 0.791882 0.312990
vt 0.797317 0.305677
vt 0.432400 0.714514
vt 0.432430 0.719011
vt 0.360542 0.719011
vt 0.432517 0.622552
vt 0.360513 0.714514
vt 0.439730 0.713578
vt 0.360341 0.622552
vt 0.439731 0.622560
vt 0.734704 0.312990
vt 0.558965 0.666317
vt 0.614189 0.664364
vt 0.616143 0.666317
vt 0.560919 0.664364
vt 0.558965 0.575300
vt 0.861028 0.349085
vt 0.868261 0.349085
vt 0.868261 0.663155
vt 0.861028 0.663155
vt 0.936776 0.830127
vt 0.944003 0.883396
vt 0.936776 0.883396
vt 0.619928 0.349931
vt 0.646563 0.443400
vt 0.944003 0.830127
vt 0.650968 0.438995
vt 0.673198 0.349931
vt 0.006424 0.417139
vt 0.006472 0.412739
vt 0.070031 0.412738
vt 0.069982 0.417224
vt 0.070130 0.521639
vt 0.133227 0.417223
vt 0.133227 0.521582
vt 0.070130 0.571638
vt 0.076205 0.526078
vt 0.367182 0.798489
vt 0.424391 0.793995
vt 0.430236 0.798493
vt 0.140580 0.520643
vt 0.367362 0.793991
vt 0.359857 0.793055
vt 0.695472 0.108464
vt 0.697425 0.106510
vt 0.758071 0.106510
vt 0.760025 0.108464
vt 0.359857 0.728504
vt 0.695472 0.005994
vt 0.697425 0.007947
vt 0.140580 0.418173
vt 0.741146 0.821282
vt 0.748379 0.919845
vt 0.741146 0.919845
vt 0.944223 0.066054
vt 0.936992 0.066053
vt 0.936992 0.005409
vt 0.944223 0.005410
vt 0.748379 0.821282
vt 0.695417 0.113371
vt 0.756063 0.211934
vt 0.695417 0.211934
vt 0.944778 0.492026
vt 0.937551 0.492025
vt 0.937551 0.431381
vt 0.756063 0.113371
vt 0.944778 0.431382
vt 0.924658 0.431911
vt 0.931890 0.530474
vt 0.924658 0.530474
vt 0.758071 0.007947
vt 0.760025 0.005994
vt 0.443810 0.408891
vt 0.340384 0.416219
vt 0.341337 0.408890
vt 0.444747 0.416220
vt 0.460000 0.408368
vt 0.459061 0.415785
vt 0.454565 0.415682
vt 0.524553 0.408368
vt 0.367182 0.723068
vt 0.367362 0.727551
vt 0.430236 0.723072
vt 0.424391 0.727555
vt 0.291280 0.471987
vt 0.335901 0.471988
vt 0.335900 0.473261
vt 0.423124 0.728499
vt 0.085002 0.757272
vt 0.129623 0.757272
vt 0.127670 0.759225
vt 0.085002 0.759225
vt 0.423124 0.730453
vt 0.535036 0.952187
vt 0.535036 0.909521
vt 0.542268 0.909521
vt 0.542268 0.952187
vt 0.430351 0.730453
vt 0.430351 0.791097
vt 0.423124 0.791097
vt 0.847985 0.729903
vt 0.805318 0.669259
vt 0.847985 0.669259
vt 0.805318 0.729903
vt 0.669924 0.942689
vt 0.662694 0.942689
vt 0.662694 0.882045
vt 0.081774 0.951120
vt 0.074542 0.908454
vt 0.081774 0.908454
vt 0.074542 0.951120
vt 0.129623 0.821823
vt 0.127670 0.819869
vt 0.669924 0.882045
vt 0.085002 0.821823
vt 0.085002 0.819869
vt 0.010983 0.582216
vt 0.005611 0.589587
vt 0.077483 0.570699
vt 0.077483 0.526079
vt 0.423124 0.793050
vt 0.449244 0.416191
vt 0.525502 0.479015
vt 0.525504 0.415785
vt 0.133276 0.412737
vt 0.529989 0.415682
vt 0.931890 0.431911
vt 0.501317 0.535328
vt 0.525500 0.542559
vt 0.503270 0.535328
vt 0.560919 0.575300
vt 0.840911 0.839013
vt 0.848143 0.928077
vt 0.840911 0.928077
vt 0.503270 0.542559
vt 0.848143 0.839013
vt 0.673198 0.438995
vt 0.559227 0.332569
vt 0.729268 0.305677
vt 0.269419 0.877557
vt 0.269419 0.918512
vt 0.252800 0.918512
vt 0.252800 0.877557
vt 0.750834 0.919187
vt 0.750834 0.878232
vt 0.767441 0.878233
vt 0.767441 0.919188
vt 0.233616 0.918512
vt 0.233616 0.877557
vt 0.250237 0.877557
vt 0.231656 0.681140
vt 0.272613 0.722095
vt 0.231656 0.722095
vt 0.250237 0.918512
vt 0.272613 0.681140
vt 0.124662 0.877615
vt 0.108045 0.918570
vt 0.108045 0.877615
vt 0.124662 0.918570
vn -0.7071 -0.0000 0.7071
vn -1.0000 0.0000 0.0000
vn 0.0000 -0.0000 1.0000
vn 0.7071 -0.0000 0.7071
vn 0.5614 0.8276 0.0000
vn 0.4475 0.7743 0.4475
vn 1.0000 0.0000 0.0000
vn 0.0000 1.0000 0.0000
vn 0.0000 0.8276 0.5614
vn 0.0000 0.0000 -1.0000
vn 0.7071 -0.0000 -0.7071
vn 0.4475 0.7743 -0.4475
vn 0.0000 0.8276 -0.5614
vn -0.7071 0.0000 -0.7071
vn -0.5614 0.8276 0.0000
vn -0.4475 0.7743 0.4475
vn 0.0009 -0.0000 1.0000
vn 0.0000 -0.0027 -1.0000
vn 0.0000 -0.0013 -1.0000
vn 0.0000 -0.0005 -1.0000
vn -0.0000 0.8275 -0.5614
vn 0.7102 0.0009 -0.7040
vn 0.7081 0.0003 -0.7061
vn 0.7111 0.0012 -0.7031
vn 0.7101 0.0009 0.7041
vn 0.7111 0.0012 0.7031
vn 0.7082 0.0003 0.7060
vn 0.0000 0.8275 0.5614
vn -0.4475 0.7743 -0.4475
usemtl Nuclear_station_1.002
s 1
f 1/1/1 6/2/1 2/3/1
f 1/1/1 2/3/1 3/4/1
f 1/5/2 3/6/2 4/7/2
f 1/5/2 4/7/2 5/8/2
f 7/9/3 2/3/3 6/2/3
f 7/9/3 6/2/3 8/10/3
f 8/10/3 10/11/3 7/9/3
f 11/12/4 8/10/4 9/13/4
f 11/12/4 10/11/4 8/10/4
f 12/14/5 11/15/5 13/16/5
f 12/14/6 10/17/6 11/15/6
f 11/15/7 15/18/7 13/16/7
f 11/15/7 14/19/7 15/18/7
f 14/19/7 11/15/7 9/20/7
f 15/18/7 18/21/7 13/16/7
f 15/22/8 16/23/8 17/24/8
f 16/25/9 15/26/9 14/27/9
f 15/22/8 17/24/8 18/28/8
f 18/21/7 19/29/7 21/30/7
f 18/31/10 20/32/10 19/33/10
f 21/30/7 13/16/7 18/21/7
f 18/31/10 17/34/10 20/32/10
f 13/35/11 21/36/11 22/37/11
f 20/38/8 23/39/8 21/40/8
f 21/40/8 19/41/8 20/38/8
f 23/39/8 22/42/8 21/40/8
f 25/43/2 24/44/2 23/45/2
f 24/46/8 22/42/8 23/39/8
f 25/43/2 23/45/2 26/47/2
f 26/47/2 23/45/2 20/48/2
f 27/49/8 25/50/8 26/51/8
f 27/49/8 26/51/8 17/24/8
f 26/47/2 20/48/2 17/52/2
f 27/49/8 28/53/8 25/50/8
f 29/54/5 28/55/5 27/56/5
f 29/54/5 27/56/5 16/57/5
f 27/49/8 17/24/8 16/23/8
f 29/54/7 33/58/7 30/59/7
f 29/54/7 30/59/7 31/60/7
f 32/61/7 29/54/7 31/60/7
f 29/54/5 32/61/5 28/55/5
f 29/54/5 16/57/5 33/58/5
f 34/62/4 30/63/4 33/64/4
f 34/62/4 33/64/4 35/65/4
f 16/57/6 35/66/6 33/58/6
f 35/65/3 36/67/3 34/62/3
f 35/65/3 14/27/3 36/67/3
f 16/25/9 14/27/9 35/65/9
f 14/19/7 9/20/7 36/68/7
f 32/61/7 31/60/7 37/69/7
f 37/70/11 38/71/11 32/72/11
f 28/55/12 32/61/12 38/73/12
f 39/74/10 38/71/10 40/75/10
f 39/74/13 28/76/13 38/71/13
f 37/70/11 40/75/11 38/71/11
f 39/74/10 40/75/10 41/77/10
f 41/77/14 43/78/14 42/79/14
f 41/77/14 42/79/14 39/74/14
f 45/80/2 43/81/2 44/82/2
f 45/80/2 42/83/2 43/81/2
f 46/84/15 42/83/15 45/80/15
f 46/84/16 45/80/16 47/85/16
f 47/86/1 45/87/1 44/88/1
f 4/89/17 47/86/17 48/90/17
f 4/89/9 46/91/9 47/86/9
f 47/86/1 44/88/1 48/90/1
f 4/89/17 48/90/17 5/92/17
f 4/89/9 51/93/9 46/91/9
f 46/84/15 49/94/15 42/83/15
f 46/95/8 52/96/8 49/97/8
f 46/95/8 50/98/8 52/96/8
f 51/99/8 50/98/8 46/95/8
f 52/100/3 53/101/3 24/102/3
f 52/100/3 24/102/3 25/103/3
f 49/97/8 52/96/8 25/50/8
f 50/104/7 53/105/7 52/106/7
f 24/46/8 53/107/8 56/108/8
f 50/104/7 54/109/7 53/105/7
f 55/110/8 53/107/8 54/111/8
f 55/110/8 56/108/8 53/107/8
f 56/112/14 55/113/14 57/114/14
f 56/112/14 57/114/14 58/115/14
f 56/112/18 58/115/19 59/116/20
f 56/112/18 59/116/20 22/37/18
f 24/46/8 56/108/8 22/42/8
f 60/117/10 63/118/10 59/116/20
f 60/117/10 59/116/20 58/115/19
f 22/37/18 59/116/20 61/119/18
f 61/119/13 59/116/13 62/120/21
f 63/121/22 62/122/23 59/123/24
f 60/117/13 65/124/13 63/118/13
f 63/121/22 64/125/11 62/122/23
f 65/126/12 64/125/12 63/121/12
f 65/127/8 70/128/8 66/129/8
f 65/127/8 66/129/8 67/130/8
f 67/131/5 64/125/5 65/126/5
f 65/127/8 68/132/8 69/133/8
f 60/117/13 68/134/13 65/124/13
f 65/127/8 69/133/8 70/128/8
f 69/135/3 72/136/3 70/137/3
f 70/138/2 72/139/2 71/140/2
f 70/138/2 71/140/2 66/141/2
f 69/135/3 73/142/3 72/136/3
f 73/143/8 71/144/8 72/145/8
f 75/146/7 74/147/7 73/148/7
f 73/143/8 74/149/8 71/144/8
f 75/146/7 73/148/7 69/150/7
f 66/151/10 74/152/10 75/153/10
f 67/130/8 66/129/8 75/154/8
f 67/130/8 75/154/8 76/155/8
f 76/155/8 75/154/8 69/133/8
f 76/156/9 79/157/9 67/158/9
f 76/156/9 77/159/9 79/157/9
f 76/160/16 78/161/16 77/162/16
f 78/161/15 76/160/15 68/163/15
f 76/155/8 69/133/8 68/132/8
f 67/131/6 79/164/6 80/165/6
f 79/164/25 7/166/26 81/167/27
f 7/9/3 79/157/3 77/159/3
f 79/164/25 81/167/27 80/165/4
f 12/168/9 82/169/28 81/170/9
f 10/11/9 12/168/9 81/170/9
f 81/170/9 7/9/9 10/11/9
f 80/165/7 81/167/7 82/171/7
f 82/172/8 12/173/8 83/174/8
f 82/172/8 83/174/8 84/175/8
f 80/165/7 82/171/7 84/176/7
f 84/177/10 83/178/10 85/179/10
f 84/177/10 85/179/10 86/180/10
f 84/176/2 86/181/2 80/165/2
f 86/181/7 87/182/7 88/183/7
f 86/184/8 89/185/8 87/186/8
f 86/184/8 85/187/8 89/185/8
f 80/165/7 86/181/7 88/183/7
f 90/188/2 89/189/2 85/190/2
f 88/191/3 89/192/3 90/193/3
f 88/191/3 87/194/3 89/192/3
f 92/195/8 90/196/8 83/174/8
f 90/188/2 85/190/2 83/197/2
f 91/198/8 88/199/8 90/196/8
f 91/198/8 90/196/8 92/195/8
f 92/195/8 83/174/8 12/173/8
f 12/14/5 13/16/5 92/200/5
f 92/200/12 13/16/12 61/201/12
f 92/202/13 61/119/13 62/120/21
f 62/120/21 91/203/21 92/202/13
f 88/183/7 91/204/7 64/125/7
f 91/204/7 62/122/7 64/125/7
f 80/165/7 88/183/7 64/125/7
f 67/131/5 80/165/5 64/125/5
f 3/4/1 77/159/1 78/205/1
f 78/161/2 57/206/2 3/6/2
f 78/161/15 68/163/15 93/207/15
f 78/161/2 93/207/2 57/206/2
f 58/115/14 93/208/14 60/117/14
f 68/163/29 60/209/29 93/207/29
f 58/115/14 57/114/14 93/208/14
f 3/4/1 2/3/1 77/159/1
f 7/9/3 77/159/3 2/3/3
f 66/151/10 71/210/10 74/152/10
f 13/35/11 22/37/11 61/119/11
f 3/6/2 57/206/2 51/211/2
f 57/206/2 55/212/2 94/213/2
f 57/206/2 94/213/2 51/211/2
f 51/99/8 94/214/8 50/98/8
f 94/215/10 54/216/10 50/217/10
f 55/212/2 95/218/2 94/213/2
f 94/215/10 95/219/10 54/216/10
f 54/111/8 95/220/8 55/110/8
f 4/7/2 3/6/2 51/211/2
f 39/74/13 49/221/13 28/76/13
f 49/94/29 39/222/29 42/83/29
f 49/97/8 25/50/8 28/53/8
f 96/223/10 99/224/10 97/225/10
f 96/223/10 97/225/10 98/226/10
f 100/227/7 96/228/7 98/229/7
f 100/227/7 98/229/7 102/230/7
f 101/231/3 100/232/3 102/233/3
f 98/234/8 103/235/8 102/236/8
f 101/231/3 102/233/3 103/237/3
f 98/234/8 97/238/8 103/235/8
f 99/239/2 103/240/2 97/241/2
f 99/239/2 101/242/2 103/240/2
